<svg viewBox="0 0 380 198" fill="none" xmlns="http://www.w3.org/2000/svg">
<path d="M5.60007 157.139C10.4251 142.879 18.7769 124.058 28.0763 119C35.8403 114.778 50.4346 108.444 58.9009 104.907C69.2183 100.597 78.8848 101.134 90.6801 101.71C99.4297 102.138 113.097 110.097 124.292 117.893C128.239 122.184 131.939 126.342 134.029 130.626C134.494 131.674 134.952 132.59 135.424 133.535" stroke="white" stroke-width="9" stroke-linecap="round"/>
<path d="M73.6364 98.8222C74.3236 89.3943 77.0937 73.1766 79.2979 62.992C80.3588 58.09 83.335 51.8841 88.2919 43.3483C94.2605 33.0704 99.5457 27.0925 101.965 25.0167C105.285 22.1687 114.986 17.6299 128.728 11.6212C135.058 8.85368 140.409 7.44526 148.164 6.39C165.9 3.97653 177.301 5.09176 180.064 6.82044C184.466 9.57431 191.159 13.1728 197.858 18.1367C208.98 29.8139 217.332 41.4079 219.644 45.3373C220.581 46.9757 221.039 47.8921 222.205 49.5305" stroke="white" stroke-width="9" stroke-linecap="round"/>
<path d="M213.874 44.6706C215.943 43.06 223.316 39.8248 230.168 38.4259C240.92 36.2308 261.042 37.4921 268.921 39.3388C277.223 41.2845 282.799 45.351 289.179 49.513C293.927 52.6097 297.615 60.5828 301.915 66.8692C304.786 71.0646 309.417 77.0226 315.446 88.0195C319.773 95.9109 319.4 102.029 320.205 108.396C320.553 110.819 321.011 114.484 321.247 117.747C321.483 121.01 321.483 123.759 321.483 126.592" stroke="white" stroke-width="9" stroke-linecap="round"/>
<path d="M318.012 117.567C321.233 116.185 328.62 113.873 336.031 112.825C341.273 112.083 349.204 114.769 357.868 119.153C371.841 126.224 373.773 139.755 374.822 147.26C376.235 157.375 374.711 164.998 373.905 167.188C371.739 173.081 362.513 178.161 353.099 181.431C346.886 183.589 337.964 183.52 322.233 185.825C313.693 187.076 304.376 187.686 279.116 188.953C258.946 189.964 220.664 189.532 198.091 190.109C175.517 190.685 169.79 191.601 164.663 192.073C155.211 192.944 149.552 192.775 135.674 193.122C122.945 193.44 98.657 193.24 85.6885 193.125C72.7199 193.011 71.8035 192.782 61.3655 192.664C50.9275 192.545 30.9956 192.545 20.2695 192.316C9.54337 192.087 8.62698 191.629 7.92579 190.935C6.76639 189.324 5.83609 187.464 5.14186 182.066C4.90582 177.584 4.90582 169.566 5.60005 161.304" stroke="white" stroke-width="9" stroke-linecap="round"/>
<path d="M130.841 137.843C127.431 133.674 122.344 127.821 120.495 125.783C118.776 123.886 114.227 121.984 111.731 120.002C110.016 118.64 106.979 118.79 104.177 118.411C101.257 118.016 97.7042 117.525 92.9581 116.95C78.6189 115.211 76.4868 117.518 74.4519 118.343C72.4927 119.137 70.3898 119.926 67.027 121.01C64.3375 121.877 61.5035 122.974 58.577 124.5C56.2912 125.692 54.1338 127.166 51.8436 128.629C49.2763 130.27 46.5126 131.358 44.2853 132.821C42.1677 134.212 40.2861 135.549 38.3141 137.455C36.3995 139.304 34.8217 141.517 33.6118 143.489C32.3821 145.493 30.63 147.865 29.1039 150.346C27.7814 152.495 27.1929 156.233 26.8137 159.238C26.4997 161.726 26.1793 163.999 25.4171 166.286C25.1618 169.593 24.9065 171.872 24.4626 174.036C24.5216 174.547 24.8989 175.05 25.6686 175.568" stroke="white" stroke-width="36" stroke-linecap="round"/>
<path d="M26.4308 175.568C27.4406 175.694 29.7231 176.201 33.0231 176.456C35.883 176.677 39.1201 177.344 53.6194 177.536C61.5816 177.642 70.748 178.106 75.8847 178.298C77.1049 178.344 77.8586 178.487 82.9629 178.552C88.0672 178.617 97.4985 178.617 102.608 178.554C109.375 178.471 114.166 177.481 118.571 176.018C121.413 175.074 123.837 173.289 125.945 171.763C126.929 171.05 127.789 169.986 128.423 168.781C128.957 167.769 128.936 166.682 128.747 165.417C128.474 163.581 127.164 161.732 125.897 160.21C123.169 156.932 117.893 156.389 112.16 156.199C107.184 156.034 98.0014 156.134 93.021 156.197C87.5347 156.266 84.6301 156.515 79.3752 156.767C69.1749 157.255 66.7088 158.291 63.4698 158.863C59.8301 159.505 57.0489 161.214 57.0394 160.964C57.0118 160.24 59.5449 159.708 64.7921 158.186C70.0393 156.664 78.5903 154.526 83.2468 153.425C89.6193 151.918 92.217 151.942 100.377 150.931C112.203 149.465 115.081 150.799 120.783 152.064C124.834 152.963 127.656 154.099 131.904 155.873C134.386 156.909 137.174 157.91 139.914 158.735C140.991 159.059 142.391 159.56 143.976 160.257C144.685 160.569 145.184 160.829 140.099 158.506C135.014 156.184 124.325 151.279 118.064 148.627C108.009 144.368 104.434 144.07 99.5505 144.003C95.6244 143.949 92.6209 145.586 89.9516 146.162C86.9601 146.807 83.8641 146.608 78.8437 144.838C77.8123 144.474 77.5004 143.948 77.5576 143.376C77.6147 142.805 78.1177 142.05 78.7541 141.473C81.981 138.545 88.3987 139.493 93.7698 140.501C97.4228 141.187 102.788 143.018 109.534 145.935C116.281 148.852 124.203 153.002 128.599 155.265C134.965 158.544 137.182 160.699 138.333 162.667C139.528 164.711 138.843 169.311 139.095 174.391C139.185 176.216 139.849 176.452 145.013 176.582C150.176 176.711 159.985 176.711 166.547 176.46C179.928 175.947 183.153 174.303 185.769 173.602C186.353 173.445 186.971 173.16 194.652 172.842C202.332 172.523 217.045 172.146 224.938 171.889C232.832 171.632 233.461 171.506 234.162 171.378C234.863 171.251 235.617 171.125 250.027 171.06C264.437 170.995 292.479 170.995 307.177 170.933C321.874 170.87 322.377 170.744 323.014 170.616C323.65 170.489 324.404 170.363 325.182 170.233" stroke="white" stroke-width="36" stroke-linecap="round"/>
<path d="M335.566 167.185C336.45 166.552 338.729 165.539 341.461 164.142C344.962 162.352 347.874 161.347 350.038 160.33C351.064 159.847 351.947 159.186 352.519 158.175C352.845 157.597 352.713 156.66 352.965 156.269C353.216 155.879 353.719 156.005 354.104 156.321C356.134 157.988 355.377 161.465 356.2 162.162C356.619 162.517 357.149 162.734 357.471 162.612C359.895 161.694 357.797 156.271 357.351 153.985C356.715 150.724 355.518 148.65 353.925 146.615C352.539 144.845 352.21 142.553 350.688 140.328C348.339 136.893 340.786 139.116 338.622 138.165C336.296 137.144 334.179 135.313 332.144 134.099C330.328 133.016 327.956 133.27 326.493 133.019C326.083 132.949 326.664 132.264 327.552 131.88C332.395 129.78 337.585 131.487 340.573 132.061C341.22 132.185 341.404 133.004 341.533 133.579C341.772 134.639 341.285 135.679 340.462 136.692C338.621 138.96 330.551 143.521 324.784 146.158C318.694 148.942 309.959 150.411 305.092 150.862C303.567 151.004 300.154 151.18 296.027 150.866C294.512 150.751 294.289 149.923 294.16 149.222C294.03 148.521 294.03 147.766 294.282 147.063C295.361 144.045 302.619 141.296 306.66 139.625C309.396 138.493 313.064 137.47 315.168 136.327C318.774 134.367 306.247 137.333 300.405 138.537C294.293 139.619 290.494 140.381 282.88 142.408C281.333 142.797 280.83 142.797 280.312 143.178" stroke="white" stroke-width="36" stroke-linecap="round"/>
<path d="M280.312 143.178C275.408 143.178 270.504 143.178 259.929 142.99C249.355 142.801 233.259 142.424 224.024 142.104C214.789 141.783 212.902 141.532 209.542 141.402C206.181 141.273 201.402 141.273 193.973 142.216C186.545 143.159 176.61 145.045 170.612 146.08C160.537 147.496 158.51 147.877 156.42 148.067C155.336 148.132 154.204 148.132 153.038 148.132" stroke="white" stroke-width="36" stroke-linecap="round"/>
<path d="M82.9229 97.3554C83.1744 94.6994 83.685 90.8926 84.6338 88.8521C85.608 86.7569 85.4608 84.5366 85.7161 82.1854C85.9922 79.643 86.6039 76.4124 87.4289 73.8021C88.0737 71.7622 89.0198 69.8048 90.5365 65.9351C92.472 60.9965 94.0956 58.2434 95.4922 55.1968C96.8206 52.2989 98.5387 50.1116 99.8115 47.8272C101.568 44.6747 104.636 41.9874 106.225 40.2021C107.882 38.3406 110.222 37.6586 112.194 36.7078C114.275 35.7045 116.952 34.4881 119.874 32.962C122.602 31.5377 124.702 30.6775 126.674 29.4677C128.553 28.315 131.302 27.4995 134.292 26.2287C137.048 25.0569 140.448 24.3215 144.889 23.1173C149.993 21.7335 152.39 22.0351 155.25 21.5264C160.926 20.5168 169.919 21.6464 172.083 22.2847C174.243 22.9216 177.029 23.9328 179.323 24.8873C182.281 26.118 186.807 28.5055 189.801 29.965C192.311 31.1891 194.436 33.0782 196.471 34.0956C198.616 35.1681 201.288 37.3918 204.218 40.0592C206.074 41.7482 205.746 44.632 206.51 47.3622C207.262 50.048 208.795 51.8721 209.812 54.0956C210.067 54.7948 210.319 55.6751 210.511 56.38C210.704 57.085 210.83 57.588 210.959 58.4873" stroke="white" stroke-width="36" stroke-linecap="round"/>
<path d="M210.959 58.4875C209.702 58.236 204.527 56.4716 193.895 53.1774C187.853 51.305 180.246 49.8831 175.793 48.8524C171.34 47.8216 170.209 47.4443 165.539 47.1242C160.869 46.8042 152.695 46.5527 147.918 46.5488C140.178 46.5427 136.172 48.3208 130.574 50.4128C126.834 51.8106 125.48 54.9207 123.009 57.7768C120.499 60.6768 119.764 62.6715 117.87 67.9016C116.274 72.3082 114.216 80.5508 112.987 85.1388C111.223 91.7224 110.618 93.7889 110.045 98.4092C109.39 103.687 108.454 107.511 108.328 108.212C108.227 108.775 108.195 105.628 110.277 100.825C113.812 92.6713 119.23 86.3239 123.725 82.6486C128.658 78.6145 133.714 76.9117 139.964 75.2674C144.533 74.0651 152.123 72.8687 159.531 72.1561C166.939 71.4435 173.981 71.4435 178.489 71.5693C184.766 71.7444 190.344 73.0859 196.374 74.5453C200.824 75.6224 203.205 76.142 203.843 76.3954C203.962 76.4426 203.224 76.6488 196.046 76.4621C188.869 76.2753 175.162 75.7723 167.221 75.5761C157.522 75.3364 154.699 75.8867 152.484 76.5821C149.806 77.4224 147.208 79.1828 144.359 81.5225C140.563 84.6412 136.801 90.2107 133.373 95.3512C130.761 99.269 129.168 102.416 128.334 104.969C128.018 105.935 128.143 107.004 128.204 107.829C128.265 108.649 131.676 108.029 140.072 105.823C146.262 104.196 156.14 100.724 162.138 98.9141C169.823 96.5949 174.351 96.5935 180.175 96.9078C191.402 97.5138 193.796 99.5124 195.966 100.21C196.294 100.315 195.724 101.029 189.745 102.734C183.767 104.439 172.198 107.332 165.798 109.073C158.447 111.073 156.73 112.716 153.448 115.37C147.465 120.207 142.627 122.757 142.18 123.264C141.616 123.902 144.517 124.156 150.443 124.22C155.362 124.159 164.165 123.908 169.014 123.715C173.863 123.523 174.492 123.397 175.902 122.506" stroke="white" stroke-width="36" stroke-linecap="round"/>
<path d="M214.389 63.4412C214.892 62.6829 216.919 60.9109 219.333 59.5715C221.994 58.0951 224.792 57.0927 227.714 55.8886C229.216 55.2698 236.174 55.0579 246.076 55.1836C252.772 55.2687 255.528 56.323 258.834 57.2775C261.46 58.036 264.041 58.6093 266.205 59.3105C270.642 60.748 277.5 65.4608 280.24 67.8786C282.171 69.5833 284.237 71.0548 287.287 73.6555C289.596 75.6241 290.723 77.7843 291.931 79.8191C292.948 81.5328 293.771 83.5002 294.346 85.5979C294.971 87.8746 295.044 89.9782 295.806 92.0131C296.532 93.9518 297.704 98.3387 298.664 101.856C299.742 104.207 300.508 107.248 301.141 110.235C301.27 111.188 301.27 112.446 301.27 113.741" stroke="white" stroke-width="36" stroke-linecap="round"/>
<path d="M301.27 113.741C294.571 112.099 285.167 110.06 277.485 108.603C273.782 107.9 270.671 107.774 266.188 107.393C257.836 106.683 251.614 107.137 246.131 107.198C241.524 107.25 233.228 107.888 227.507 108.399C218.868 109.17 213.649 110.685 209.843 111.828C207.611 112.498 205.761 112.594 203.923 113.354C203.076 113.705 202.461 114.115 202.955 114.435C204.804 115.634 208.905 115.265 217.803 114.197C224.598 113.38 235.88 110.99 245.232 108.443C254.583 105.895 261.625 103.003 266.007 101.324C274.366 98.1225 277.507 96.3496 280.112 94.3147C280.719 93.8402 281.067 93.3011 281.198 92.6647C281.329 92.0284 281.204 91.2739 280.887 90.6337C280.264 89.3727 276.909 86.8345 270.519 82.7152C262.691 77.6695 254.049 76.7821 248.219 76.2105C237.709 75.1801 230.538 77.9139 227.608 80.4518C225.394 82.3685 224.174 85.9085 223.599 88.9589C223.154 91.317 223.911 93.5374 225.237 95.2464C229.867 101.213 241.269 101.288 246.891 101.484C247.79 101.516 248.417 101.296 247.232 100.665C243.209 98.524 236.273 97.2336 229.742 96.4715C224.845 96.2124 221.514 96.4639 219.295 96.9078C218.333 97.1003 217.704 97.226 217.056 97.7366" stroke="white" stroke-width="36" stroke-linecap="round"/>
<path d="M188.559 75.4497C189.272 74.6353 190.907 72.3886 192.803 70.5384C194.389 68.9916 196.027 67.5694 197.467 65.9789C198.901 64.395 201.455 62.6519 204.223 60.1947C206.73 57.9686 208.426 56.4005 210.574 54.1016C214.713 49.6727 217.437 48.3112 220.358 46.3104C222.742 44.6777 225.631 43.2892 227.891 42.0552C229.686 41.0753 232.491 40.4186 234.96 40.0037C236.977 39.6649 238.748 38.9802 240.749 38.825C244.872 38.5051 251.454 38.3655 257.939 38.4132C263.409 38.4533 266.606 39.8961 269.28 40.7167C271.991 41.5487 275.119 43.3814 277.065 44.1989C278.795 44.9119 280.043 45.7356 280.604 46.401C280.962 46.6607 281.469 46.7622 281.992 47.174" stroke="#D8D5D5" stroke-width="4" stroke-linecap="round"/>
<path d="M74.6357 86.087C74.6357 79.7597 75.0693 73.1827 77.1455 68.8035C79.8033 63.1977 81.1929 57.2035 84.2547 52.2724C90.1983 42.7002 95.2011 40.7643 102.642 35.4061C107.494 31.912 112.718 26.9664 125.599 20.8493C136.861 15.5013 145.149 14.0358 147.114 13.2704C156.484 9.61952 171.641 12.932 175.15 13.3722C179.273 13.8895 184.335 16.8611 189.161 19.0622C195.945 21.9006 203.39 26.7167 207.782 30.6623C208.666 31.546 209.316 32.1964 209.986 32.8666" stroke="#D8D5D5" stroke-width="4" stroke-linecap="round"/>
<path d="M318.398 119.596C327.084 119.596 344.22 120.463 349.259 122.871C354.222 125.242 358.451 128.124 361.97 131.735C366.288 136.166 368.32 140.161 370.189 144.547C371.395 148.933 372.709 152.869 372.824 165.648C372.716 168.427 372.499 169.295 372.276 170.188" stroke="#D8D5D5" stroke-width="4" stroke-linecap="round"/>
<path d="M33.242 122.881C34.7663 122.231 37.8282 119.609 41.1133 117.523C44.9101 115.112 48.7745 113.249 53.9191 111.281C57.6534 109.853 62.9929 108.44 71.7578 107.661C73.5318 107.553 74.3991 107.336 76.0384 107.224C77.6777 107.112 80.0628 107.112 82.5201 107.112" stroke="#D8D5D5" stroke-width="4" stroke-linecap="round"/>
</svg>
