<svg viewBox="0 0 302 160" fill="none" xmlns="http://www.w3.org/2000/svg">
<path d="M13.0683 140.899C12.4587 136.005 11.2211 117.625 21.3252 98.1741C33.8536 74.0562 62.2772 73.8097 87.4728 72.8584C100.477 75.0104 107.866 77.4671 112.779 80.2286C115.255 81.771 117.693 83.5997 123.899 87.3311" stroke="white" stroke-width="9" stroke-linecap="round"/>
<path d="M81.414 74.4009C81.414 60.9348 85.0715 39.9693 93.3746 28.8861C108.099 9.23195 131.768 7.34796 164.722 5.1221C188.146 3.53991 198.341 17.7291 206.995 24.8038C217.309 33.2355 225.458 47.2472 234.084 64.7863C241.369 79.5986 240.272 99.504 239.358 121.661C239.02 129.842 236.615 131.627 231.406 133.483C205.496 142.717 187.406 140.899 174.124 142.737C161.493 144.485 146.731 145.813 135.333 148.279C116.621 150.135 91.9061 150.745 75.7155 151.669C61.9632 151.983 36.9708 151.983 9.37378 148.288" stroke="white" stroke-width="9" stroke-linecap="round"/>
<path d="M15.7179 144.299C16.7367 136.304 19.4843 120.827 23.1631 113.541C26.4353 107.061 32.8517 101.779 35.8591 98.5191C39.0297 95.0828 42.9673 91.4984 46.407 89.0801C49.1954 87.1197 52.0642 85.1388 64.6239 82.4787C77.3465 79.7841 81.7217 82.5559 87.6413 82.9829C94.9306 83.5088 106.862 83.5849 114.068 84.012C117.419 84.2106 120.497 84.614 125.549 86.5769C127.944 87.5074 129.424 88.7251 129.771 89.412C130.227 90.3143 125.508 88.226 119.02 86.0881C109.38 82.9117 100.131 82.5559 94.5669 82.8106C90.1293 83.0137 86.3987 84.7787 80.6823 86.402C64.0144 91.1353 55.9026 93.1655 51.2307 95.7561C47.0173 98.0925 41.4546 102.437 36.9165 107.32C32.8541 111.691 28.6017 122.977 26.5282 129.532C25.9703 131.296 25.4939 133.139 25.9184 134.261C29.014 142.441 39.8802 115.692 44.0864 110.186C47.2003 106.11 52.0539 104.866 60.1089 102.715C64.7704 101.47 68.8687 101.079 77.8241 100.652C83.861 100.364 94.9039 100.564 101.693 100.819C113.704 101.27 118.078 102.787 123.921 104.503C125.13 104.858 125.981 105.02 125.23 104.259C115.601 94.4977 100.965 90.104 99.5115 89.7619C97.8966 89.3817 94.6363 91.2823 89.6763 95.2184C84.6593 99.1998 75.6348 102.942 65.9514 106.968C57.5087 110.478 45.4782 114.776 38.2851 116.682C33.6875 117.901 29.9704 121.989 26.7057 125.079C24.2288 127.423 22.7567 130.736 22.6615 136.131C22.5862 140.4 26.5127 142.745 29.5948 144.294C37.8942 148.465 49.8312 144.989 54.9739 144.729C59.4523 144.503 64.238 143.96 78.0917 143.7C84.6674 143.577 89.4396 142.931 97.7389 142.331C116.277 140.992 124.078 139.164 127.96 138.385C129.719 138.032 131.137 136.587 132.251 135.22C137.183 129.172 120.548 115.692 115.382 112.491C113.107 111.082 108.364 111.37 102.205 111.709C95.9719 112.053 89.8409 114.616 79.4372 117.606C72.1664 119.695 60.5437 121.784 53.7467 123.008C42.2458 125.08 34.2924 124.747 28.7689 125.174C27.5679 125.267 26.0394 125.262 25.6766 125.516C24.9354 126.037 36.8856 128.673 55.9669 131.333C65.1453 132.613 73.5201 131.786 78.9946 131.441C86.8605 130.946 90.8237 130.407 98.9121 130.152C105.474 129.946 117.018 129.388 115.665 128.956C114.312 128.524 99.7096 128.184 91.1684 127.84C77.2453 127.278 70.4741 125.776 64.8734 126.628C59.3249 127.471 56.3863 130.057 50.5567 133.481C46.8002 135.688 44.3669 135.722 43.9321 136.149C42.8247 137.237 48.1178 137.266 56.5458 137.438C63.4442 137.579 75.6708 137.271 85.789 136.674C103.59 135.624 112.948 133.499 116.113 132.558C119.393 131.582 122.215 130.417 123.674 128.364C124.325 127.448 123.944 126.311 122.498 125.192C114.178 121.49 109.383 121.146 106.285 120.719C105.596 120.631 104.917 120.631 104.217 120.631" stroke="white" stroke-width="16" stroke-linecap="round"/>
<path d="M89.2955 72.2653C89.2955 68.854 89.6351 62.3452 93.3114 49.5025C94.6797 44.7228 95.12 41.5788 97.1755 39.2583C100.391 35.6278 105.915 33.3463 112.071 30.1768C126.17 22.918 131.641 19.7936 134.903 18.5022C139.444 16.7045 143.465 15.1629 147.509 14.1261C155.709 12.0241 173.442 14.6278 179.41 15.7495C184.099 16.6306 188.754 18.9189 191.676 20.8047C194.562 22.6668 197.161 24.9184 199.14 27.491C201.767 30.9073 206.752 34.5092 210.969 39.1477C213.761 42.219 216.024 46.3433 218.435 49.3585C220.981 52.5439 222.548 55.2756 224.609 58.4451C226.871 61.9244 227.529 65.2163 228.558 68.7356C229.647 72.4592 229.247 77.3797 229.759 81.8561C230.154 85.3043 230.616 89.0595 230.876 93.2581C231.441 102.384 230.626 115.815 228.741 118.563C226.812 121.373 224.112 123.533 221.113 125.769C218.38 127.805 215.54 128.349 212.366 129.715C209.644 130.886 206.114 131.601 196.099 133.659C190.906 134.726 185.708 135.377 181.412 135.637C180.376 135.7 179.359 135.892 173.061 135.979C166.763 136.067 155.217 136.067 148.845 136.152C139.89 136.271 135.799 136.921 130.821 137.95C129.462 138.231 127.916 138.125 131.204 138.21C134.492 138.295 142.642 138.465 148.623 138.297C154.605 138.13 158.17 137.621 163.828 136.509C177.164 133.889 185.847 131.951 188.407 131.696C196.706 130.87 208.913 129.049 215.859 127.752C220.818 126.826 228.033 127.145 230.866 127.747C231.628 127.909 232.489 127.834 232.672 127.58C234.264 125.36 228.568 122.02 224.974 108.936C223.753 104.491 222.903 102.288 222.731 96.9267C222.324 84.2695 222.564 72.9805 221.367 67.3335C220.778 64.5507 219.831 62.0262 219.224 60.3745C218.617 58.7229 218.278 58.0437 218.103 61.5142C217.543 72.6128 217.758 82.0259 217.501 84.8507C216.994 90.4163 216.384 98.9796 215.957 104.32C215.753 106.876 215.7 108.961 215.188 109.651C214.542 110.52 212.623 99.1134 210.398 83.4383C208.197 67.9374 204.56 63.7035 203.012 60.956C201.317 57.9492 197.717 51.7253 194.355 45.87C193.756 44.8273 193.241 44.1514 193.318 43.8016C193.497 42.9878 202.924 50.4133 215.358 61.3007C219.729 65.1284 219.811 65.9057 220.068 67.1046C222.086 76.5075 220.336 89.3888 219.132 95.3985C218.146 100.318 217.413 108.591 216.731 112.728C215.969 117.357 213.132 119.417 210.228 121.567C206.888 124.04 201.823 122.689 193.647 122.01C187.156 121.471 175.963 119.972 167.303 119.273C152.901 118.109 145.395 118.912 142.485 119.512C137.484 120.542 134.409 122 133.041 122.514C132.375 122.764 131.672 122.689 133.275 122.944C144.938 124.797 152.552 124.572 157.278 125.174C161.921 125.766 166.459 125.092 174.718 122.797C181.517 120.908 193.333 116.597 199.711 114.243C206.088 111.889 206.598 111.38 206.86 110.608C208.16 106.786 204.221 101.789 200.876 97.0656C197.575 92.4028 191.882 91.1382 180.074 90.0191C174.608 89.5011 167.38 91.8019 155.677 96.1549C139.391 102.213 129.439 107.423 127.386 107.935C126.329 108.199 125.333 108.787 124.469 109.219C123.604 109.651 122.925 109.991 124.019 110.335C125.112 110.68 127.998 111.02 136.532 109.751C145.065 108.483 159.158 105.596 169.984 104.109C187.835 101.658 197.496 102.283 201.604 101.768C203.499 101.531 205.034 101.593 204.463 101.084C201.757 98.6708 192.603 98.3365 178.847 98.5037C170.857 98.6008 160.846 99.6897 154.072 100.806C147.298 101.923 144.072 103.281 142.41 104.405C140.748 105.53 140.748 106.379 140.918 107.155C141.248 108.663 142.796 110.16 145.019 111.786C147.398 113.526 155.773 114.961 169.035 116.42C181.376 117.777 187.91 115.836 188 114.467C188.252 110.635 177.846 108.992 164.815 104.102C160.812 102.599 156.277 100.266 163.678 95.8178C171.08 91.3697 190.606 84.7478 200.326 81.1666C210.045 77.5855 209.366 77.2459 207.828 77.071C206.289 76.8961 203.912 76.8961 197.424 77.9148C180.408 80.9711 168.883 83.2402 167.514 83.4975C166.825 83.5849 166.146 83.5849 165.446 83.5849" stroke="white" stroke-width="16" stroke-linecap="round"/>
<path d="M91.8682 65.5765C92.038 63.7037 93.741 56.5311 95.0377 52.0393C96.1751 48.0988 97.1781 44.3265 98.0399 41.3191C98.9917 37.9978 99.9257 34.89 101.382 31.2883C101.969 29.8367 101.984 28.3658 102.668 26.9972C104.142 24.0497 108.148 23.3852 110.98 22.8732C114.179 22.2951 116.895 21.8416 121.008 20.9026C128.358 19.2248 142.93 20.9772 151.003 22.9478C163.726 26.0535 169.356 26.637 174.432 27.9259C183.288 30.1746 194.743 38.111 199.731 42.6646C200.771 43.6135 201.617 44.2956 202.139 44.9851C203.065 46.2076 192.819 40.4315 177.213 30.9076C171.967 27.7058 171.455 29.0244 171.62 31.3321C172.042 37.2507 174.352 44.6146 177.002 51.8875C178.312 55.4836 180.161 58.651 183.753 64.1333C187.344 69.6156 192.778 77.2563 197.275 83.1451C209.639 99.3369 212.607 105.35 213.125 107.508C213.343 108.421 210.575 100.786 205.193 90.0141C198.746 77.1111 192.726 69.8728 190.928 68.162C187.924 65.3041 185.873 61.3059 183.462 57.1871C182.595 55.7053 181.232 54.2672 179.863 52.4689C178.098 50.1506 194.383 69.7957 197.259 76.7933C197.687 77.8339 197.347 78.9337 196.582 79.7132C194.742 81.5912 190.169 81.5269 179.943 80.2535C172.218 79.2915 159.529 76.4331 152.459 74.9513C144.344 73.2504 140.435 72.7799 136.231 72.4404C134.823 72.3267 145.961 67.6655 162.248 63.0348C168.149 61.3569 169.366 61.4603 169.469 62.0546C169.572 62.6489 168.554 63.8374 163.529 67.6758C158.505 71.5142 149.506 77.9664 143.172 82.1392C133.682 88.391 129.264 89.9292 129.084 90.1864C127.823 91.9877 137.785 89.0853 147.79 86.2657C158.817 83.1579 165.605 79.8187 167.151 79.0443C167.546 78.8468 160.872 82.8698 150.939 87.7527C143.92 91.203 138.881 92.8363 135.626 94.5497C133.447 95.6972 140.836 89.3117 154.885 77.7503C168.137 66.8452 170.066 62.5099 172.127 58.2162C173.571 55.2073 176.235 51.1955 178.806 47.9308C179.588 46.9366 180.357 48.4016 180.789 50.1175C182.655 57.5248 180.892 63.148 179.77 67.5343C179.527 68.4872 179.173 69.3326 178.829 70.1095C178.176 71.5802 179.323 66.6622 182.062 55.6255C184.647 45.2145 184.998 39.0011 184.658 37.6299C183.968 34.8428 178.155 37.1025 168.09 38.2113C161.59 38.9275 150.072 41.0129 143.699 42.1449C134.35 43.8057 130.643 44.8204 125.508 46.4464C117.908 48.8528 110.762 48.2472 102.959 48.682C100.452 48.8217 98.5673 49.2814 97.7029 49.3689C91.0551 50.0416 112.768 42.2581 116.041 40.7994C119.13 39.4222 121.186 36.7732 123.586 34.0308C127.119 29.994 131.806 28.2012 135.418 27.4165C139.802 26.4641 143.98 27.6661 150.074 30.1487C152.568 31.1644 153.606 33.3259 154.463 34.6945C154.873 35.3489 154.98 36.0632 153.964 36.8375C151.093 39.0251 146.089 39.5054 141.129 40.0173C135.79 40.5684 128.276 42.9218 120.479 45.6617C111.984 48.6464 101.871 55.2551 96.5967 58.7076C93.6656 60.6264 91.7035 63.8477 90.9266 67.1896C90.6352 68.4429 90.8391 70.3411 91.1787 71.1334C93.8598 77.3894 109.342 63.8683 117.391 61.2982C122.921 59.5328 127.865 59.4022 143.174 57.0971C147.801 56.4005 154.075 55.8005 161.368 55.7156C163.569 55.69 162.719 55.4609 161.348 55.3734C155.173 54.9795 148.682 54.7714 142.827 56.6469C135.92 58.8591 132.207 64.177 128.495 67.6244C123.402 72.3538 116.576 80.6522 114.003 82.4659C113.401 82.8905 112.635 82.8956 112.2 82.5586C111.765 82.2215 111.595 81.3726 111.678 80.5956C111.76 79.8187 112.099 79.1395 113.208 78.7896C119.503 76.8033 125.292 81.0021 128.732 83.9169C129.478 84.5497 129.933 85.1183 130.79 85.3808C134.729 86.5873 139.349 83.0911 145.786 80.5056C149.363 79.0686 152.562 76.2273 156.341 73.3073C161.733 69.1416 164.571 63.0348 166.212 58.9031C169.458 50.7321 170.591 42.0883 170.251 40.802C170.11 40.2666 169.233 40.3646 168.458 40.7042C165.451 42.9321 163.907 44.6455 162.966 46.0142C162.534 46.7036 162.194 47.3828 161.844 48.0826" stroke="white" stroke-width="16" stroke-linecap="round"/>
<path d="M216.899 49.626C219.795 49.626 225.625 49.9656 229.662 50.3103C233.69 50.6544 237.974 52.5382 241.498 53.5673C244.402 54.415 248.264 54.9359 253.659 56.3071C264.168 58.9782 267.302 62.304 270.314 65.1364C273.007 67.6681 274.855 71.5552 276.664 74.8276C278.281 77.754 279.661 82.1853 280.867 85.6327C282.244 88.8897 282.583 92.1518 283.098 94.9662C283.273 96.9317 283.273 99.988 283.273 103.137" stroke="white" stroke-width="16" stroke-linecap="round"/>
<path d="M217.928 53.2277C223.541 50.6705 235.226 47.2283 241.655 45.0904C249.142 42.6007 255.128 42.083 258.563 41.3961C263.621 40.3845 270.904 41.8978 275.877 45.0647C282.999 49.6008 283.952 54.0715 286.692 58.2701C289.254 62.1965 290.126 66.9245 291.842 73.3561C293.047 77.8721 293.903 81.6811 293.908 99.6356C293.91 106.607 292.37 110.67 291.508 114.356C290.729 117.688 289.797 120.785 289.02 124.135C288.844 124.897 288.933 125.591 288.678 126.196C287.179 129.754 269.833 129.872 258.874 132.54C241.317 136.814 234.444 137.6 227.979 138.21C226.855 138.295 226.006 138.465 224.635 138.552C223.263 138.64 221.396 138.64 218.957 138.125" stroke="white" stroke-width="16" stroke-linecap="round"/>
<path d="M271.953 61.4604C277.762 69.3173 282.583 77.2256 283.612 79.294C285.514 83.1154 278.848 61.7074 275.563 55.4687C274.034 52.5662 270.595 50.6656 267.762 48.1778C266.283 46.8786 264.415 46.5391 262.959 46.8786C262.282 47.0366 262.012 47.8974 258.102 53.9354C254.192 59.9734 246.721 71.3496 241.599 80.4362C236.476 89.5228 233.93 95.975 232.023 102.27C230.117 108.566 228.928 114.508 228.231 120.796C226.824 133.487 227.359 141.372 227.786 142.663C227.873 142.926 228.383 141.747 229.152 132.478C229.921 123.209 231.11 105.72 231.637 96.3712C232.165 87.0222 231.995 86.343 231.82 86.1578" stroke="white" stroke-width="16" stroke-linecap="round"/>
<path d="M240.052 70.2073C243.464 69.3532 249.973 68.6637 257.176 70.2845C262.993 71.5932 266.952 77.0403 270.736 82.9496C279.523 96.6698 277.263 101.233 279.406 112.27C279.862 114.617 280.011 115.301 280.098 116.075C280.186 116.849 280.186 117.698 273.394 118.985C266.602 120.271 253.019 121.969 244.917 122.844C236.816 123.718 234.609 123.718 234.066 123.803C233.38 123.91 243.068 123.554 260.664 120.742C271.211 119.056 284.714 115.043 289.843 113.206C292.015 112.429 278.39 113.068 263.397 115.64C257.426 116.665 254.686 116.515 253.965 115.836C250.443 112.515 257.886 109.492 258.146 107.781C258.276 106.925 257.557 106.07 256.955 105.548C256.353 105.025 255.674 104.856 255.493 105.702C254.117 112.171 259.249 118.038 261.984 121.125C263.223 122.524 265.398 122.175 266.785 120.901C274.112 114.172 270.245 99.2576 268.359 92.0928C267.793 89.9418 265.789 88.7355 263.906 87.9637C263.07 87.6211 262.362 87.7013 261.673 88.1258C258.418 90.1298 256.188 94.1946 254.891 97.5519C252.226 104.452 253.08 118.192 255.221 122.679C255.623 123.521 257.011 123.204 258.13 122.61C260.706 121.242 263.021 117.055 265.164 112.008C267.106 107.433 265.784 102.813 264.078 99.1341C260.524 91.4669 254.809 92.1623 253.44 91.905C252.757 91.7766 252.072 91.8175 251.128 92.6665C245.649 97.593 244.354 109.754 244.079 118.043C244.033 119.403 247.585 113.289 250.407 104.326C254.674 90.7757 254.974 80.6831 254.719 78.1156C254.487 75.7718 252.751 74.4985 251.382 73.8991C250.707 73.6035 250.014 73.4694 249.409 73.8913C244.449 77.3532 246.741 88.1952 247.338 91.8047C247.485 92.692 247.935 93.5155 248.534 94.0377C249.134 94.56 249.983 94.7298 250.845 94.0531C253.04 92.3299 253.43 88.7458 253.26 85.5814C252.848 77.8991 247.616 70.5778 243.5 67.1304C238.859 64.8922 236.461 64.3777 234.578 63.9506C233.713 63.6934 233.034 63.3538 231.82 63.0039" stroke="white" stroke-width="16" stroke-linecap="round"/>
<path d="M140.234 150.474C141.253 150.474 148.739 148.606 166.588 145.776C177.383 144.065 192.078 144.814 200.789 144.644C215.198 144.363 218.597 143.445 226.471 143.186C231.486 143.02 234.547 142.416 238.493 142.156C243.541 141.824 248.954 140.183 257.513 137.963C262.486 136.673 266.623 135.388 269.455 134.526C272.632 133.839 278.086 133.494 282.403 132.64C283.263 132.465 284.281 132.465 285.331 132.465" stroke="white" stroke-width="16" stroke-linecap="round"/>
<path d="M148.466 148.93C148.127 148.93 139.462 148.93 125.75 149.1C118.811 149.186 114.873 149.959 111.189 150.044C109.018 150.094 101.541 150.474 90.9112 150.559C81.4396 150.634 71.4723 151.328 60.698 151.588C58.0939 151.651 56.7362 151.842 50.0087 151.93C43.2813 152.017 31.2259 152.017 24.6759 151.932C16.0678 151.333 13.8399 150.818 12.1291 150.561C11.2673 150.474 10.4183 150.474 8 149.959" stroke="white" stroke-width="16" stroke-linecap="round"/>
<path d="M75.89 88.0875C78.5429 79.2416 80.3263 70.378 82.2383 65.1832C83.9876 60.4306 87.7082 56.466 91.6963 52.4645C95.9913 48.1552 102.756 40.8149 108.11 35.8996C112.452 31.914 119.33 30.4342 125.7 27.9099C132.018 25.4065 139.435 24.809 145.663 24.0593C153.954 23.0612 166.886 22.4312 175.39 23.314C181.251 23.9223 187.648 26.2641 195.935 29.3695C202.2 31.7174 208.356 38.3661 213.249 42.0881C217.414 45.2559 221.665 51.0893 224.939 56.1288C226.119 58.4889 227.015 60.8667 227.605 63.2268C227.902 64.4157 228.195 65.5869 228.497 68.568" stroke="#BDB9B9" stroke-width="4" stroke-linecap="round"/>
<path d="M223.173 55.2594C224.344 54.0793 230.821 51.7281 238.514 50.0867C253.291 46.9334 258.344 51.4087 263.964 53.3296C269.947 55.3743 275.201 59.0923 279.056 62.4905C283.857 66.7217 287.924 72.0993 289.712 76.5356C290.897 81.2735 291.491 86.5792 292.228 92.9408C292.378 94.8661 292.378 97.2084 292.378 99.6217" stroke="#BDB9B9" stroke-width="4" stroke-linecap="round"/>
<path d="M78.5518 81.8767C75.6061 81.584 65.6158 80.9896 58.0165 82.7552C52.3095 84.0811 47.8176 86.5969 43.0797 88.0831C38.2537 89.5968 33.036 93.9788 28.7329 99.3023C23.3595 105.95 23.2585 111.724 21.036 116.608C20.2952 119.407 19.7007 122.087 19.257 127.082C19.1062 130.906 19.1062 137.347 19.1062 143.984" stroke="#BDB9B9" stroke-width="4" stroke-linecap="round"/>
</svg>
