<svg viewBox="0 0 712 412" fill="none" xmlns="http://www.w3.org/2000/svg">
<rect width="276.651" height="34.3197" rx="5" transform="matrix(-0.997543 0.0700592 0.0694551 0.997585 561.225 3.72607)" fill="#85868A"/>
<rect width="310.589" height="36.4394" rx="5" transform="matrix(-0.997543 0.0700592 0.0694551 0.997585 693.354 228.62)" fill="#85868A"/>
<rect width="194.484" height="36.439" rx="5" transform="matrix(-0.996162 0.0875329 0.0867802 0.996228 708.223 225.763)" fill="#85868A"/>
<rect width="280.968" height="42.4637" rx="5" transform="matrix(-0.542973 -0.839751 -0.837586 0.546306 712 242.337)" fill="#85868A"/>
<rect width="191.111" height="64.1994" rx="5" transform="matrix(-0.542973 -0.839751 -0.837586 0.546306 667.489 229.339)" fill="#85868A"/>
<rect width="191.111" height="64.1994" rx="5" transform="matrix(-0.542973 -0.839751 -0.837586 0.546306 632.255 231.706)" fill="#85868A"/>
<rect width="281.62" height="216.574" rx="5" transform="matrix(-1 0 0 1 570.982 33.3492)" fill="#85868A"/>
<rect width="309.356" height="188.468" rx="5" transform="matrix(-0.586111 -0.810231 -0.807798 0.589459 402.527 293.691)" fill="#67686A"/>
<rect width="282.798" height="123.08" rx="5" transform="matrix(-1 0 0 1 288.184 20.3311)" fill="#85868A"/>
<rect width="309.087" height="77.0613" rx="5" transform="matrix(-0.571902 -0.820322 -0.817977 0.575251 464.933 273.882)" fill="#85868A"/>
<rect width="308.578" height="68.7085" rx="5" transform="matrix(-0.46788 -0.883792 -0.882098 0.471065 208.651 375.648)" fill="#85868A"/>
<rect width="316.969" height="134.915" rx="5" transform="matrix(-1 0 0 1 464.933 273.592)" fill="#3B464C"/>
<path d="M280.027 136.973C280.611 134.041 281.203 131.357 281.646 116.385C282.053 102.592 281.796 76.1971 281.942 62.0162C282.38 46.6624 283.556 43.6947 284.883 40.0028C285.335 38.0703 285.335 36.0178 285.335 33.9031" stroke="black" stroke-width="3" stroke-linecap="round"/>
<path d="M277.373 146.746C277.081 146.746 276.789 146.746 264.377 146.746C251.965 146.746 227.442 146.746 214.225 146.6C197.454 146.414 191.595 145.271 184.951 143.494C180.696 143.192 177.121 142.899 163.528 142.455C151.103 142.304 127.456 142.304 103.092 142.304" stroke="black" stroke-width="3" stroke-linecap="round"/>
<path d="M365.84 266.698C364.38 264.344 359.665 258.435 356.856 253.535C354.148 248.81 349.633 244.805 346.39 240.944C343.149 237.084 339.618 230.606 335.92 224.071C332.938 218.8 331.355 213.706 328.547 208.077C325.673 202.319 321.925 197.713 316.028 191.791C309.07 184.802 306.001 178.467 301.714 174.158C300.675 171.945 299.498 169.857 298.025 167.938C297.428 166.898 297.136 165.725 295.066 164.517" stroke="black" stroke-width="3" stroke-linecap="round"/>
<path d="M11.9706 25.0178C13.1384 27.9677 16.0932 32.6947 18.8888 39.2076C21.9503 46.34 25.5238 52.2424 28.0319 56.9872C30.7592 62.1467 40.2094 71.1503 46.3137 78.4585C50.1036 82.9959 50.8786 88.0857 52.8071 92.675C55.5007 99.0847 60.9108 104.666 64.2991 109.41C68.2738 114.976 72.1107 120.659 76.0962 126.142C79.2538 130.485 81.2583 135.764 83.7663 140.509C86.4936 145.669 90.105 149.981 92.3211 154.726C94.4425 159.268 96.2977 164.197 98.8058 168.795C101.232 173.243 104.844 177.525 108.241 181.533C111.624 185.523 113.69 191.44 117.379 199.139C121.022 206.74 123.723 211.876 126.231 216.923C128.685 221.862 131.384 226.981 134.047 232.765C136.32 237.703 139.346 243.561 143.477 251.86C146.14 257.209 149.077 261.936 152.328 267.418C153.218 269.932 153.518 272.314 153.664 274.677C153.81 275.868 154.102 277.041 154.403 279.138" stroke="black" stroke-width="3" stroke-linecap="round"/>
<path d="M463.375 277.361C461.031 276.774 450.477 274.411 442.311 273.66C439.78 273.427 436.269 272.918 432.146 272.771C429.161 272.665 411.056 272.029 384.67 272.176C370.483 272.255 364.318 273.211 337.712 273.655C313.735 274.056 268.482 273.806 244.587 273.66C220.692 273.513 219.524 273.22 211.624 273.069C172.627 273.211 167.328 274.393 161.874 275.432C159.959 275.583 157.331 275.583 151.97 276.472" stroke="black" stroke-width="3" stroke-linecap="round"/>
<path d="M148.432 287.134C148.432 287.721 148.432 308.255 148.286 339.495C148.229 351.685 147.547 366.96 147.693 388.871C147.839 396.708 148.131 397.881 148.281 399.658C148.432 401.435 148.432 403.781 148.432 406.197" stroke="black" stroke-width="3" stroke-linecap="round"/>
<path d="M465.145 288.023C465.145 297.708 464.853 317.033 464.41 330.397C464.017 342.289 464.26 364.579 464.114 376.792C463.676 390.471 463.083 393.154 462.495 395.664C462.199 397.001 461.907 398.467 460.721 402.643" stroke="black" stroke-width="3" stroke-linecap="round"/>
<path d="M446.566 406.197C444.222 406.197 437.755 406.784 406.73 407.233C392.636 407.436 379.65 408.561 362.956 409.6C349.825 410.418 324.694 409.752 311.03 409.605C291.47 409.395 283.22 408.277 277.762 407.828C275.229 407.62 261.21 407.086 241.163 406.939C233.96 406.887 232.794 406.5 221.39 406.348C209.987 406.197 188.383 406.197 177.4 405.611C166.417 405.025 166.709 403.852 167.01 402.643" stroke="black" stroke-width="3" stroke-linecap="round"/>
<path d="M289.095 22.3522C288.803 22.3522 288.511 22.3522 263.691 22.3522C238.872 22.3522 189.533 22.3522 163.387 22.2056C135.778 22.0508 132.525 21.4637 129.287 21.3171C113.168 20.5752 86.814 20.8684 74.0924 21.3126C62.8305 21.4637 41.8107 21.4637 20.1539 21.4637" stroke="black" stroke-width="3" stroke-linecap="round"/>
<path d="M6.88373 26.7948C6.88373 29.7359 6.29981 36.8352 4.53047 43.7924C1.85756 54.3025 3.34495 61.1099 2.61074 75.9972C1.12943 106.033 2.75228 127.483 3.19457 129.847C3.34495 132.21 3.92887 134.591 4.95956 136.955C5.40632 138.145 5.69824 139.318 6.88373 143.192" stroke="black" stroke-width="3" stroke-linecap="round"/>
<path d="M10.6365 149.868C11.9118 152.861 13.6229 157.141 15.4333 162.718C17.3518 168.628 20.2365 171.095 21.845 174.42C23.9321 178.733 26.222 181.818 29.4231 185.79C31.8377 188.785 33.4764 194.459 35.5175 198.772C37.1874 202.3 39.039 206.702 40.2182 210.357C42.1701 216.409 47.1522 224.299 49.6131 228.27C51.6695 231.589 54.2015 234.597 57.4058 239.531C60.2194 243.863 63.3913 248.114 66.0605 252.725C68.3736 256.722 69.582 261.411 70.979 265.601C72.3337 269.665 74.7088 274.709 78.3392 280.827C81.2121 285.668 84.5394 289.307 87.5258 292.532C90.1539 295.369 93.2934 297.674 95.3281 301.005C97.241 304.137 98.4331 307.754 99.6026 311.516C100.894 315.669 102.483 319.983 104.832 323.533C106.894 326.649 109.315 330.281 112.304 336.39C116.364 344.684 118.504 348.303 120.216 352.172C122.167 356.584 124.054 360.108 125.877 363.545C127.549 366.697 128.117 370.406 129.934 373.843C131.801 377.375 133.667 380.705 136.766 383.714C139.23 387.579 140.723 390.153 141.896 391.865C142.434 392.728 142.857 393.577 143.293 394.453" stroke="black" stroke-width="3" stroke-linecap="round"/>
<path d="M291.2 25.2361C293.654 28.9278 299.2 40.0589 302.301 46.7589C305.154 52.921 309.699 58.3781 313.56 63.9622C317.487 69.6423 324.198 74.1866 328.99 78.2271C333.936 82.3978 336.253 89.9951 339.026 95.7327C341.694 101.252 344.271 107.663 350.428 114.48C357.185 121.96 363.085 127.192 367.108 131.846C373.169 138.857 376.047 149.491 380.223 156.177C383.831 161.954 388.399 166.862 392.107 171.99C395.64 176.876 399.824 182.67 402.912 187.18C406.433 192.323 411.545 198.795 414.638 203.914C418.263 209.915 421.73 213.99 424.67 218.946C428.316 225.094 430.063 230.412 433.155 235.531C437.194 242.217 444.858 248.378 450.432 254.436C455.376 262.038 459.08 268.222 462.32 274.429C463.098 275.987 463.709 277.521 464.339 280.032" stroke="black" stroke-width="3" stroke-linecap="round"/>
<path d="M296.902 164.86C295.704 162.75 292.29 158.712 290.371 156.281C288.475 154.274 286.746 152.537 285.792 151.679C285.336 151.321 284.938 151.121 284.527 150.915" stroke="black" stroke-width="3" stroke-linecap="round"/>
<path d="M296.792 25.1263C300.267 24.4325 307.216 22.3301 314.553 21.1002C325.25 19.307 335.789 19.8703 343.869 18.8244C349.916 18.0417 356.764 16.7167 369.276 15.8442C404.148 13.4126 418.096 14.6144 431.917 13.7419C459.65 11.9911 465.969 11.8182 476.247 11.2873C484.553 10.8583 490.733 9.35837 498.76 6.74091C506.125 4.33968 512.021 4.4598 531.682 3.92895C536.104 3.75551 537.831 3.40862 541.829 3.22992C545.827 3.05122 552.044 3.05122 561.589 2" stroke="black" stroke-width="3" stroke-linecap="round"/>
<path d="M567.869 12.5121C568.56 14.9509 571.344 20.5432 574.139 26.1566C577.279 32.4638 582.145 39.4647 585.824 44.9047C589.181 49.8681 593.658 54.5389 598.206 59.6214C602.423 64.3344 606.574 70.6432 611.461 76.614C615.433 81.4654 617.731 87.8197 621.933 93.4332C625.79 98.5853 628.553 105.69 631.007 111.65C634.113 119.191 636.591 125.305 639.898 130.404C643.525 135.995 648.083 141.788 652.631 146.345C658.728 152.455 663.427 166.26 666.766 174.722C670.021 182.972 676.677 192.897 682.109 201.354C685.932 207.305 690.304 212.218 694.323 217.648C697.641 223.792 701.472 227.639 704.606 231.134C706.014 232.895 707.05 234.63 709.165 237.468" stroke="black" stroke-width="3" stroke-linecap="round"/>
<path d="M709.074 240.656C709.074 241.229 709.074 244.387 708.504 249.44C707.659 256.927 697.585 258.285 692.536 259.882C686.966 261.643 681.173 262.623 669.823 264.653C657.156 266.919 651.804 266.388 645.321 266.827C642.279 267.032 623.16 267.551 595.812 267.694C582.378 267.764 576.653 268.991 571.177 270.006C563.511 271.427 558.22 271.594 551.75 272.609C541.338 274.242 536.625 273.624 530.151 275.064C522.947 276.666 515.341 276.227 507.843 276.947C494.345 278.243 483.985 277.962 476.729 278.825C475.571 279.116 474.431 279.402 472.703 279.549C470.976 279.697 468.695 279.697 467.21 279.697" stroke="black" stroke-width="3" stroke-linecap="round"/>
<path d="M553.548 14.3622C555.949 16.1699 558.749 18.1832 561.165 20.4988C564.675 23.8613 565.382 31.4722 568.482 38.419C570.535 43.0176 574.002 45.5835 576.413 49.9154C578.66 53.9514 582.021 59.465 585.94 68.2407C589.23 75.6083 594.06 82.6572 598.78 89.9094C601.421 93.968 604.691 98.9692 607.415 103.525C610.302 108.353 612.733 111.279 615.34 115.816C617.631 119.805 622.533 129.163 626.876 135.871C629.279 139.582 631.394 142.319 634.699 145.447C637.613 148.206 640.616 151.98 643.133 155.423C645.551 158.733 647.443 163.068 648.854 166.608C651.117 172.282 656.268 180.807 658.483 184.142C660.573 187.287 663.094 190.082 666.005 193.41C668.966 196.796 671.317 201.956 674.032 205.804C677.252 210.369 679.949 214.459 686.357 224.522C689.145 228.9 692.386 231.4 695.6 235.224C697.202 237.833 698.616 239.87 699.718 241.376C700.224 242.282 700.621 243.48 702.234 246.527" stroke="black" stroke-width="3" stroke-linecap="round"/>
<path d="M692.603 247.736C689.003 247.736 684.199 248.534 680.076 249.547C676.801 250.351 672.762 250.952 667.54 252.467C663.614 253.605 660.313 253.576 656.8 254.483C652.055 255.709 648.478 256.2 634.699 257.204C616.032 258.564 602.325 257.609 599.219 257.911C595.498 258.273 591.098 259.018 586.072 259.323C581.627 259.593 573.28 261.025 567.306 261.841C557.861 263.131 541.34 263.649 535.609 264.16C531.046 264.567 525.496 265.269 519.256 265.971C513.171 266.655 508.015 267.482 503.801 267.787C500.125 268.054 496.577 268.897 492.764 269.498C488.944 270.305 485.742 270.711 481.236 271.212C479.138 271.315 475.761 271.315 472.282 271.315" stroke="black" stroke-width="3" stroke-linecap="round"/>
<path d="M541.508 14.3622C538.522 14.7612 530.107 16.7685 524.87 18.0865C522.991 18.5592 517.676 20.1965 509.859 21.8078C496.081 24.6479 479.325 22.4275 475.806 22.1222C474.898 22.0434 473.907 21.8229 454.225 21.7201C434.544 21.6173 396.205 21.6173 376.057 21.8168C353.47 22.0405 350.298 23.8301 346.984 24.6373C343.243 25.5486 339.667 26.8531 335.749 28.1621C331.891 29.4507 326.629 30.4807 322.707 31.3876C317.985 32.6996 313.987 33.1047 309.864 34.7098C308.955 35.1179 308.16 35.3174 305.536 35.523" stroke="black" stroke-width="3" stroke-linecap="round"/>
<ellipse cx="17.6749" cy="17.7519" rx="17.6749" ry="17.7519" transform="matrix(-1 0 0 1 202.167 287.794)" fill="#545D64"/>
<path d="M180.056 289.704C180.672 289.627 186.052 289.471 190.886 290.591C196.771 291.955 197.17 294.909 198.99 297.861C200.775 300.756 200.972 302.691 201.551 304.785C203.045 310.192 201.051 311.948 200.664 313.428C200.09 315.624 198.885 316.929 197.723 318.37C196.6 319.762 194.4 320.664 192.419 321.678C190.717 322.549 189.05 323.39 187.306 323.781C185.545 324.176 180.177 324.716 176.963 324.213C175.194 323.936 174.33 322.387 172.78 320.406C171.662 318.978 170.691 317.41 169.602 316.123C168.688 315.043 167.976 313.596 167.508 312.35C167.056 311.148 167.042 307.551 167.466 304.34C167.66 303.023 168.046 301.461 168.587 300.023C168.822 299.433 168.976 299.125 169.134 298.574" stroke="black" stroke-width="3" stroke-linecap="round"/>
<path d="M172.155 293.205C172.308 292.974 172.462 292.743 172.656 292.509C172.85 292.274 173.08 292.043 173.549 291.805" stroke="black" stroke-width="3" stroke-linecap="round"/>
<ellipse cx="17.6749" cy="17.7519" rx="17.6749" ry="17.7519" transform="matrix(-1 0 0 1 202.167 357.618)" fill="#545D64"/>
<path d="M180.056 359.529C180.672 359.451 186.052 359.295 190.886 360.415C196.771 361.779 197.17 364.734 198.99 367.685C200.775 370.58 200.972 372.516 201.551 374.609C203.045 380.016 201.051 381.773 200.664 383.253C200.09 385.448 198.885 386.754 197.723 388.194C196.6 389.587 194.4 390.488 192.419 391.503C190.717 392.373 189.05 393.215 187.306 393.606C185.545 394 180.177 394.54 176.963 394.037C175.194 393.761 174.33 392.211 172.78 390.23C171.662 388.803 170.691 387.235 169.602 385.947C168.688 384.867 167.976 383.421 167.508 382.174C167.056 380.972 167.042 377.375 167.466 374.165C167.66 372.847 168.046 371.285 168.587 369.848C168.822 369.257 168.976 368.949 169.134 368.398" stroke="black" stroke-width="3" stroke-linecap="round"/>
<path d="M172.155 363.03C172.308 362.799 172.462 362.567 172.656 362.333C172.85 362.098 173.08 361.867 173.549 361.629" stroke="black" stroke-width="3" stroke-linecap="round"/>
<ellipse cx="17.6749" cy="17.7519" rx="17.6749" ry="17.7519" transform="matrix(-1 0 0 1 454.328 280.693)" fill="#545D64"/>
<path d="M432.218 282.603C432.834 282.526 438.214 282.37 443.048 283.49C448.932 284.854 449.332 287.809 451.151 290.76C452.936 293.655 453.134 295.591 453.712 297.684C455.207 303.091 453.213 304.848 452.826 306.327C452.252 308.523 451.047 309.829 449.885 311.269C448.761 312.662 446.561 313.563 444.58 314.577C442.879 315.448 441.212 316.29 439.467 316.681C437.706 317.075 432.339 317.615 429.125 317.112C427.356 316.836 426.491 315.286 424.941 313.305C423.824 311.878 422.852 310.31 421.763 309.022C420.85 307.942 420.138 306.496 419.669 305.249C419.218 304.047 419.203 300.45 419.628 297.24C419.822 295.922 420.207 294.36 420.749 292.923C420.984 292.332 421.137 292.024 421.295 291.473" stroke="black" stroke-width="3" stroke-linecap="round"/>
<path d="M424.316 286.105C424.47 285.873 424.623 285.642 424.817 285.408C425.011 285.173 425.241 284.942 425.711 284.704" stroke="black" stroke-width="3" stroke-linecap="round"/>
<ellipse cx="17.6749" cy="17.7519" rx="17.6749" ry="17.7519" transform="matrix(-1 0 0 1 454.328 358.801)" fill="#545D64"/>
<path d="M432.218 360.712C432.834 360.635 438.214 360.479 443.048 361.599C448.932 362.963 449.332 365.917 451.151 368.869C452.936 371.764 453.134 373.699 453.712 375.793C455.207 381.2 453.213 382.956 452.826 384.436C452.252 386.632 451.047 387.937 449.885 389.377C448.761 390.77 446.561 391.672 444.58 392.686C442.879 393.557 441.212 394.398 439.467 394.789C437.706 395.184 432.339 395.724 429.125 395.221C427.356 394.944 426.491 393.394 424.941 391.414C423.824 389.986 422.852 388.418 421.763 387.131C420.85 386.05 420.138 384.604 419.669 383.358C419.218 382.156 419.203 378.559 419.628 375.348C419.822 374.03 420.207 372.469 420.749 371.031C420.984 370.441 421.137 370.133 421.295 369.582" stroke="black" stroke-width="3" stroke-linecap="round"/>
<path d="M424.316 364.213C424.47 363.982 424.623 363.751 424.817 363.516C425.011 363.282 425.241 363.051 425.711 362.813" stroke="black" stroke-width="3" stroke-linecap="round"/>
</svg>
