<svg viewBox="0 0 73 66" fill="none" xmlns="http://www.w3.org/2000/svg">
<rect x="19.4994" y="3.88656" width="58.0715" height="37.2249" rx="4.5" transform="rotate(30 19.4994 3.88656)" fill="#DED29A" stroke="black"/>
<rect x="15.8001" y="10.2938" width="58.0715" height="21.1951" transform="rotate(30 15.8001 10.2938)" fill="#865252" stroke="black"/>
<path d="M39.7125 26.9471C43.4115 29.0828 44.6316 33.9679 42.376 37.8747C40.1203 41.7813 35.2801 43.1666 31.5811 41.031C27.8825 38.8953 26.6627 34.0114 28.9179 30.1047C31.1735 26.198 36.0135 24.8118 39.7125 26.9471Z" fill="white" stroke="black"/>
<path d="M38.4798 29.0832C41.0486 30.5663 41.9045 33.9656 40.3301 36.6928C38.7555 39.4201 35.3832 40.3793 32.8143 38.8961C30.2454 37.413 29.3899 34.0129 30.9645 31.2856C32.5392 28.5585 35.911 27.6 38.4798 29.0832Z" fill="#BDB9B9" stroke="black"/>
<rect x="27.3048" y="3.54431" width="7.08858" height="3.69918" transform="rotate(30 27.3048 3.54431)" fill="#DED29A"/>
<rect x="56.3465" y="28.8544" width="4.72572" height="2.46612" transform="rotate(30 56.3465 28.8544)" fill="#FFFCFC"/>
<rect x="56.3465" y="28.8544" width="4.72572" height="2.46612" transform="rotate(30 56.3465 28.8544)" stroke="black"/>
<rect x="60.4389" y="31.2172" width="2.36286" height="2.46612" transform="rotate(30 60.4389 31.2172)" fill="#121111"/>
</svg>
