<svg viewBox="0 0 1486 1090" fill="none" xmlns="http://www.w3.org/2000/svg">
<path d="M1201.51 14.9194C1198.92 16.9813 1195.79 25.2911 1190.87 36.2095C1181.03 58.0005 1174.99 65.9031 1170.03 75.2829C1165.61 83.6327 1157.81 90.8952 1150 100.009C1140.25 111.382 1136.97 123.166 1131.5 132.038C1126.55 140.081 1122.91 149.72 1118.22 158.592C1113.02 168.454 1106.26 175.774 1097.67 184.881C1090.67 192.303 1085.95 203.859 1079.44 214.035C1071.82 225.94 1067.21 233.568 1062.77 242.675C1058.79 250.827 1055.74 259.591 1046.13 278.046C1040.4 289.038 1031.81 298.641 1024.77 309.06C1019.7 316.555 1014.1 323.633 1007.33 333.263C996.459 348.724 991.703 361.121 985.72 369.72C978.721 379.78 971.928 389.737 963.079 403.545C955.759 414.967 951.091 423.601 945.366 430.903C938.581 439.558 934.44 448.593 929.48 456.934C924.159 465.884 918.82 474.116 915.415 483.48C910.479 494.938 903.715 508.449 898.779 518.852C896.421 523.069 894.359 525.131 892.234 528.817" stroke="#41464A" stroke-width="13" stroke-linecap="round"/>
<path d="M969.094 560.276C970.571 558.198 977.118 551.07 983.4 545.222C990.661 538.463 993.56 531.941 997.733 525.377C1002.36 518.101 1007.28 512.83 1012.21 507.609C1017.43 502.075 1024.28 495.242 1030.86 489.398C1036.64 484.275 1041.01 478.513 1045.64 473.131C1051.24 466.641 1056.23 461.498 1061.46 455.081C1072.14 441.957 1078.03 439.396 1082.66 432.688C1086.76 426.754 1093.84 421.789 1098.19 417.155C1100.42 415.216 1104.59 411.347 1109.66 406.574C1111.77 404.756 1112.95 404.165 1115.07 401.765" stroke="#41464A" stroke-width="13" stroke-linecap="round"/>
<path d="M891.182 536.096C894.155 537.878 898.919 540.269 904.592 543.099C910.06 545.827 915.63 547.129 921.607 550.859C926.941 554.187 932.949 555.189 939.362 557.28C950.933 561.054 958.92 564.449 965.493 564.31C969.797 564.219 947.726 557.016 937.767 554.907C933.007 553.899 928.221 553.416 921.952 550.734C916.993 548.612 912.101 547.147 907.319 546.099C902.241 545.356 898.059 543.269 895.825 541.483C894.773 540.583 893.886 539.696 892.973 536.992" stroke="#41464A" stroke-width="13" stroke-linecap="round"/>
<path d="M287.572 19.0386C289.552 23.0197 298.855 32.3221 305.226 43.0049C311.266 53.1318 319.54 65.6508 325.562 77.0138C331.032 87.3361 342.186 100.3 353.219 119.665C360.122 131.782 365.552 143.671 373.564 156.695C380.507 167.98 387.558 177.04 393.58 189.033C399.613 201.05 406.243 210.369 409.924 221.712C414.592 236.097 422.247 246.378 427.919 257.061C434.598 269.643 443.573 285.028 452.585 299.062C460.571 311.497 468.259 325.719 477.251 343.724C483.887 357.01 491.585 371.051 499.597 386.415C505.855 398.415 513.591 408.421 519.943 419.103C526.664 430.408 535.597 440.429 541.618 451.442C547.924 462.974 555.602 472.437 560.623 483.12C566.389 495.387 575.607 503.125 581.959 512.798C587.65 522.471 588.971 531.813 591.631 537.134C592.972 539.815 594.292 542.456 593.652 541.175" stroke="#41464A" stroke-width="15" stroke-linecap="round"/>
<path d="M518.771 573.871C531.291 568.422 541.609 561.969 546.767 558.428C552.513 554.485 559.635 551.342 565.123 549.724C570.405 548.166 576.696 543.942 582.512 541.034C585.082 539.749 587.671 538.136 590.081 536.209C591.216 535.238 592.173 534.281 593.158 533.296" stroke="#41464A" stroke-width="15" stroke-linecap="round"/>
<path d="M482.455 619.782C484.93 616.898 489.891 609.462 496.108 603.637C502.319 597.817 508.119 591.209 515.17 584.581C524.151 576.139 530.501 569.25 537.961 562.405C547.549 553.609 556.19 549.356 570.477 542.299C578.095 538.536 585.211 538.14 594.947 534.416C602.383 531.572 610.079 530.68 622.084 527.988C630.801 526.033 640.717 525.283 649.048 524.046C656.53 522.935 664.789 521.155 674.507 519.277C696.325 515.062 704.156 517.002 721.744 516.374C743.856 515.585 775.453 516.156 784.766 517.611C800.159 520.016 811.885 519.066 821.049 520.303C830.984 521.645 840.931 522.374 849.026 525.066C856.141 527.432 863.735 528.591 870.375 530.251C877.122 531.937 883.63 534.808 890.27 536.468C897.52 538.28 905.588 542.268 913.683 545.165C922.416 548.291 932.123 553.857 938.968 556.773C947.056 561.33 953.684 566.291 961.343 573.95C963.631 576.238 966.093 578.7 968.629 581.237" stroke="#8F7566" stroke-width="15" stroke-linecap="round"/>
<path d="M968.629 581.237C970.283 584.122 972.758 590.736 976.283 597.171C980.126 604.186 986.012 612.695 994.088 621.822C1000.45 629.01 1007.55 636.743 1015.64 642.35C1026.54 649.913 1038.19 652.509 1050.86 655.624C1062.56 658.502 1074.24 661.213 1087.13 664.123C1095 665.9 1102.47 669.096 1109.73 671.167C1119.64 673.994 1126.1 676.955 1132.94 679.46C1140.88 682.368 1150.94 686.902 1160.08 692.709C1167.31 697.294 1172.52 701.823 1182.87 708.04C1191.94 713.492 1198.21 722.538 1206.92 731.242C1213.57 737.894 1219.35 746.138 1225.58 755.078C1230.25 761.781 1233.45 768.967 1238.02 776.216C1241.78 782.182 1241.33 789.682 1244.24 798.374C1252.1 819.499 1257.92 832.804 1259.78 836.111C1260.82 837.777 1262.05 839.419 1264.56 844.84" stroke="#8F7566" stroke-width="15" stroke-linecap="round"/>
<path d="M204.864 856.031C205.684 851.082 213.095 837.056 219.151 825.188C224.426 814.848 225.579 799.704 226.617 792.231C228.037 782.012 234.681 775.234 242.757 764.889C248.926 756.986 254.153 748.302 264.715 734.643C270.762 726.824 276.957 719.703 281.937 711.826C286.863 704.034 296.404 696.103 304.517 690.464C312.195 686.516 317.169 684.863 320.476 683.209C322.142 682.376 323.784 681.555 322.988 676.979" stroke="#8F7566" stroke-width="15" stroke-linecap="round"/>
<path d="M322.988 676.979C337.014 676.569 354.446 674.915 379.252 674.082C397.307 673.476 408.734 668.3 418.693 664.974C431.524 660.689 448.896 654.623 459.527 651.085C466.511 648.761 472.993 644.253 478.191 639.49C483.773 632.241 490.426 623.139 493.945 617.109C494.579 615.654 494.579 614.013 494.579 612.322" stroke="#8F7566" stroke-width="15" stroke-linecap="round"/>
<path d="M486.494 24.2188C486.494 26.8246 487.143 32.7148 490.088 39.7604C492.673 45.9448 494.676 51.3982 498.771 59.9139C501.421 65.4233 503.86 70.0817 508.762 81.3704C512.338 89.6056 516.624 96.6122 519.264 104.494C522.692 114.727 526.142 123.811 530.887 134.308C536.795 147.379 538.611 152.682 541.06 157.933C543.466 163.093 544.177 169.399 546.306 177.261C548.355 184.83 550.411 192.665 552.368 198.737C555.057 207.08 558.258 213.649 561.056 222.165C562.86 228.085 565.151 232.018 566.789 234.796C567.452 236.276 567.777 237.898 567.128 240.553" stroke="#8F7566" stroke-width="15" stroke-linecap="round"/>
<path d="M567.128 240.553C568.101 245.116 571.376 253.632 574.655 261.012C577.92 268.358 579.577 276.583 583.338 285.098C585.881 290.856 587.444 297.548 590.713 304.932C594.528 313.549 596.294 318.866 602.666 333.257C606.404 341.7 608.743 348.366 610.39 355.412C611.986 362.239 614.977 368.682 618.738 378.348C621.042 384.268 625.106 398.753 632.171 415.701C636.691 426.542 638.577 436.867 641.522 444.729C644.039 451.447 645.461 458.166 647.427 463.914C649.336 469.491 651.361 474.883 653.814 482.425C655.609 486.349 656.936 490.302 657.915 494.387C658.569 496.526 659.542 498.798 659.562 503.105" stroke="#8F7566" stroke-width="15" stroke-linecap="round"/>
<path d="M1003.87 16.127C1003.87 21.6855 1000.86 36.8381 998.8 49.5922C997.187 59.5944 993.729 67.3566 990.431 78.268C987.486 88.0155 986.114 96.2913 982.566 105.687C979.181 114.651 974.967 122.698 971.898 130.312C968.765 138.087 966.834 146.546 963.271 155.942C960.036 164.471 957.179 174.963 954.644 184.626C952.496 192.812 948.042 199.847 943.481 207.979C941.951 212.03 940.93 216.111 939.918 220.162C939.407 222.203 938.905 224.213 933.818 224.761" stroke="#8F7566" stroke-width="15" stroke-linecap="round"/>
<path d="M933.818 224.761C933.818 228.294 931.808 238.406 927.491 249.089C923.355 259.324 919.107 266.854 915.81 275.237C911.108 287.195 907.442 301.88 904.389 312.03C900.634 324.513 896.782 333.343 892.967 342.244C888.53 352.597 887.127 365.323 885.094 375.237C883.381 383.593 881.553 391.73 879.003 399.862C875.545 410.886 871.898 426.238 868.601 438.931C865.947 449.149 862.761 459.224 860.477 468.391C858.083 477.996 853.624 488.676 850.327 500.105C849.558 502.915 849.055 505.428 848.294 507.978C847.532 510.529 846.527 513.042 842.446 517.154" stroke="#8F7566" stroke-width="15" stroke-linecap="round"/>
<path d="M484.569 17.6499C485.072 21.6856 489.108 31.8127 494.955 39.1987C500.956 46.7781 504.854 57.7016 508.92 67.6156C512.556 76.48 515.514 85.6312 519.329 94.0146C523.851 103.953 526.692 115.571 530.241 124.221C533.691 132.633 537.352 142.465 539.385 152.897C541.037 161.371 543.444 169.39 545.226 180.042C547.745 195.103 550.023 208.436 553.091 218.639C555.505 226.667 557.15 234.873 561.711 245.533C565.319 253.967 567.81 262.285 569.843 270.417C571.994 279.023 575.912 291.189 579.231 301.126C582.594 311.192 586.084 321.16 588.118 331.074C589.93 339.914 592.663 351.099 594.97 360.518C597.432 370.569 602.318 379.029 606.133 388.943C609.709 398.236 613.496 408.481 616.032 416.614C618.809 425.522 624.644 432.848 627.712 440.98C630.672 448.822 632.776 457.213 635.578 466.61C638.155 475.252 642.918 486.118 645.225 495.803C647.487 499.854 649.543 503.935 650.304 507.986C650.563 510.027 650.563 512.037 647.517 511.063" stroke="#8F7566" stroke-width="15" stroke-linecap="round"/>
<path d="M15.3162 292.752C23.4767 295.666 37.4636 303.809 48.9147 310.864C60.0931 317.75 67.3329 323.745 78.1609 329.58C89.525 335.704 100.677 343.611 111.505 350.929C121.858 357.926 129.353 364.67 139.874 372.278C154.951 383.18 166.207 399.172 174.692 408.254C182.609 416.729 191.934 427.252 201.306 433.999C212.56 442.103 225.243 455.296 238.151 466.168C247.979 474.446 263.817 486.288 280.261 500.67C291.89 510.84 303.654 517.351 313.622 522.343C322.664 526.872 333.488 533.145 343.456 537.26C354.127 541.666 372.027 554.731 385.575 563.286C395.053 569.271 404.283 572.947 415.111 578.493C424.793 583.452 432.958 589.303 440.277 598.956C442.33 601.026 444.646 602.185 446.708 603.94C448.771 605.695 450.508 608.011 452.298 605.133" stroke="#8F7566" stroke-width="15" stroke-linecap="round"/>
<path d="M637.086 537.798C636.911 541.864 636.204 545.048 635.053 553.622C634.166 560.236 634.78 569.137 635.048 573.836C635.287 578.025 635.843 581.192 636.199 595.493C636.374 599.599 636.725 602.932 636.906 606.227C637.086 609.523 637.086 612.68 637.618 617.527" stroke="#382F29" stroke-width="15" stroke-linecap="round"/>
<path d="M640.807 538.329C646.431 538.329 656.392 538.154 664.734 537.888C672.371 537.645 686.933 537.797 695.047 537.885C704.392 537.986 712.67 538.329 724.441 538.504C734.914 538.66 739.821 539.743 752.027 539.836C759.381 539.892 764.994 537.797 772.943 536.474C778.52 535.545 782.715 536.027 788.344 535.762C809.981 534.74 813.182 534.789 817.171 534.521C821.161 533.901 831.371 533.545 837.021 535.044C837.643 535.491 838.345 535.841 840.131 535.671" stroke="#382F29" stroke-width="15" stroke-linecap="round"/>
<path d="M840.131 535.671C840.131 536.022 840.131 547.429 839.955 564.964C839.851 575.377 838.366 582.414 837.917 586.244C837.488 589.904 836.942 598.153 836.591 607.279C836.475 610.285 835.538 609.916 833.686 609.735C828.852 609.554 825.078 609.203 823.664 608.584C822.952 608.316 822.25 608.14 821.527 607.96" stroke="#382F29" stroke-width="15" stroke-linecap="round"/>
<g filter="url(#filter0_d_0_1)">
<path d="M818.575 1034.72C818.575 1033.67 818.575 1018.1 818.839 994.278C818.96 983.347 820.173 972.767 820.305 959.195C820.429 946.35 821.499 935.16 822.034 915.382C822.329 904.473 823.895 894.965 824.035 878.223C824.102 870.167 822.841 862.742 822.437 856.747C821.962 849.682 820.716 841.175 820.041 835.975C819.401 831.043 819.11 826.781 818.711 815.035C818.348 804.348 818.575 784.046 818.312 773.063C817.882 755.149 816.451 743.452 816.311 736.402C816.201 730.849 817.777 707.171 816.982 692.857C816.451 690.732 816.179 686.482 816.047 681.031C815.915 678.742 815.652 677.424 815.38 673.67" stroke="#382F29" stroke-width="15" stroke-linecap="round"/>
</g>
<path d="M815.38 680.459C815.38 675.427 814.853 667.966 813.918 662.119C811.981 649.997 815.38 639.801 816.706 632.416C816.978 629.896 817.241 627.484 817.641 623.909C817.777 621.389 817.777 617.435 816.179 612.562" stroke="#382F29" stroke-width="15" stroke-linecap="round"/>
<path d="M817.298 614.668C817.298 614.764 817.298 614.86 817.298 622.244C817.298 629.628 817.298 644.298 817.251 652.047C817.195 661.06 816.334 663.562 815.654 665.75C815.459 667.351 815.073 669.088 814.926 673.873C814.878 674.905 814.782 675.288 814.684 675.683" stroke="#382F29" stroke-width="15" stroke-linecap="round"/>
<path d="M1142.13 1028.51C1142.13 1019.13 1142.8 999.482 1143.48 991.548C1144.04 984.989 1146.86 978.546 1149.89 970.1C1152.39 963.142 1155.29 955.583 1159.18 950.324C1163.01 945.152 1165.77 938.011 1169.48 930.406C1173.01 923.184 1176.91 917.399 1179.79 910.473C1182.29 904.444 1188.38 899.159 1193.96 894.082C1199.78 888.79 1207.64 886.309 1216.58 882.762C1223.36 880.075 1228.92 879.216 1236.01 875.669C1241.64 872.854 1247.16 872.446 1253.41 871.438C1256.32 870.969 1268.69 870.419 1286.08 870.252C1307.88 870.043 1334.66 870.744 1336.19 873.607C1337.71 879.53 1340.41 882.904 1341.76 885.6C1342.44 886.958 1343.11 888.295 1343.8 891.7" stroke="#011843" stroke-width="15" stroke-linecap="round"/>
<path d="M1050.93 1036.61C1050.93 1033.93 1051.6 1027.86 1052.79 1018.92C1054.23 1008 1053.97 991.822 1056.66 977.366C1058 970.151 1062.4 963.022 1069.31 949.012C1075.89 935.662 1082.33 929.216 1086.55 923.982C1091.55 917.796 1096.17 912.333 1100.91 907.595C1108.85 899.655 1118.81 892.734 1127.57 888.002C1134.94 884.026 1141.43 882.256 1147.52 881.233C1149.21 880.898 1151.21 880.229 1160.61 879.885C1170 879.54 1186.72 879.54 1204.96 880.554" stroke="#011843" stroke-width="15" stroke-linecap="round"/>
<path d="M939.461 1029.52C939.461 1018.13 940.129 996.443 942.997 976.733C944.401 967.084 945.541 958.948 949.914 946.306C953.272 936.595 956.992 924.878 964.263 911C968.326 903.246 974.219 897.477 983.162 891.387C995.815 882.77 1005.96 882.601 1013.58 881.065C1015.44 880.564 1017.45 879.56 1033.87 879.044C1050.28 878.527 1081.05 878.527 1112.75 878.527" stroke="#011843" stroke-width="15" stroke-linecap="round"/>
<path d="M909.06 1033.57C909.06 1025.18 908.391 1008.97 907.879 1000.33C906.736 981.034 907.702 947.152 908.38 939.354C909.014 932.084 912.079 922.831 914.288 916.042C916.831 908.227 927.239 894.477 935.047 887.662C939.436 883.832 946.514 880.25 952.614 876.51C958.694 874.139 966.781 871.788 984.064 869.254C997.334 868.393 1019.74 868.393 1042.82 868.393" stroke="#011843" stroke-width="15" stroke-linecap="round"/>
<path d="M74.3933 870.504C84.8002 870.504 105.308 870.215 120.489 869.777C134.51 869.373 161.377 869.629 176.226 870.062C196.446 870.652 200.992 873.41 207.407 874.149C214.831 875.005 221.7 878.084 226.672 879.252C231.707 880.435 237.455 882.46 243.153 884.355C247.897 885.933 252.632 888.569 257.306 892.372C261.661 895.916 265.184 899.948 268.545 903.895C271.986 907.937 274.811 913.077 278.317 918.621C283.07 926.139 290.549 939.58 293.927 947.645C298.399 958.32 302.54 963.544 305.161 969.969C307.705 976.203 310.12 987.439 311.004 1009.88C312.754 1018.12 313.341 1025.67 314.067 1031.68C314.216 1033 314.216 1034.44 314.216 1035.93" stroke="#011843" stroke-width="15" stroke-linecap="round"/>
<path d="M210.059 869.628C211.792 869.628 224.239 869.628 242.466 869.484C250.595 869.42 261.315 868.753 278.208 869.62C300.991 870.788 309.805 877.488 315.945 878.67C321.663 879.77 326.732 882.162 333.157 884.644C338.606 886.748 343.362 891.195 347.607 894.854C351.443 898.16 355.914 901.12 365.673 910C371.963 915.723 377.778 924.42 384.649 936.389C395.077 954.557 398.819 968.796 400.858 974.49C403.775 982.633 404.946 987.474 406.696 992.581C406.994 996.209 407.283 999.737 407.72 1007.41C407.869 1013.64 407.869 1024.62 407.869 1035.93" stroke="#011843" stroke-width="15" stroke-linecap="round"/>
<path d="M424.499 881.007C425.077 881.007 425.952 879.851 427.55 877.957C429.27 875.915 443.921 876.63 463.317 876.775C476.414 876.872 488.061 878.083 496.823 878.67C504.041 879.153 510.818 882.74 516.24 886.534C521.293 890.07 523.387 896.727 526.166 902.578C528.221 906.905 529.811 914.214 532.581 925.742C536.301 941.22 539.142 952.131 540.179 969.785C540.89 981.891 540.332 997.102 539.89 1004.1C539.457 1007.31 538.87 1010.82 538.433 1017.2C538.284 1021.57 538.284 1028.21 537.409 1035.05" stroke="#011843" stroke-width="15" stroke-linecap="round"/>
<path d="M642.298 539.51C639.545 546.057 635.378 555.762 634.162 566.455C630.594 597.832 635.71 604.248 636.926 608.093C639.427 616.001 636.063 592.88 635.201 584.583C633.37 566.967 639.867 556.51 639.015 550.961C638.495 549.569 637.809 548.197 637.456 546.462C637.103 544.727 637.103 542.669 637.103 540.549" stroke="#382F29" stroke-width="15" stroke-linecap="round"/>
<path d="M637 538.565C648.721 538.565 666.64 537.862 673.61 536.614C677.646 535.892 682.725 535.378 703.47 533.778C721.339 532.401 754.295 533.235 772.31 533.411C796.105 533.643 805.296 536.433 814.797 538.203C825.908 540.272 834.614 541.742 841.981 544.237C850.19 547.017 843.965 592.212 839.697 610C838.26 609.643 836.845 609.291 833.815 609.11C830.786 608.929 826.186 608.929 819.301 607.862" stroke="#382F29" stroke-width="15" stroke-linecap="round"/>
<path d="M1012.24 18.7539C1011.79 23.2818 1009.98 31.4374 1007.02 41.4477C1004.72 49.2559 1001.79 59.15 998.842 67.8238C996.36 75.1138 993.612 83.2622 989.984 93.0339C983.443 110.654 982.701 119.185 978.842 131.446C975.539 141.936 974.982 152.353 972.473 162.827C970.541 170.891 966.799 179.629 964.065 190.103C961.851 198.583 952.752 211.406 945.892 226.681C938.22 243.764 930.904 256.903 927.242 266.027C923.299 275.852 919.066 285.543 916.331 296.249C913.071 309.012 909.519 316.938 907.01 325.577C904.181 335.319 897.272 349.615 893.372 359.905C890.208 368.251 887.698 375.582 884.057 386.935C880.178 399.031 878.152 409.213 875.642 418.992C872.524 431.14 870.405 438.317 866.784 447.182C862.446 457.803 861.322 468.321 857.244 481.229C855.43 488.682 852.73 501.734 850.664 509.133C848.598 516.531 847.248 517.882 845.857 519.273" stroke="#8F7566" stroke-width="20" stroke-linecap="round"/>
<path d="M1014.97 629.741C1017.68 627.941 1027.63 617.085 1037.67 608.172C1044.06 602.499 1051.3 597.937 1058.13 592.489C1068.59 584.14 1076.31 578.407 1083.36 572.031C1092.07 564.143 1100.37 555.222 1107.91 549.522C1114.97 544.189 1124.95 542.021 1132.45 539.511C1141.07 536.631 1148.13 531.574 1155.41 527.244C1163.44 522.473 1171.32 517.472 1179.73 510.21C1186.98 503.957 1196.3 495.242 1203.38 488.15C1208.95 482.565 1217.22 477.485 1227.46 470.878C1238.83 463.538 1253.61 456.564 1260.2 452.009C1267.48 446.98 1272.7 439.298 1280.88 430.884C1289.35 422.166 1301.32 416.114 1309.3 411.32C1317.06 406.662 1326.33 398.384 1333.17 391.101C1340.23 383.576 1351.75 373.426 1362.03 364.957C1371.55 357.108 1379.98 355.179 1386.13 350.63C1392.21 346.134 1400.44 342.468 1409.98 336.767C1417.6 332.219 1424.09 327.002 1430.68 322.672C1432.28 321.533 1433.63 320.183 1435.23 319.038C1436.82 317.892 1438.62 316.992 1441.84 314.701" stroke="#8F7566" stroke-width="20" stroke-linecap="round"/>
<path d="M200.092 864.317C202.356 852.533 205.983 840.723 208.486 828.701C214.954 797.63 219.158 787.07 224.62 778.656C231.395 768.218 242.343 756.166 246.673 748.645C252.117 739.188 265.064 728.89 274.61 721.144C282.631 714.635 289.612 708.869 299.152 702.05C311.75 693.046 323.244 692.04 331.89 688.174C344.178 684.294 350.547 683.843 354.4 683.162C356.453 682.93 358.703 682.93 361.021 682.93" stroke="#8F7566" stroke-width="20" stroke-linecap="round"/>
<path d="M361.022 682.93C364.186 681.116 375.942 680.203 395.049 676.807C409.035 674.321 422.802 672.483 430.549 669.306C439.013 665.834 447.814 660.673 454.872 655.224C462.976 648.968 471.872 638.879 480.56 633.397C487.291 629.149 490.093 619.322 499.182 606.836C508.395 594.181 515.105 587.954 520.792 582.029C528.481 574.017 539.19 565.67 548.737 560.208C557.076 555.436 566.903 550.668 577.377 545.881C584.57 542.593 595.079 539.757 606.017 534.745C614.147 531.02 625.546 528.847 636.021 524.967C644.057 521.99 653.286 519.736 663.747 518.141C674.123 516.558 680.59 516.095 702.445 515.413C722.491 514.788 760.755 515.181 781.812 516.081C810.934 517.326 820.571 521.537 829.914 524.714C838.037 527.477 847.848 531.52 867.152 533.586C876.598 534.597 882.87 539.73 890.153 542.219C893.751 543.449 897.436 544.271 900.614 545.853C901.991 546.985 902.891 548.786 904.03 550.388C905.169 551.991 906.519 553.341 907.91 554.732" stroke="#8F7566" stroke-width="20" stroke-linecap="round"/>
<path d="M909.274 550.64C912.888 552.454 921.057 556.068 928.115 559.266C935.078 562.421 941.514 566.542 949.929 571.302C958.381 576.083 964.699 582.881 970.625 590.163C976.768 597.714 982.892 606.966 988.354 614.937C994.594 624.043 1000.62 632.442 1004.73 639.261C1008.83 646.084 1015.16 651.535 1022.44 654.283C1029.88 657.088 1038.34 658.818 1046.75 661.777C1059.95 666.423 1066.98 669.728 1074.27 672.013C1081.43 674.259 1094.21 674.747 1105.4 676.104C1113.51 677.087 1121.54 679.739 1127.69 684.048C1134.78 689.016 1145.62 691.085 1162.65 698.586C1173.78 703.488 1182.91 708.815 1193.36 718.805C1200.59 725.711 1207.92 732.9 1213.61 741.315C1219.6 750.176 1227.45 764.213 1232.48 775.41C1235.99 783.214 1241.12 790.18 1245.89 798.363C1250.21 812.001 1253.85 822.912 1259.3 832.683C1260.67 835.199 1261.57 837.45 1263.86 842.496" stroke="#8F7566" stroke-width="20" stroke-linecap="round"/>
<path d="M1210.02 13.2959C1208.88 16.3395 1205.06 23.9771 1198.76 35.6288C1185.84 59.5504 1177.15 70.6298 1172.89 80.0763C1169.37 87.895 1163.34 95.185 1158.73 103.615C1155.41 109.684 1153.37 116.249 1148.4 121.429C1143.51 126.528 1139.23 132.718 1134.23 139.414C1129.74 145.444 1123.54 151.462 1119.11 159.508C1113.21 170.233 1107.82 182.84 1104.94 190.523C1101.32 200.171 1091.38 208.865 1079.32 222.469C1072.15 230.565 1068.78 240.656 1065.13 247.57C1061.71 254.059 1058.05 263.603 1054.03 270.735C1050.79 276.486 1048.1 282.783 1041.6 294.636C1037.44 302.208 1033.17 307.293 1028.38 315.131C1023.2 323.614 1017.48 331.779 1013.64 340.209C1010.29 347.538 1006.36 355.14 1002.53 360.32C999.853 366.636 996.407 372.379 993.168 377.903C991.067 381.533 988.035 386.839 983.762 393.454" stroke="#41464A" stroke-width="20" stroke-linecap="round"/>
<path d="M983.762 393.454C981.098 396.119 975.746 402.229 954.751 437.913C947.059 450.987 942.439 458.115 937.839 464.639C933.594 470.66 928.656 477.25 922.15 486.834C917.962 493.003 914.874 499.094 911.228 505.027C906.957 511.974 903.389 519.745 898.789 527.612C896.498 530.862 894.569 533.94 893.041 537.185C892.272 538.913 891.514 540.809 888.435 545.058" stroke="#41464A" stroke-width="20" stroke-linecap="round"/>
<path d="M960.792 568.028C961.929 565.743 967.27 558.886 972.26 551.208C976.725 544.339 982.591 537.041 988.902 527.87C996.06 517.468 1003.63 512.555 1011.3 505.268C1018.08 498.819 1024.33 493.788 1029.68 486.323C1036.6 476.676 1045.37 469.279 1053.03 461.63C1058.46 456.204 1062.99 450.903 1069.68 446.303C1076.08 441.91 1083.25 434.456 1089.21 427.364C1098.8 415.971 1115.36 401.195 1122.72 392.328C1127.01 387.169 1130.75 381.992 1136.87 376.824C1145.88 369.221 1154.45 359.435 1168.81 346.606C1181.72 335.057 1191.21 331.09 1198.51 324.756C1204.36 319.686 1209.61 314.23 1214.6 309.63C1220.17 304.494 1227.59 298.15 1233.93 293.361C1241.49 287.643 1252.45 274.077 1258.81 266.181C1264.46 259.177 1275.05 251.475 1282.16 245.313C1284.65 243.022 1288.85 239.576 1295.53 234.046C1299.18 230.79 1303.35 226.621 1309.94 220.028" stroke="#41464A" stroke-width="20" stroke-linecap="round"/>
<path d="M278.287 14.4443C279.424 17.1089 284.007 23.977 288.796 30.5006C293.405 36.7789 297.398 41.9857 302.199 46.775C306.995 51.5598 309.274 58.8229 315.017 66.0988C321.145 73.863 324.595 81.7932 329.379 92.8821C332.913 101.076 336.08 108.967 340.29 117.966C347.168 132.67 356.363 149.556 360.773 156.642C364.631 162.84 368.997 170.596 373.407 177.7C377.435 184.188 380.872 189.754 382.986 195.887C385.357 202.768 390.819 210.794 394.465 218.851C397.976 226.609 402.694 232.249 406.714 237.428C410.868 242.781 413.789 249.476 417.625 255.609C421.816 262.31 427.181 267.853 431.981 273.986C436.263 279.456 437.54 286.229 440.406 293.505C443.517 301.404 447.096 308.809 452.649 318.003C456.832 324.929 462.026 331.411 464.53 337.154C467.237 343.362 471.215 349.397 477.147 356.673C483.234 364.139 488.442 368.164 489.993 374.096C491.858 381.232 496.872 386.15 500.892 391.329C504.939 396.544 506.061 404.135 510.27 410.659C514.592 417.358 520.21 424.809 525.201 430.379C527.492 433.239 529.8 435.938 530.386 436.713C529.835 436.351 527.561 434.456 525.218 432.504" stroke="#41464A" stroke-width="20" stroke-linecap="round"/>
<path d="M525.218 432.503C526.734 435.547 532.086 444.701 537.449 452.958C541.283 458.86 542.813 465.397 547.022 471.53C551.235 477.668 554.298 483.773 558.507 489.717C563.021 496.09 567.69 503.688 571.526 509.431C576.889 515.564 581.472 521.674 584.556 525.912C584.194 525.556 582.299 523.282 580.346 520.939" stroke="#41464A" stroke-width="20" stroke-linecap="round"/>
<path d="M14.1287 29.375C18.3093 35.0831 27.4974 45.0407 33.6305 49.4568C40.7788 54.6038 45.1156 60.3619 50.8582 66.1045C57.003 72.2492 61.1949 80.2542 75.7063 95.5467C84.1383 104.432 90.2752 110.506 97.5626 117.592C103.34 123.211 107.135 130.031 112.689 136.164C117.882 141.9 123.215 148.017 129.147 153.776C136.052 160.481 141.958 166.783 147.339 171.963C154.077 178.449 161.116 188.215 165.715 194.738C170.439 201.438 176.804 207.372 182.937 213.878C188.162 219.42 193.274 224.209 199.78 231.295C205.231 237.232 210.869 244.492 217.203 249.873C222.676 254.521 228.487 260.961 236.717 269.191C244.012 276.486 249.161 282.025 254.341 287.768C260.058 294.107 266.388 300.011 271.758 305.38C278.276 312.656 281.721 317.641 282.117 318.037C281.377 317.296 278.724 314.643 275.99 310.761" stroke="#41464A" stroke-width="20" stroke-linecap="round"/>
<path d="M275.99 310.761C279.022 315.332 288.21 324.497 293.39 330.269C298.732 336.221 305.438 341.748 310.618 347.491C316.694 354.228 323.814 360.124 328.994 365.677C334.174 371.231 339.893 376.204 346.79 381.757C352.397 386.271 360.544 394.166 367.848 401.281C375.128 408.372 383.927 416.402 388.527 421.001C393.32 425.794 401.89 433.216 409.195 438.614C415.328 444.356 422.196 451.225 434.25 463.278C436.771 465.799 437.908 466.936 439.079 468.108" stroke="#41464A" stroke-width="20" stroke-linecap="round"/>
<path d="M439.079 468.107C440.986 470.772 446.315 479.156 450.932 487.029C456.176 495.972 460.51 501.001 464.329 507.323C468.809 514.741 476.176 522.042 481.746 528.002C487.3 533.945 493.404 540.05 498.785 546.947C503.121 552.505 509.116 556.52 513.905 563.98C516.765 566.857 519.464 569.165 519.86 569.372C519.119 568.442 516.466 565.41 513.733 562.286" stroke="#41464A" stroke-width="20" stroke-linecap="round"/>
<path d="M1166.71 692.713C1183.16 681.639 1211.67 661.939 1216.76 657.544C1222.73 652.388 1232.3 647.405 1240.26 641.817C1251 634.289 1263.09 630.475 1272.06 624.903C1282.86 618.2 1296.91 610.52 1305.39 605.948C1311.21 602.813 1318.91 600.026 1333.11 595.463C1343.02 592.276 1350.03 587.176 1356.49 584.796C1364.57 581.818 1375.08 577.026 1380.85 573.296C1392.35 565.854 1413.31 555.367 1422.11 550.47C1435.41 543.063 1444.79 535.413 1449.2 533.86C1454.43 532.013 1450.22 544.852 1450.06 547.217C1449.45 556.029 1429.97 559.061 1422.17 562.949C1412.74 567.65 1405.59 572.926 1398.99 575.306C1389.04 578.898 1379.2 583.766 1369.4 588.658C1356.89 594.903 1341.65 605.08 1336.06 607.445C1329.77 610.107 1309.66 620.224 1296.48 627.404C1289.94 630.967 1279.43 635.509 1268.24 641.604C1262.09 644.952 1256.74 649.394 1250.97 652.104C1245.21 654.81 1237.8 657.514 1229.5 660.899C1219.92 664.805 1210.72 666.993 1205.47 669.693C1201.23 674.768 1196.51 680.168 1188.56 686.263C1186.68 687.628 1185.34 688.633 1181.93 689.668" stroke="#524235" stroke-width="20" stroke-linecap="round"/>
<circle cx="449" cy="768" r="55" fill="#D9D9D9"/>
<circle cx="448.45" cy="767.45" r="52.25" fill="white"/>
<circle cx="448.45" cy="767.45" r="46.75" fill="#85868A"/>
<circle cx="449" cy="768" r="18.5" fill="#BDB9B9" stroke="#382F29" stroke-width="7"/>
<circle cx="1026" cy="766" r="55" fill="#D9D9D9"/>
<circle cx="1025.45" cy="765.45" r="52.25" fill="white"/>
<circle cx="1025.45" cy="765.45" r="46.75" fill="#85868A"/>
<circle cx="1026" cy="766" r="18.5" fill="#BDB9B9" stroke="#382F29" stroke-width="7"/>
<path d="M1075.39 805.661C1075.9 806.866 1077.56 809.928 1079.41 812.834C1083.12 818.66 1083.63 820.667 1085.13 822.964C1089.05 828.985 1089.38 830.321 1089.8 831.029C1089.83 831.086 1089.58 830.59 1089.51 830.268C1089.45 829.946 1089.51 829.693 1090.02 829.309C1092.49 827.442 1093.85 827.009 1095.19 825.573C1096.44 824.245 1097.43 823.173 1097.75 822.567C1097.9 822.286 1097.95 822.024 1097.85 821.799C1097.42 820.756 1096.04 819.601 1095.14 818.476C1094.39 817.535 1093.48 816.783 1092.27 815.666C1091.07 814.569 1089.84 813.908 1088.59 812.886C1087.07 811.637 1085.88 810.775 1084.31 809.818C1083.28 809.187 1082.04 808.858 1080.45 808.219C1079 807.64 1077.57 806.941 1076.74 806.239C1076.53 806.063 1076.35 805.856 1076.57 805.948C1078.52 806.769 1079.47 808.022 1080.79 808.82C1082.34 809.764 1083.18 810.768 1084.21 811.601C1085.27 812.464 1086.44 813.325 1088.32 814.761C1089.89 815.954 1091.67 817.094 1093.21 818.277C1094.45 819.229 1095.13 820.353 1096.06 821.376C1096.5 821.864 1096.8 822.4 1096.99 822.973C1097.09 823.283 1097.05 823.673 1096.93 823.9C1096.31 825.002 1094.31 824.762 1093.03 825.849C1091.97 826.754 1090.86 827.003 1090.28 827.004C1088.79 827.006 1088.11 825.345 1087.44 824.451C1086.7 823.474 1086.26 822.408 1085.78 821.384C1085.32 820.404 1084.79 819.214 1084.05 818.125C1083.42 817.184 1082.55 816.4 1081.27 814.773C1080.39 813.644 1079.93 812.251 1079.48 810.969C1079.05 809.736 1078.72 809.05 1078.71 808.856C1078.7 807.224 1081.26 810.641 1082.26 811.568C1083.09 812.343 1084.65 813.321 1086.03 814.634C1087.32 815.866 1088.36 816.584 1089.7 817.638C1090.66 818.396 1091.62 819.076 1092.64 819.844C1093.7 820.635 1094.68 821.695 1095.45 822.588C1095.75 822.942 1095.71 823.228 1095.58 823.454C1095.04 824.429 1093.42 824.382 1091.85 824.574C1091.29 824.643 1091.05 825.278 1090.41 825.373C1090.03 825.431 1089.52 825.406 1089.17 825.28C1087.99 824.861 1087.6 823.558 1087.25 822.503C1086.83 821.256 1086.32 819.981 1085.74 818.86C1085.13 817.665 1084.21 816.657 1083.57 815.379C1082.72 813.682 1081.4 812.757 1080.85 812.274C1079.19 810.813 1083.82 814.092 1084.75 814.7C1085.74 815.35 1086.95 816.327 1087.91 817.255C1089.3 818.591 1090.47 819.843 1091.97 821.247C1092.55 821.79 1093.15 822.272 1093.5 822.814C1094.01 823.593 1091.31 823.677 1089.52 824.222C1089.14 824.339 1088.88 824.382 1088.69 824.288C1087.81 823.864 1087.86 821.396 1087.12 819.214C1086.72 818.031 1085.87 817.105 1085.26 816.46C1084.01 815.131 1087.97 819.904 1089.03 820.929C1090.41 822.272 1091.3 823.293 1091.65 823.936C1092.12 824.773 1089.9 823.042 1089.61 823.073C1089.76 823.42 1090.09 823.997 1090.28 825.204C1090.34 826.094 1090.34 827.549 1090.34 829.048" stroke="black" stroke-width="2" stroke-linecap="round"/>
<path d="M1087.56 790.324C1089.37 790.444 1091.79 791.167 1094.33 792.739C1096.5 794.079 1103.36 796.954 1108.91 799.394C1113.79 801.543 1115.87 803.148 1118.35 804.118C1121.7 805.422 1124.7 806.293 1127.55 806.665C1129.92 806.974 1128.71 800.992 1129.38 797.299C1130.24 792.541 1130.4 790.451 1130.71 789.364C1130.98 788.399 1123.45 788.146 1113.77 788.206C1108.85 788.236 1098.55 788.872 1091.39 789.475C1090.23 789.598 1089.14 789.718 1087.87 789.899C1087.21 789.961 1086.49 789.961 1085.75 789.961" stroke="black" stroke-width="2" stroke-linecap="round"/>
<path d="M1089.01 777.253C1090.82 776.893 1094.69 776.163 1097.9 775.139C1101.89 773.863 1104.61 773.142 1107.22 772.534C1107.88 772.38 1108.61 772.293 1109.16 772.051C1109.71 771.81 1110.07 771.451 1110.07 771.086C1110.1 769.272 1108.02 767.224 1107.6 764.432C1107.15 761.468 1101.13 764.174 1099.07 764.966C1096.61 765.911 1093.04 768.401 1090.41 770.349C1089.51 771.073 1088.66 771.803 1088.11 772.767C1087.93 773.371 1087.93 774.21 1087.93 775.074" stroke="black" stroke-width="2" stroke-linecap="round"/>
<path d="M1087.2 772.959C1086.68 773.333 1085.04 775.044 1083.94 776.255C1083.31 776.95 1083.12 777.38 1083.12 777.549C1083.11 778.45 1086.22 777.119 1088.11 776.839C1089.34 776.745 1089.97 776.595 1090.46 776.483C1090.76 776.445 1091.17 776.445 1091.59 776.445" stroke="black" stroke-width="2" stroke-linecap="round"/>
<path d="M1084.28 776.67C1085.03 775.996 1086 775.548 1087.25 774.986C1088 774.65 1089.26 774.051 1090.62 773.209C1091.47 772.686 1092.85 771.656 1094.69 770.439C1096 769.568 1096.98 768.656 1098.87 767.399C1100.38 766.394 1101.59 765.58 1102.41 765.073C1103.08 764.662 1103.65 764.229 1104.74 764.004C1105.11 763.927 1105.59 763.965 1105.9 764.04C1106.36 764.151 1106.54 764.601 1106.73 764.975C1107.1 765.724 1106.95 766.772 1107.18 767.449C1107.42 768.173 1107.55 769.097 1107.74 769.864C1107.81 770.175 1107.78 770.664 1107.57 770.987C1106.81 772.186 1105.49 771.723 1104.71 771.891C1103.29 772.193 1102.5 772.62 1101.34 772.884C1100.13 773.156 1098.67 773.522 1097.89 773.709C1097.18 773.875 1096.35 774.12 1095.51 774.252C1094.34 774.435 1093.05 775.058 1092.17 775.338C1090.96 775.722 1089.49 776.256 1088.5 776.37C1088.06 776.42 1087.73 776.557 1087.5 776.483C1087.4 776.45 1087.43 776.261 1087.5 776.091C1087.86 775.274 1088.81 774.651 1089.56 774.067C1090.33 773.473 1090.87 772.737 1091.3 772.138C1091.94 771.259 1092.71 770.304 1093.38 769.682C1094.16 768.974 1095.52 768.017 1096.44 767.509C1097.68 766.82 1098.59 766.853 1099.42 766.739C1100.59 766.577 1101.33 766.365 1102.11 766.14C1102.77 765.952 1103.46 765.803 1105.84 765.82C1106.35 765.824 1106.5 765.987 1106.63 766.137C1107.17 766.754 1107.48 767.484 1107.87 768.123C1108.26 768.758 1108.56 769.658 1108.9 770.369C1109.04 770.662 1109.01 770.857 1108.66 770.953C1106.68 771.489 1105.27 771.496 1104.15 771.76C1103.07 772.011 1102.42 772.173 1101.63 772.359C1099.59 772.845 1096.54 772.96 1095.3 773.165C1094.17 773.352 1093.2 773.596 1092.4 773.653C1091.61 773.708 1090.65 774.194 1089.88 774.495C1089.69 774.572 1089.46 774.534 1089.38 774.46C1089.22 774.306 1089.45 773.861 1089.62 773.357C1090.1 771.897 1091.77 771.912 1092.71 771.389C1093.88 770.732 1095.37 770.152 1096.92 769.424C1098.97 768.459 1100.91 767.754 1102.02 767.155C1102.97 766.639 1103.99 766.515 1104.89 766.346C1105.11 766.304 1105.37 766.326 1105.56 766.401C1106.25 766.672 1106.46 767.523 1106.82 768.085C1106.92 768.251 1106.88 768.532 1106.8 768.74C1106.53 769.503 1105.49 769.845 1104.5 770.447C1103.45 771.084 1102.27 771.159 1100.89 771.553C1098.98 772.095 1098.15 772.135 1096.58 772.471C1095.67 772.666 1094.67 772.847 1093.77 772.773C1092.39 772.66 1097.95 771.089 1099.23 770.657C1100.49 770.228 1101.4 769.627 1102.13 769.139C1102.86 768.658 1103.88 768.015 1104.5 767.975C1105.17 767.93 1105.3 769.023 1105.9 769.418C1106.28 769.669 1106.69 768.728 1106.91 768.204C1107.01 767.984 1106.99 767.829 1106.88 767.752C1105.84 767.04 1103.99 768.984 1102.56 770.051C1101.89 770.545 1101.33 770.636 1101.01 770.692C1100.85 770.722 1100.66 770.711 1100.94 770.581C1103.15 769.54 1104.29 769.026 1104.38 768.727C1104.44 768.548 1104.22 768.28 1104.01 768.11C1102.76 767.072 1100.17 767.824 1099.44 768.218C1099.09 768.403 1098.75 768.611 1098.54 768.91C1098.45 769.043 1098.52 769.209 1098.61 769.36C1098.71 769.51 1098.85 769.659 1099.06 769.735C1099.27 769.812 1099.53 769.812 1099.66 769.719C1099.79 769.626 1099.79 769.441 1099.79 769.25" stroke="black" stroke-width="2" stroke-linecap="round"/>
<path d="M1091.52 790.267C1092.48 790.553 1094.17 791.131 1094.55 791.36C1095.06 791.661 1095.73 792.356 1096.74 793.21C1097.27 793.656 1097.87 794.112 1098.42 794.462C1099.09 794.885 1099.55 795.171 1100.02 795.376C1100.43 795.553 1101.02 795.701 1102.16 796.121C1102.75 796.338 1104.09 797.019 1105.81 797.777C1106.56 798.108 1106.86 798.25 1107.38 798.406C1108.17 798.644 1108.98 798.947 1110.14 799.377C1110.95 799.679 1112.18 800.283 1113.07 800.732C1114.48 801.446 1115.11 801.881 1115.64 802.096C1116.02 802.251 1116.64 802.455 1117.59 802.648C1119.79 803.096 1121.24 803.18 1121.54 803.192C1122.23 803.252 1123.57 803.372 1125.26 803.552C1126 803.613 1126.5 803.613 1126.94 803.469" stroke="black" stroke-width="2" stroke-linecap="round"/>
<path d="M1127.31 805.705C1127.35 805.372 1127.66 803.819 1128.13 801.525C1128.52 799.611 1128.55 798.641 1128.84 797.32C1129.18 795.781 1128.96 794.454 1129.08 793.926C1129.33 792.844 1129.32 791.569 1129.36 791.074C1129.4 790.629 1128.92 790.341 1128.5 789.992C1128 789.576 1127.48 789.57 1126.3 789.51C1124.99 789.443 1124.23 789.234 1123.62 789.113C1122.73 788.939 1121.73 789.017 1120.65 789.005C1119.75 788.994 1118.1 789.064 1117.19 789.1C1115.29 789.176 1113.41 789.28 1112.71 789.353C1112.54 789.371 1112.35 789.424 1111.47 789.497C1110.58 789.569 1109.01 789.664 1108.07 789.737C1107.13 789.81 1106.87 789.857 1106.19 789.882C1105.51 789.906 1104.41 789.906 1103.28 789.906" stroke="black" stroke-width="2" stroke-linecap="round"/>
<path d="M1094.91 790.051C1094.94 790.075 1094.96 790.098 1095.84 790.67C1096.72 791.242 1098.46 792.361 1099.45 792.973C1100.44 793.585 1100.63 793.656 1102.7 794.657C1104.76 795.658 1108.69 797.587 1110.97 798.735C1113.26 799.883 1113.78 800.192 1114.5 800.59C1116.12 801.48 1117.2 802.002 1117.59 802.169C1118.74 802.673 1119.44 802.963 1121.63 803.479C1122.65 803.718 1123.5 804.188 1124.05 804.49C1124.49 804.735 1124.95 804.959 1125.6 805.176C1125.74 805.224 1125.84 805.248 1125.92 805.225C1126.01 805.201 1126.08 805.13 1126.15 805.056" stroke="black" stroke-width="2" stroke-linecap="round"/>
<path d="M1096.65 790.484C1096.74 790.484 1097.41 790.365 1099.11 790.16C1100.18 790.031 1101.71 790.028 1102.54 789.991C1104.24 789.917 1105.92 789.787 1106.47 789.63C1107.05 789.463 1107.82 789.354 1108.37 789.317C1108.67 789.297 1109.96 789.257 1112.51 789.412C1113.95 789.499 1115.66 789.876 1116.6 790.059C1117.54 790.243 1117.66 790.29 1118.66 790.35C1119.66 790.411 1121.54 790.482 1123.17 790.638C1124.79 790.794 1126.1 791.032 1126.85 791.178C1127.59 791.325 1127.74 791.372 1127.84 791.433C1127.95 791.493 1128.03 791.564 1128.06 791.768C1128.16 792.297 1128.03 792.838 1127.87 793.293C1127.67 793.884 1127.38 795.282 1127.03 796.953C1126.9 797.577 1126.85 797.742 1126.78 798.542C1126.58 800.768 1126.42 802.219 1126.24 802.123C1125.8 801.894 1125.6 801.403 1124.53 800.886C1123.93 800.595 1123.34 801.039 1122.37 801.507C1121.13 802.101 1120.28 801.93 1120.09 801.87C1119.99 801.84 1119.9 801.787 1120.04 801.798C1121.28 801.895 1122.2 802.482 1122.83 802.651C1123.43 802.812 1124.01 802.628 1124.29 802.508C1124.41 802.456 1124.44 802.341 1124.43 802.256C1124.41 802.081 1123.35 801.931 1121.76 801.787C1120.75 801.695 1119.38 801.428 1117.78 800.912C1116.61 800.533 1115.79 800.08 1114.59 799.611C1114.07 799.408 1113.41 799.166 1112.63 798.83C1111.1 798.169 1109.8 797.794 1109.02 797.447C1108.19 797.078 1107.01 796.761 1106.04 796.281C1105.72 796.125 1104.38 795.181 1102.25 793.907C1100.6 792.921 1099.97 792.746 1099.2 792.325C1098.79 792.1 1098.57 791.807 1098.51 791.711C1098.16 791.161 1099.84 791.542 1102.12 791.506C1104.23 791.472 1108.27 791.494 1110.54 791.517C1112.8 791.541 1113.16 791.589 1114.02 791.625C1114.88 791.662 1116.24 791.685 1117.62 791.769C1119 791.853 1120.35 791.996 1121.15 792.069C1122.13 792.16 1123.16 792.262 1124.52 792.466C1125.59 792.627 1126.58 793.102 1127.53 793.345C1127.78 793.407 1128 793.417 1128.18 793.548C1128.27 793.61 1128.24 793.752 1128.22 793.872C1128.02 794.883 1126.35 796.679 1125.91 797.575C1125.59 798.234 1125.33 798.848 1125.13 799.558C1124.95 800.179 1124.9 800.679 1124.83 800.775C1124.8 800.814 1124.71 800.681 1124.67 800.585C1124.6 800.402 1125.21 798.914 1126.07 796.727C1126.57 795.459 1126.3 794.863 1126.24 794.502C1126.21 794.367 1126.06 794.379 1125.84 794.534C1125.27 794.942 1124.73 795.746 1124.28 796.526C1123.54 797.791 1123.19 799.113 1123.2 800.222C1123.21 801.502 1124.83 797.513 1125.34 796.311C1125.57 795.784 1125.57 795.297 1125.51 794.66C1125.49 794.399 1125.34 794.285 1125.2 794.212C1124.73 793.952 1124.3 794.018 1123.94 794.114C1122.85 794.403 1122.78 796.227 1122.63 796.818C1122.49 797.334 1122.4 797.911 1122.28 799.205C1122.23 799.779 1122.26 800.638 1122.27 799.949C1122.28 799.26 1122.3 796.998 1122.34 795.714C1122.38 794.19 1122.52 793.827 1122.47 793.623C1122.44 793.499 1122.14 793.49 1121.9 793.549C1121.38 793.674 1120.98 794.208 1120.65 794.724C1120.35 795.183 1120.28 796.437 1120.28 798.19C1120.28 799.518 1120.52 800.269 1120.66 800.605C1120.71 800.752 1120.76 800.846 1120.82 800.8C1121.04 800.635 1121.05 800.01 1121.07 799.016C1121.1 796.325 1120.76 795.704 1120.66 794.984C1120.46 793.669 1119.97 793.156 1119.47 792.829C1119.36 792.76 1119.25 792.792 1119.15 793.209C1118.87 794.44 1118.86 795.722 1119 796.811C1119.08 797.503 1119.39 798.448 1119.29 797.76C1119.18 797.072 1118.71 794.715 1118.45 793.454C1118.19 792.192 1118.17 792.097 1118.11 792.036C1118.05 791.975 1117.95 791.951 1117.87 791.986C1117.68 792.065 1117.59 792.929 1117.54 794.404C1117.49 795.95 1117.69 797.141 1117.78 797.801C1117.9 798.595 1118.19 799.448 1118.83 800.52C1118.95 800.728 1119.1 800.751 1119.22 800.763C1119.34 800.776 1119.46 800.752 1119.56 800.549C1119.82 800.001 1119.71 799.145 1119.22 797.603C1118.86 796.477 1118.13 794.704 1117.73 793.748C1117.33 792.793 1117.23 792.721 1117.13 792.649C1116.66 792.293 1115.29 792.574 1114.47 792.708C1114.32 792.731 1114.18 792.72 1114.12 792.672C1114 792.582 1114.48 792.122 1115.06 791.605C1115.27 791.415 1115.26 791.303 1114.7 791.195C1113.04 790.872 1111.75 790.844 1111.5 790.832C1111.22 790.819 1112.53 790.939 1115.12 791.275C1116.26 791.423 1117.05 791.61 1117.02 791.803C1117 791.996 1116.14 792.211 1113.81 792.345C1111.47 792.479 1107.69 792.527 1105.81 792.539C1103.93 792.552 1104.07 792.528 1106.13 792.623C1108.2 792.718 1112.17 792.932 1114.78 793.126C1117.39 793.319 1118.51 793.486 1119.14 793.596C1119.78 793.705 1119.9 793.753 1120.01 793.789C1120.11 793.826 1120.21 793.85 1119.97 793.814C1119.74 793.779 1119.16 793.684 1116.98 793.587C1114.79 793.49 1111.01 793.395 1108.98 793.334C1106.96 793.273 1106.82 793.249 1105.73 793.249C1104.65 793.249 1102.63 793.273 1101.54 793.273C1100.45 793.273 1100.35 793.249 1100.25 793.225C1100.16 793.201 1100.06 793.177 1100.19 793.165C1100.32 793.153 1100.68 793.153 1102.91 793.534C1105.14 793.915 1109.24 794.676 1112.15 795.176C1115.07 795.676 1116.69 795.89 1117.86 796.084C1119.03 796.277 1119.69 796.444 1118.35 796.47C1117 796.497 1113.62 796.377 1111.23 796.233C1108.85 796.088 1107.56 795.922 1106.85 795.824C1106.14 795.726 1106.05 795.702 1107.5 796.118C1108.95 796.535 1111.95 797.392 1113.9 798C1115.85 798.608 1116.66 798.941 1117.37 799.161C1118.66 799.556 1119.56 799.573 1119.6 799.43C1119.67 799.176 1118.66 799.002 1117 798.01C1115.33 797.017 1112.74 795.327 1111.57 794.48C1110.4 793.633 1110.73 793.681 1111.71 794.039C1112.69 794.396 1114.31 795.063 1115.44 795.454C1117.14 796.04 1118.07 796.038 1118.18 795.884C1118.73 795.121 1115.99 794.863 1114.96 794.502C1114.77 794.379 1116.09 794.57 1117.95 794.882C1118.62 795.004 1118.74 795.052 1118.86 795.101" stroke="black" stroke-width="2" stroke-linecap="round"/>
<path d="M967.402 727.926C967.69 726.337 968.851 722.559 972.765 717.765C977.722 712.657 980.912 711.204 983.683 710.545C984.412 710.471 985.276 710.471 986.166 710.471" stroke="black" stroke-width="2" stroke-linecap="round"/>
<path d="M950.821 725.744C950.821 723.148 951.397 717.322 952.487 713.833C954.383 707.771 958.221 705.252 967.221 700.742C972.026 698.335 974.803 697.241 977.936 696.219C979.603 696.071 981.213 695.927 982.664 695.709C983.395 695.635 984.115 695.635 984.857 695.635" stroke="black" stroke-width="2" stroke-linecap="round"/>
<path d="M349.835 808.437C350.957 809.556 356.797 816.3 360.559 819.898C362.959 822.193 365.643 821.656 367.223 821.32C369.973 820.736 370.389 817.595 372.59 815.677C376.107 812.612 378.631 811.162 380.335 809.459C381.804 807.99 382.712 806.187 384.343 804.77C384.854 804.485 385.302 804.261 386.779 803.353" stroke="black" stroke-width="2" stroke-linecap="round"/>
<path d="M348.819 808.098C350.395 807.874 353.543 807.197 356.604 806.014C359.563 804.87 367.169 801.679 373.037 799.125C378.354 796.811 381.899 795.564 386.088 794.263C387.374 793.863 388.467 793.524 389.372 793.748C392.007 794.399 385.769 799.618 384.468 801.031C384.183 801.428 383.96 801.875 383.509 802.441C383.058 803.007 382.387 803.678 381.356 805.387" stroke="black" stroke-width="2" stroke-linecap="round"/>
<path d="M388.887 795.428C388.679 796.054 386.594 799.253 384.833 801.231C382.911 803.391 381.544 805.919 380.669 807.351C379.73 808.888 378.606 810.184 377.347 811.376C376.051 812.605 374.483 814.239 373.148 815.4C371.934 816.456 371.049 817.95 369.826 819.003C368.158 820.438 365.533 823.261 364.259 824.567C362.922 825.939 369.278 820.704 371.076 818.906C372.476 817.506 375.432 814.898 377.72 812.856C379.994 810.826 381.112 808.459 382.304 806.316C384.266 802.788 386.851 800.965 388.078 799.422C388.257 799.07 388.257 798.724 388.326 798.407C388.395 798.09 388.534 797.813 388.677 797.317" stroke="black" stroke-width="2" stroke-linecap="round"/>
<path d="M350.055 810.541C350.891 811.376 352.289 812.636 353.827 813.999C355.325 815.327 357.322 816.481 360.33 819.59C361.457 821.172 362.366 822.222 363.237 823.093C363.762 823.618 364.454 824.31 365.168 825.024" stroke="black" stroke-width="2" stroke-linecap="round"/>
<path d="M352.252 809.199C352.509 809.122 352.767 809.045 354.327 808.606C355.888 808.167 358.744 807.37 360.343 806.908C361.943 806.445 362.201 806.342 362.642 806.212C363.083 806.082 363.701 805.927 365.408 805.218C367.116 804.508 369.894 803.247 371.917 802.43C373.941 801.614 375.124 801.279 375.837 801.055C376.767 800.763 377.816 800.34 379.424 799.718C380.897 799.149 382.184 798.338 383.288 797.936C384.197 797.604 384.918 797.064 385.45 796.635C385.977 796.209 386.582 796.231 386.699 796.269C386.915 796.339 386.223 797.135 385.484 798.403C384.463 800.157 384.011 801.505 383.739 801.932C382.921 803.217 381.985 804.208 381.056 804.982C380.324 805.592 379.097 806.682 378.281 807.458C376.473 809.175 375.958 810.517 375.513 811.328C375.056 812.162 374.346 813.144 373.863 813.732C373.475 814.205 373.173 814.68 372.746 815.252C372.196 815.988 371.514 816.55 370.824 817.02C369.886 817.658 369.408 818.24 368.887 818.567C368.422 818.858 367.873 819.306 367.392 819.58C366.869 819.878 366.263 820.217 365.755 820.477C365.153 820.786 363.515 820.972 362.624 820.804C361.886 820.665 361.195 819.857 360.688 819.414C359.862 818.694 359.428 817.831 358.907 817.231C358.155 816.366 357.53 814.454 357.295 813.814C357.074 813.214 356.077 812.478 355.58 811.904C355.131 811.384 354.493 810.067 353.581 809.317C353.417 809.181 353.166 809.277 353.06 809.354C352.954 809.431 352.954 809.586 353.005 809.729C353.204 810.284 353.705 810.523 354.135 810.732C354.357 810.84 354.642 810.835 354.888 810.952C355 811.006 355.109 810.992 355.226 810.786C355.555 810.209 355.682 809.59 355.953 809.151C356.405 808.419 357.289 807.489 358.351 806.516C359.928 805.073 360.644 805.249 361.228 805.184C362.204 805.075 363.057 804.73 363.776 804.535C364.402 804.365 365.372 803.847 366.037 803.599C366.874 803.286 368.539 802.626 370.204 801.795C370.903 801.446 371.765 801.171 372.685 800.704C373.505 800.289 374.44 799.742 375.697 799.236C377.057 798.689 378.005 798.492 378.342 798.414C379.706 798.101 381.876 797.557 382.423 797.401C382.939 797.253 383.435 797.089 384.06 797.023C384.637 796.963 385.099 796.777 385.89 796.479C386.183 796.369 386.601 796.285 386.736 796.206C386.849 796.14 386.351 795.971 386.05 795.842C385.364 795.548 387.362 795.295 387.453 795.295C388.357 795.291 385.26 795.996 384.831 796.204C384.301 796.46 383.96 797.187 383.237 798.945C382.73 800.177 381.793 802.04 381.278 803.175C380.763 804.31 380.66 804.644 380.568 804.881C380.423 805.256 380.937 803.706 381.886 801.095C382.226 800.16 382.242 800.002 382.153 800.051C382.063 800.1 381.857 800.358 381.069 801.661C380.282 802.964 378.918 805.305 378.177 806.64C377.436 807.975 377.359 808.232 377.1 808.879C376.427 810.565 375.799 811.873 375.565 812.199C375.504 812.284 375.486 812.138 375.898 810.953C376.309 809.767 377.133 807.529 377.595 806.196C378.403 803.868 378.656 803.016 378.915 802.172C378.977 801.97 379.071 801.847 379.059 801.781C379.047 801.714 378.945 801.714 378.493 802.46C378.041 803.206 377.243 804.699 376.459 806.484C375.675 808.269 374.929 810.301 374.519 811.4C374.109 812.498 374.058 812.601 375.189 810.635C376.32 808.668 378.636 804.629 379.906 802.368C381.176 800.107 381.33 799.746 381.461 799.471C381.592 799.195 381.695 799.015 381.375 799.321C380.266 800.382 379.386 801.452 378.998 802.034C378.406 802.92 378.008 803.636 377.749 803.934C377.45 804.278 376.894 805.653 376.192 807.42C375.942 808.05 375.954 808.157 376.365 807.207C376.777 806.257 377.6 804.25 378.14 802.753C378.68 801.256 378.912 800.33 378.992 799.891C379.073 799.452 378.996 799.53 378.429 800.393C377.862 801.256 376.807 802.902 376.173 803.931C375.54 804.959 375.36 805.319 375.035 806.212C374.711 807.106 374.248 808.521 373.932 809.404C373.229 811.372 372.862 812.703 372.784 813.469C372.74 813.899 373.323 812.386 374.271 809.415C374.983 807.182 375.018 805.824 375.031 805.253C375.045 804.616 375.252 804.056 375.317 803.445C375.337 803.251 375.33 802.993 375.279 802.847C375.227 802.702 375.124 802.676 374.595 804.078C374.066 805.48 373.114 808.31 372.611 809.961C371.997 811.974 371.85 812.987 371.512 814.013C371.289 814.691 371.173 815.2 371.004 815.731C370.911 816.023 370.912 816.39 370.951 815.418C370.989 814.446 371.092 812.13 371.248 810.423C371.404 808.716 371.61 807.686 371.716 806.95C371.955 805.286 371.978 804.655 372.029 804.006C372.048 803.763 372.183 803.716 372.301 803.728C372.418 803.741 372.547 803.818 372.664 804.038C372.957 804.585 372.991 805.735 373.017 806.158C373.036 806.481 373.094 804.42 373.03 803.716C372.967 803.013 372.787 803.065 372.475 803.657C372.164 804.25 371.726 805.382 371.372 806.441C371.019 807.5 370.761 808.452 370.603 810.139C370.445 811.826 370.393 814.218 370.367 814.55C370.34 814.883 370.34 813.082 370.302 811.974C370.263 810.866 370.186 810.506 370.146 809.548C370.042 807.049 370.081 805.302 370.016 805.017C369.986 804.884 369.925 804.783 370.015 806.608C370.104 808.433 370.336 812.19 370.468 814.176C370.6 816.163 370.626 816.266 370.433 815.367C370.24 814.468 369.829 812.564 369.552 811.429C368.963 809.409 368.653 808.218 368.303 807.166C368.158 806.783 368.081 806.706 368.001 806.626" stroke="black" stroke-width="2" stroke-linecap="round"/>
<path d="M355.995 810.836C356.149 810.887 356.82 811.274 358.579 812.553C359.78 813.427 361.469 814.938 362.718 815.9C364.619 817.364 365.609 817.877 365.586 818.15C365.518 818.947 363.538 818.165 362.126 817.856C360.411 817.479 359.427 816.736 358.678 816.272C358.087 815.905 357.055 815.292 357.76 815.45C358.465 815.608 360.934 816.56 362.451 817.115C364.441 817.843 365.064 817.956 365.001 818.008C364.534 818.394 362.635 817.932 360.981 817.969C360.181 817.986 362.615 819.488 363.577 819.787C363.911 819.891 363.972 819.752 363.793 819.57C363.613 819.389 363.202 819.131 362.81 818.986C362.417 818.841 362.057 818.815 362.232 819.059C362.915 820.013 364.152 820.451 364.632 820.619C364.829 820.688 364.933 820.711 364.651 820.158C364.37 819.605 363.701 818.473 362.713 817.337C361.725 816.201 360.439 815.094 359.236 814.164C357.007 812.441 355.684 811.694 355.913 812.015C356.235 812.464 357.223 813.287 358.292 814.072C359.361 814.857 360.545 815.526 361.36 815.909C362.546 816.467 363.14 816.449 363.374 816.372C363.497 816.331 363.556 816.141 363.583 815.984C363.635 815.677 363.3 815.128 362.576 814.183C361.535 812.825 360.159 811.698 359.095 810.906C358.633 810.563 358.288 810.398 358.065 810.292C357.841 810.186 357.738 810.161 358.611 811.022C359.484 811.884 361.337 813.633 362.703 814.779C364.069 815.925 364.892 816.414 365.959 816.871C367.027 817.329 368.313 817.741 369.195 817.965C370.076 818.19 370.513 818.216 368.462 816.956C366.41 815.695 361.856 813.148 359.459 811.823C357.061 810.498 356.958 810.473 356.982 810.485C357.007 810.498 357.161 810.549 358.475 811.399C359.79 812.249 362.26 813.895 364.317 814.949C366.374 816.003 367.944 816.415 368.881 816.627C370.064 816.895 370.52 816.814 370.767 816.723C370.855 816.691 370.783 816.555 369.187 815.808C367.591 815.06 364.452 813.671 362.655 812.904C360.858 812.136 360.498 812.033 360.261 811.968C360.024 811.902 359.921 811.876 361.013 812.069C362.105 812.261 364.395 812.673 365.69 812.885C366.985 813.097 367.217 813.097 365.69 812.698C364.162 812.299 360.869 811.502 358.941 811.078C357.013 810.654 356.55 810.628 359.051 810.757C361.553 810.885 367.033 811.168 367.759 810.979C368.485 810.791 364.292 810.122 361.668 809.777C359.045 809.433 358.118 809.433 358.091 809.471C358.065 809.51 358.965 809.587 360.188 809.588C361.411 809.589 362.929 809.512 364.213 809.356C366.515 809.077 367.842 808.551 368.542 808.175C368.926 807.968 369.395 807.773 369.544 807.654C369.659 807.562 368.555 807.586 366.138 808.128C364.476 808.501 361.996 809.339 360.248 809.955C357.536 810.911 356.515 811.537 356.758 811.551C357.109 811.571 357.902 811.282 358.904 810.79C359.907 810.298 361.09 809.526 362.266 808.537C363.442 807.547 364.574 806.364 365.26 805.69C365.946 805.016 366.152 804.887 366.207 804.834C366.246 804.795 365.28 805.296 363.532 806.499C362.522 807.194 361.398 808.243 360.608 808.863C358.752 810.32 357.4 810.394 356.998 810.433C356.828 810.449 356.724 810.446 357.739 809.983C358.754 809.52 360.889 808.594 362.324 808.026C363.758 807.459 364.427 807.279 365.685 807.032C368.761 806.428 370.755 806.106 369.985 806.26C369.105 806.435 367.259 806.928 365.353 807.553C363.447 808.177 361.543 808.949 361.488 808.781C361.433 808.612 363.286 807.48 364.549 806.756C366.399 805.694 367.452 805.328 368.139 805.056C368.686 804.839 369.065 804.496 369.428 804.301C369.702 804.155 368.276 805.056 365.925 806.641C365.082 807.209 364.989 807.351 366.171 806.812C367.353 806.274 369.823 805.065 371.764 804.172C373.705 803.279 375.043 802.738 375.797 802.447C376.55 802.156 376.679 802.13 376.809 802.117C376.94 802.104 377.069 802.104 376.955 802.232C376.841 802.361 376.481 802.618 375.086 803.227C373.691 803.835 371.273 804.787 371.416 804.905C371.56 805.022 374.338 804.276 375.924 803.891C377.51 803.507 377.819 803.507 377.952 803.559C378.085 803.61 378.034 803.713 376.258 805.155C374.482 806.598 370.983 809.376 369.103 810.936C367.223 812.497 367.069 812.754 366.989 812.964C366.91 813.173 366.91 813.328 367.026 813.214C367.46 812.789 368.177 811.108 369.164 808.877C369.949 807.101 370.106 806.056 370.042 805.783C369.993 805.575 369.382 805.87 368.708 806.323C367.941 806.839 367.484 807.919 367.185 809.137C366.882 810.372 367.401 812.022 367.907 813.683C368.268 814.872 368.857 815.511 369.259 815.888C369.422 816.041 369.533 816.085 369.663 816.085C369.952 816.087 370.364 814.747 370.676 812.554C370.903 810.966 370.341 810.161 370.121 809.979C370.004 809.882 369.773 809.952 369.538 810.119C368.981 810.517 368.575 811.711 368.315 813.242C368.191 813.966 368.363 814.617 368.519 815.026C368.675 815.434 368.881 815.589 369.283 815.501C370.337 815.271 371.272 813.937 371.87 812.522C372.123 811.922 372.107 811.494 371.953 811.23C371.799 810.967 371.465 810.864 371.086 810.914C370.263 811.022 369.332 812.051 368.398 813.463C366.857 815.791 367.507 817.018 367.624 817.576C367.671 817.804 367.766 817.903 367.921 817.788C368.399 817.438 368.573 816.686 368.573 816.18C368.573 815.981 368.471 815.905 368.276 815.968C366.829 816.439 365.796 818.932 365.662 819.763C365.423 821.231 368.207 816.687 368.455 816.115C368.527 815.948 367.54 816.728 366.295 818.321C365.06 819.902 364.935 821.229 364.947 821.464C364.951 821.53 365.088 821.441 365.785 820.243C366.481 819.046 367.767 816.73 369.073 814.727C370.379 812.723 371.666 811.103 372.406 810.203C373.271 809.151 374.308 808.811 375.659 808.435C376.592 808.174 377.43 808.417 377.941 808.678C378.032 808.859 378.059 809.145 378.085 809.469C378.11 809.613 378.162 809.716 378.293 809.978" stroke="black" stroke-width="2" stroke-linecap="round"/>
<path d="M363.582 783.241C363.582 784.874 363.636 787.072 363.881 787.455C365.203 789.522 369.93 787.733 373.944 787.65C374.807 787.622 375.024 787.568 375.867 787.54C376.711 787.512 378.175 787.512 379.683 787.512" stroke="black" stroke-width="2" stroke-linecap="round"/>
<path d="M362.596 783.569C362.813 783.569 365.744 783.569 370.206 783.596C373.014 783.614 374.527 784.335 376.145 784.691C377.284 784.941 378.362 785.538 379.488 785.896C380.393 786.252 381.05 786.471 381.487 786.635C381.707 786.691 381.924 786.691 381.983 786.855" stroke="black" stroke-width="2" stroke-linecap="round"/>
<path d="M363.358 783.147C363.379 782.98 363.421 782.688 363.452 782.531C363.484 782.37 363.754 782.228 364.025 782.05C364.24 781.91 364.548 781.892 365.016 781.934C365.68 781.992 366.8 782.392 368.022 782.778C369.247 783.166 370.772 783.459 371.655 783.689C372.2 783.832 373.405 784.169 375.021 784.534C375.806 784.711 376.534 784.796 377.663 785.004C378.791 785.213 380.302 785.523 381.256 785.683C382.21 785.843 382.562 785.843 382.691 785.885C382.984 785.978 382.216 786.448 381.704 786.689C380.811 787.109 379.936 787.327 379.221 787.535C378.612 787.711 377.491 787.99 376.357 788.212C375.222 788.434 374.105 788.579 373.27 788.653C371.922 788.774 370.64 788.831 369.47 788.988C368.964 789.056 368.753 789.062 368.109 789.094C366.681 789.163 365.307 788.918 364.607 788.625C364.039 788.388 363.61 788.165 363.162 787.593C362.019 786.134 362.314 785.261 362.303 784.539C362.334 784.195 362.458 783.735 362.636 783.254C362.71 783.064 362.751 782.981 362.919 782.833" stroke="black" stroke-width="2" stroke-linecap="round"/>
<path d="M362.041 781.516C362.041 781.619 362.041 781.723 362.021 782.593C362 783.464 361.959 785.099 361.948 785.983C361.932 787.201 362.207 788.364 362.355 789.04C362.373 789.124 362.396 789.207 362.448 789.27C362.5 789.333 362.583 789.375 363.288 789.355C363.993 789.335 365.317 789.252 366.682 789.166" stroke="black" stroke-width="2" stroke-linecap="round"/>
<path d="M361.226 781.014C362.055 781.221 363.732 781.683 364.828 781.975C365.092 782.038 365.257 782.059 365.384 782.07C365.511 782.08 365.593 782.08 365.679 782.143" stroke="black" stroke-width="2" stroke-linecap="round"/>
<path d="M365.679 782.143C365.679 782.164 365.679 782.184 365.679 782.443C365.679 782.702 365.679 783.199 365.491 783.711" stroke="black" stroke-width="2" stroke-linecap="round"/>
<path d="M365.491 783.711C365.491 784.5 365.532 785.675 365.677 785.832C365.883 786.053 366.697 785.99 368.33 785.7C369.397 785.51 370.895 784.995 371.808 784.761C373.395 784.353 373.934 784.672 374.435 784.839C374.562 784.881 374.665 784.923 374.76 784.944C374.855 784.965 374.937 784.965 372.962 785.048C370.987 785.131 366.952 785.296 365.1 785.454C363.249 785.612 363.704 785.757 364.353 785.873C365.001 785.989 365.829 786.071 368.263 786.052C370.697 786.033 374.712 785.908 376.821 785.855C378.931 785.801 379.014 785.822 378.943 785.884C378.871 785.947 378.644 786.05 377.212 786.186C375.781 786.322 373.153 786.488 371.447 786.532C369.741 786.576 369.038 786.493 368.416 786.45C366.542 786.322 366.014 786.595 365.806 786.71C365.703 786.766 365.597 786.804 365.689 786.898C366.07 787.136 366.679 787.368 367.242 787.494C367.495 787.536 367.682 787.536 367.874 787.536" stroke="black" stroke-width="2" stroke-linecap="round"/>
<path d="M495.513 811.468C498.312 810.332 505.205 806.802 509.312 802.832C511.82 800.409 512.985 799.117 514.309 797.396C515.636 795.495 516.693 794.086 517.402 792.06C517.492 791.093 517.492 789.52 517.757 787.37" stroke="black" stroke-width="2" stroke-linecap="round"/>
<path d="M498.426 826.562C499.565 826.213 502.213 824.979 504.376 823.083C506.008 821.653 509.002 819.778 510.91 818.533C513.316 816.964 516.422 814.916 518.06 813.855C519.84 812.703 521.369 810.684 522.959 808.828C524.946 806.509 526.565 800.568 527.862 796.516C528.35 793.119 528.437 790.288 528.569 789.013C528.614 788.263 528.614 787.301 528.614 786.311" stroke="black" stroke-width="2" stroke-linecap="round"/>
<path d="M1198.26 13.2334C1197.23 16.8572 1195.14 25.1671 1191.77 38.1707C1188.27 51.6863 1183.7 59.5311 1179.28 68.9109C1174.32 76.2133 1171.72 83.4922 1168.87 89.2091C1167.55 91.8333 1166.52 93.8951 1165.46 97.5814" stroke="#41464A" stroke-width="2" stroke-linecap="round"/>
<path d="M1202.27 14.666C1199.33 21.3864 1195.09 33.2296 1190.46 43.361C1183.61 58.3346 1179.04 67.4657 1174.18 75.0801C1168.95 83.2793 1161.72 90.7209 1156.43 98.1134C1149.62 107.636 1139.75 120.697 1130.45 133.37C1113.87 155.974 1111.02 171.391 1104.65 181.802C1100.32 188.883 1094.51 195.103 1088.38 202.514C1081.76 210.513 1076.76 221.3 1069.79 230.195C1063.89 237.721 1061.95 246.254 1057.73 254.287C1053.41 262.52 1048.86 269.078 1044.63 276.686C1038.55 287.607 1031.97 296.949 1014.04 325.631C1001.11 346.304 996.876 359.538 993.902 366.296C989.635 375.995 980.417 389.057 973.836 399.683C967.008 410.708 962.639 419.54 957.77 426.951C952.424 435.089 945.75 450.758 940.018 465.606C935.409 477.548 928.403 490.117 921.22 500.908C916.362 508.205 913.187 516.745 908.318 523.326C904.717 530.718 901.763 537.489 899.442 540.862C898.377 542.561 897.54 544.235 894.142 547.228" stroke="#41464A" stroke-width="13" stroke-linecap="round"/>
<path d="M1459.67 45.0981C1454.19 53.5304 1445.77 62.7995 1438.35 70.4329C1432.36 76.5943 1426.32 84.7867 1411.54 99.5652C1401.58 109.534 1395.87 119.023 1391.22 126.225C1386.63 133.337 1371.04 148.948 1359.52 158.565C1351.37 165.374 1344.74 173.978 1337.13 182.011C1329.44 190.114 1317.73 204.359 1304.18 217.084C1295.19 225.523 1285.6 236.896 1279.21 246.476C1273.49 255.051 1263.99 262.738 1254.95 271.595C1231.74 294.314 1224.28 302.046 1219.19 307.765C1214.28 313.274 1209.9 322.74 1200.83 333.106C1191.16 344.151 1183.7 348.557 1176.93 353.204C1169.95 357.994 1164.25 364.179 1159.17 369.897C1153.88 375.854 1149.04 381.931 1142.91 386.388C1137.05 390.644 1130.45 395.042 1122.41 400.12C1114.18 405.327 1107.62 411.526 1102.11 416.814C1096.13 422.556 1091.98 430.115 1085.64 436.677C1079.66 442.858 1072.96 447.03 1065.35 453.161C1056.76 460.089 1044.68 471.503 1037.45 479.789C1032.23 485.761 1026.88 492.247 1020.97 497.757C1015.02 503.303 1008.72 508.731 1000.9 516.555C997.307 520.143 994.327 523.123 991.588 525.862C990.104 527.345 988.431 529.019 986.706 530.744" stroke="#41464A" stroke-width="13" stroke-linecap="round"/>
<path d="M16.4999 38.0425C18.4804 42.0235 37.0253 59.248 50.1487 74.0119C58.6345 83.5586 66.473 94.0171 77.4759 105.68C86.6957 115.453 95.8007 127.346 109.804 141.35C121.502 153.047 131.81 167.997 143.823 181.7C155.252 194.738 166.499 210.048 182.473 226.022C200.508 244.056 211.191 257.38 221.174 267.062C238.589 283.954 254.522 300.071 264.195 308.743C274.987 318.42 283.85 329.399 296.523 339.752C308.166 349.263 317.859 355.446 331.532 367.409C342.773 377.243 349.227 389.415 355.229 399.767C361.981 411.415 374.554 418.102 385.557 424.784C397.921 432.292 406.562 450.751 414.574 461.113C423.927 473.21 430.568 483.439 438.581 493.792C447.378 505.16 461.897 517.448 472.249 528.131C481.976 538.168 490.584 548.136 498.926 555.818C507.949 562.82 512.61 570.162 513.3 571.512C512.01 570.882 507.389 567.581 502.627 564.18" stroke="#41464A" stroke-width="15" stroke-linecap="round"/>
<path d="M1016 622.611C1049.8 590.548 1080.3 565.891 1090.26 562.662C1102.68 558.631 1110.74 552.448 1118.05 542.507C1124.86 533.255 1137.62 529.634 1148.17 524.062C1160.33 517.637 1172.12 510.926 1184.14 503.301C1193.96 497.075 1204.31 488.709 1218.64 477.582C1237.25 463.131 1247.62 455.926 1259.6 447.441C1270.68 439.591 1280.37 433.112 1291.2 422.881C1302.34 412.349 1315.47 402.12 1330.95 389.835C1343.55 379.846 1354.08 370.531 1363.74 362.616C1373.86 354.323 1385.07 349.471 1398.53 341.846C1410.86 334.861 1423.08 331.325 1433.65 327.21C1438.31 324.305 1443.02 320.778 1447.69 317.277C1450.04 315.513 1452.35 313.776 1460 308.476" stroke="#8F7566" stroke-width="15" stroke-linecap="round"/>
<path d="M12.0469 539.704C18.6275 542.52 28.9725 548.167 39.1334 550.311C49.8225 552.566 58.6912 558.073 67.4441 559.983C77.5848 562.197 87.476 567.526 110.296 575.748C144.797 588.18 171.424 602.396 180.658 607.618C189.483 612.609 200.209 617.51 210.137 624.353C219.113 630.539 233.664 636.361 249.04 642.991C261.256 648.259 273.346 652.437 281.37 655.734C291.454 659.878 302.102 662.796 312.263 667.997C317.239 670.544 322.891 670.834 326.429 671.082C327.811 671.179 327.632 668.061 326.931 666.157C325.579 662.482 321.518 659.541 317.754 656.01C306.31 645.276 279.091 648.701 270.82 646.79C257.483 643.71 240.429 631.719 226.263 624.876C213.801 618.857 198.001 610.972 184.034 606.231C170.073 601.493 152.659 592.547 142.052 590.19C127.124 586.874 106.043 576.555 90.3983 570.618C80.2011 566.749 72.475 558.611 63.2622 552.462C54.6037 546.683 45.1054 542.081 37.0814 539.477C26.4923 536.041 18.2171 531.694 11.8346 527.455C10.2422 526.398 8.31081 526.033 8.2825 526.26C7.38409 533.447 25.208 532.147 37.2229 537.553C59.0392 547.369 67.2106 549.582 82.5016 558.066C97.491 566.383 109.156 569.394 123.768 576.463C140.589 584.601 159.155 592.023 176.54 601.193C199.674 613.396 225.159 623.61 242.367 633.509C257.482 642.204 276.119 651.928 291.248 660.192C311.103 673.665 318.631 677.429 325.955 681.441C327.618 682.623 329.019 684.024 330.462 685.467" stroke="#524235" stroke-width="15" stroke-linecap="round"/>
<path d="M640.296 617.606C641.01 617.606 646.373 617.606 654.476 618.32C657.653 618.599 658.655 620.46 659.206 622.266C660.37 626.077 660.114 629.845 660.655 641.105C661.999 669.103 661.196 689.666 661.736 693.618C662.913 702.22 663.001 729.443 662.104 755.537C661.305 778.753 661.563 795.978 661.023 805.465C659.894 825.268 660.482 840.663 659.941 860.146C659.47 877.125 659.758 908.528 659.936 925.416C660.471 943.731 661.196 947.699 661.736 966.468C661.92 982.74 661.92 1012.71 661.92 1043.59" stroke="#382F29" stroke-width="15" stroke-linecap="round"/>
<path d="M1281.94 1044.68C1283.28 1036.65 1286.98 1022.49 1291.7 1006.62C1293.83 999.465 1297.78 987.363 1304.36 968.808C1311.5 948.656 1317.39 936.998 1321.28 927.326C1323.97 920.644 1328.19 916.001 1332.93 910.934C1338.2 905.299 1344.4 902.159 1351.66 895.065C1357.75 889.118 1361.98 884.587 1367.04 881.035C1375.54 875.081 1387.27 865.009 1396.42 860.595C1403.3 857.277 1409.26 856.881 1415.51 856.025C1421.49 855.206 1431.51 854.165 1441 853.324C1447.38 853.152 1452.84 852.818 1458.05 852.311C1461.59 852.139 1466.94 852.139 1472.45 853.152" stroke="#011843" stroke-width="15" stroke-linecap="round"/>
<path d="M989.076 1048.73C989.41 1045.37 990.089 1038.64 990.93 1031.7C991.929 1023.46 995.136 1002.58 997.851 991.837C999.5 985.314 1001.9 979.175 1003.76 973.429C1006.48 965.01 1012.02 957.57 1017.26 947.264C1020.57 940.765 1025.54 935.944 1032.96 927.665C1039.1 920.811 1049.49 914.988 1057.11 909.582C1064.91 904.047 1074.85 901.47 1081.6 897.923C1089.72 895.379 1095.78 893.363 1109.41 891.832C1116.64 891.66 1128.68 891.66 1141.08 891.66" stroke="#011843" stroke-width="15" stroke-linecap="round"/>
<path d="M14.0563 865.803C22.6519 867.357 46.0837 870.513 65.4179 874.422C78.3441 877.035 90.9221 883.041 103.498 891.672C115.951 900.219 123.138 912.054 131.38 926.584C138.583 939.282 144.333 953.643 150.62 968.973C155.97 982.017 159.263 994.478 162.407 1007.05C166.067 1021.7 166.328 1039.22 167.906 1052.96C168.683 1057.28 170.237 1062.72 171.426 1067.08C172.616 1071.44 173.393 1074.55 174.193 1082.46" stroke="#011843" stroke-width="15" stroke-linecap="round"/>
<path d="M299.711 872.629C303.185 872.629 311.352 872.051 318.065 871.609C325.672 871.108 332.656 869.723 358.533 869.561C376.266 869.45 383.123 872.331 401.898 872.917C409.878 873.167 414.93 875.832 422.944 879.613C433.593 884.638 443.517 893.897 448.055 898.143C451.727 901.577 455.473 910.212 462.05 920.295C466.662 927.364 468.917 933.582 471.109 939.853C473.341 946.237 475.621 953.415 477.674 960.273C478.256 962.177 479.122 964.199 479.569 978.671C480.015 993.144 480.015 1020.01 480.015 1047.68" stroke="#011843" stroke-width="15" stroke-linecap="round"/>
<path d="M511.525 882.256C519.358 882.256 531.043 883.412 538.194 886.475C543.782 888.869 549.424 892.742 554.833 897.845C559.109 901.879 562.273 907.902 567.231 915.923C571.019 922.051 573.651 926.877 576.286 931.98C580.905 940.927 583.297 956.619 584.749 967.975C585.336 986.107 585.922 999.437 586.649 1016.08C586.798 1023.91 586.798 1037.77 585.922 1052.06" stroke="#011843" stroke-width="15" stroke-linecap="round"/>
<path d="M1002.84 7.83594C1002.84 14.3917 1000.97 29.4995 996.719 38.2429C990.992 50.0306 985.873 58.2994 982.786 66.094C978.992 75.675 977.349 86.1364 974.998 94.4125C972.326 103.821 971.685 117.258 970.51 128.848C968.623 147.458 966.503 157.867 965.554 167.566C964.746 175.826 958.97 184.77 954.708 193.293C951.011 200.689 944.811 208.84 939.14 220.89C935.077 229.523 931.586 238.575 927.806 247.332C924.1 255.916 921.675 263.608 917.186 271.169C913.235 277.825 912.698 286.263 909.632 294.057C906.339 302.432 903.749 310.333 901.838 317.894C899.816 325.892 895.707 332.988 893.583 342.192C891.162 352.681 886.277 362.694 881.321 375.459C877.376 385.62 873.987 393.873 870.227 401.667C866.234 409.947 862.688 419.812 855.134 443.614C851.787 454.16 849.463 461.837 847.091 469.398C844.759 476.835 843.318 485.426 842.603 496.994C842.369 499.614 841.902 501.483 841.661 506.651C841.42 511.819 841.42 520.23 842.836 527.479" stroke="#8F7566" stroke-width="15" stroke-linecap="round"/>
<path d="M488.538 11.9346C489.888 16.9125 495.33 27.7821 497.396 36.4559C499.355 44.6797 503.513 56.8585 506.486 66.6848C509.071 75.2287 513.059 84.162 518.296 100.064C523.053 114.508 526.261 126.44 529.214 136.007C532.254 145.861 536.244 156.908 539.217 164.654C542.394 172.93 546.254 185.521 552.385 200.993C557.081 212.847 561.72 219.643 564.898 227.615C568.603 236.911 571.267 246.019 572.18 253.302C573.292 262.161 576.258 272.832 580.568 292.518C593.082 349.684 597.616 359.652 600.589 370.576C603.594 381.618 607.626 391.483 610.135 400.362C612.433 408.491 617.636 415.132 622.171 424.453C626.393 433.133 633.975 445.108 639.219 456.039C645.696 469.542 650.804 478.304 655.134 486.739C660.364 495.61 664.006 502.429 665.82 506.739C666.734 508.798 667.634 510.599 667.197 511.09" stroke="#8F7566" stroke-width="20" stroke-linecap="round"/>
<path d="M11.5448 296.971C17.8728 298.771 33.2839 305.127 46.7311 311.946C57.5048 317.409 65.1426 322.856 71.9821 328.093C79.8191 334.094 87.8909 340.122 95.8419 345.823C105.107 352.466 117.868 362.407 126.303 369.451C134.743 376.5 144.68 383.737 153.579 391.504C162.675 399.443 170.62 406.949 178.809 412.875C185.892 417.999 194.705 425.579 201.769 433.55C210.328 443.208 220.617 450.127 229.714 460.356C242.881 475.162 248.821 481.058 259.036 490.823C266.843 498.287 277.897 504.243 287.683 510.837C294.916 515.712 300.646 521.973 309.729 527.66C318.355 533.061 344.533 548.704 362.017 557.446C369.842 561.358 377.919 565.178 384.295 569.263C392.048 574.23 402.904 577.889 411.114 581.769C419.127 585.556 431.981 592.427 441.343 597.221C450.51 601.915 458.384 607.893 465.442 611.091C471.586 615.189 477.041 617.003 479.093 617.692C479.346 617.481 477.996 616.13 476.605 614.739" stroke="#8F7566" stroke-width="20" stroke-linecap="round"/>
<path d="M1263.86 842.496C1264.76 845.66 1267.49 851.115 1272.68 853.843C1283.28 859.415 1294.31 853.87 1308.28 852.507C1367.68 846.712 1375.21 849.779 1383.39 848.183C1397.93 847.051 1411.57 845.224 1430.61 842.96C1437.44 842.496 1445.99 842.496 1454.8 842.496" stroke="#8F7566" stroke-width="20" stroke-linecap="round"/>
<path d="M11.8857 852.042C17.3137 852.493 27.2968 855.206 35.4933 857.266C45.2244 859.711 52.3227 858.411 72.3844 857.73C90.187 857.124 123.5 857.498 142.007 857.273C160.514 857.048 163.214 856.598 171.356 856.366C179.498 856.134 193 856.134 206.911 853.406" stroke="#8F7566" stroke-width="20" stroke-linecap="round"/>
<path d="M1309.94 220.028C1314.89 214.688 1324.07 205.534 1329.26 199.183C1333.8 193.631 1340.15 186.377 1346.67 180.807C1353.98 174.567 1361.21 166.462 1367.34 163.188C1374.39 159.425 1378.44 152.289 1383.62 147.31C1390.56 140.633 1396.81 132.397 1401.61 126.826C1406.85 120.758 1412.14 112.481 1416.92 106.159C1422.51 98.7858 1428.21 92.9567 1433 87.0132C1438.56 81.8391 1442.77 77.2451 1448.1 72.4845C1451.54 69.2399 1456.47 64.3128 1461.54 59.2363" stroke="#41464A" stroke-width="20" stroke-linecap="round"/>
<path d="M1165.94 694.591C1173.68 688.776 1187.91 678.449 1200.57 666.75C1209.13 658.847 1221.64 658.3 1232.34 653.447C1244.92 647.747 1254.7 641.457 1264.76 637.558C1275.42 633.431 1285.82 624.615 1298.46 620.054C1312.67 614.926 1322.11 607.733 1331.54 601.908C1340.72 596.242 1351.94 592.835 1363.94 587.963C1374.41 583.715 1385.01 581.788 1400.56 576.304C1413.45 571.755 1426.47 568.213 1439.79 563.973C1445.3 561.717 1453.08 557.827 1462.78 553.938C1467.35 552.615 1471.2 552.615 1475.17 552.615" stroke="#524235" stroke-width="20" stroke-linecap="round"/>
<defs>
<filter id="filter0_d_0_1" x="803.88" y="666.169" width="31.6574" height="384.051" filterUnits="userSpaceOnUse" color-interpolation-filters="sRGB">
<feFlood flood-opacity="0" result="BackgroundImageFix"/>
<feColorMatrix in="SourceAlpha" type="matrix" values="0 0 0 0 0 0 0 0 0 0 0 0 0 0 0 0 0 0 127 0" result="hardAlpha"/>
<feOffset dy="4"/>
<feGaussianBlur stdDeviation="2"/>
<feComposite in2="hardAlpha" operator="out"/>
<feColorMatrix type="matrix" values="0 0 0 0 0 0 0 0 0 0 0 0 0 0 0 0 0 0 0.25 0"/>
<feBlend mode="normal" in2="BackgroundImageFix" result="effect1_dropShadow_0_1"/>
<feBlend mode="normal" in="SourceGraphic" in2="effect1_dropShadow_0_1" result="shape"/>
</filter>
</defs>
</svg>
