<svg viewBox="0 0 378 233" fill="none" xmlns="http://www.w3.org/2000/svg">
<path d="M25.3223 66.924C25.3223 67.1107 25.3223 67.2974 25.3223 68.0471C25.3223 68.7968 25.3223 70.1038 25.2796 70.9639C25.2369 71.8239 25.1516 72.1973 25.0637 72.5821" stroke="#808C8F" stroke-width="4" stroke-linecap="round"/>
<path d="M191.971 58.916C191.686 60.1631 190.822 58.831 190.606 72.7147C190.4 85.9732 190.533 111.853 190.746 126.197C190.991 142.581 191.828 148.709 191.971 155.474C192.128 162.94 192.977 169.513 193.266 174.398C193.409 175.664 193.694 176.911 193.841 180.359C193.987 183.808 193.987 189.42 193.987 195.202" stroke="#BCC0C1" stroke-width="14" stroke-linecap="round"/>
<path d="M170.384 53.4018C170.816 56.222 174.201 52.3649 173.622 57.1739C173.044 61.9829 174.275 73.9935 173.622 77.6121C172.283 85.0469 173.981 87.9859 173.622 91.7839C173.417 93.9657 174.054 99.3612 173.622 107.727C173.28 114.37 173.48 125.293 173.622 131.938C173.867 143.325 172.759 149.263 173.622 155.557C174.823 164.306 172.569 167.566 173.286 171.501C174.25 176.795 174.856 199.254 173.286 199.254C170.366 199.254 175.242 184.293 173.286 179.81C172.42 177.827 167.862 179.649 166.385 179.805C164.908 179.961 165.478 180.273 166.057 180.434C166.635 180.594 167.205 180.594 167.143 180.75C166.237 183.005 162.481 182.635 158.739 183.426C156.745 183.848 155.131 184.057 149.921 184.293C136.599 184.897 126.206 184.685 123.406 185.158C118.749 185.943 115.557 186.263 112.815 187.047C109.873 187.889 106.635 187.68 99.3263 188.464C85.5576 189.942 75.2447 188.937 73.377 189.487C70.2507 190.408 66.759 190.826 62.7278 191.379C58.0031 192.027 54.2356 192.555 46.5467 192.954C42.6972 193.154 45.5606 192.166 38.5 192.954C36.9911 193.123 28.757 196.164 28.2452 196.257C25.5182 196.747 28.0142 189.267 28.7375 185.961C29.3499 183.161 48.1311 181.897 49.5 178.5C50.471 176.091 32.1901 171.312 32.8379 163.583C33.4182 156.659 33.0581 143.54 33.1294 136.404C33.2084 128.486 33.4899 123.477 33.5612 116.554C33.6004 112.742 34.0643 110.845 34.2802 105.845C35.1654 85.3465 36.936 82.1943 39.024 79.1969C39.4915 78.5259 44.2169 76.0814 45.1497 75.8405C47.4544 75.2452 46.0004 78.5474 48.5137 80.6661C53.7225 85.057 52.3442 91.4627 52.8472 98.8769C53.307 105.653 53.2078 118.607 53.7088 126.597C54.3807 137.316 55.9457 141.059 56.0882 143.258C56.658 152.051 56.5244 163.739 56.235 164.996C56.0937 165.61 56.5157 166.252 57.2326 166.574C60.9992 168.261 65.4246 168.151 79.209 168.624C90.851 169.023 111.947 168.784 124.38 168.395C139.978 167.906 144.033 166.422 145.898 166.344C148.058 166.254 150.221 165.638 152.017 165.01C158.109 162.88 158.292 147.385 159.08 144.624C160.42 139.931 162.611 132.126 163.327 126.602C163.571 124.722 163.902 122.504 164.55 115.935C165.927 101.963 164.912 91.3257 165.271 88.8881C165.524 87.164 166.208 85.8081 166.424 79.3269C166.614 73.6283 166.497 63.0245 166.568 57.1739C166.649 50.5403 165.048 53.0452 164.55 49.2684C163.996 45.0778 158.866 40.9353 156.349 38.6395C153.302 35.8608 150.821 31.1661 147.652 30.219C144.545 29.2907 141.606 28.0105 137.939 26.6784C133.738 25.1519 128.815 24.7038 124.764 23.9196C121.913 23.3677 118.148 22.663 116.332 22.3418C113.273 21.8007 133.91 23.9975 137.939 23.9196C142.16 23.8379 124.384 19.9798 117.932 19.3539C112.845 18.8603 109.796 17.7785 107.272 17.5399C104.463 16.8337 101.876 16.2006 98.9269 15.0244C97.9898 14.7835 96.6338 16.4415 95.891 15.0243" stroke="#BBC1C3" stroke-width="29" stroke-linecap="round"/>
<path d="M26.6154 65.5095C27.7326 65.5095 29.1085 65.1361 30.6615 64.2873C31.0493 64.0754 31.2654 63.631 31.3973 63.2052C31.5292 62.7794 31.5292 62.3126 31.1451 62.0722C30.1272 61.4348 28.7749 62.0184 28.299 62.3947C28.153 62.5101 28.5912 62.771 29.0658 62.7738C31.3697 62.7875 33.1585 60.8924 34.7994 60.2785C35.1862 60.1338 33.3184 59.8856 33.4503 59.5065C33.5822 59.1274 33.734 59.4857 34.5299 58.916C35.196 58.4392 34.3016 58.1539 33.8219 58.3406C32.2368 58.9575 30.3305 60.0593 29.2068 61C27.9946 62.0147 27.743 63.5235 26.4887 63.9054C25.2998 64.2674 30.0499 64.0044 31.7826 63.2957C32.1295 63.1539 33.646 63.1684 33.8219 64.2873C34.8016 70.521 32.5637 72.5709 32.349 75.441C31.7961 82.834 31.8757 84.5492 31.7025 86.3909C31.266 91.0301 30.9292 99.3509 30.5387 101.337C30.03 103.924 30.2361 106.61 30.0214 108.552C29.8087 110.477 29.5482 112.557 29.0309 114.397C28.2538 117.162 28.4257 120.654 27.7818 123.92C27.3873 125.921 27.3913 132.315 27.1766 138.471C26.9162 145.941 26.5622 152.062 26.4329 153.986C26.0682 159.411 25.8252 160.901 25.3533 162.843C24.9356 164.562 25.4102 166.592 25.0223 168.716C24.6583 170.708 24.2878 172.347 24.0305 174.327C23.9186 175.188 23.7706 180.509 23.6852 188.239C23.6385 192.474 22.824 194.131 22.4361 195.876C22.3389 196.313 22.1361 196.677 21.7921 197.009C21.4482 197.342 20.9361 197.622 20.5443 197.579C19.7968 197.498 19.6326 196.032 18.946 194.286C17.8344 191.461 19.2809 186.509 20.19 184.949C21.0428 183.485 22.0456 182.356 22.0895 181.834C22.2515 179.911 22.2214 188.18 21.7921 190.5C21.5953 191.563 20.6671 184.857 20.7525 176.326C20.8011 171.465 21.7016 169.631 21.9589 167.223C22.1568 165.372 22.3895 163.497 22.9494 161.659C23.5707 159.618 23.7654 157.839 24.1145 150.271C24.2887 146.495 24.7171 144.639 24.8477 140.825C24.9435 138.028 25.2343 135.399 25.4076 133.088C25.8759 126.841 26.0102 119.273 26.5275 117.149C27.1619 114.542 26.874 112.387 27.3887 109.845C28.7341 103.2 28.0792 97.3989 28.2951 94.6589C28.4037 93.2817 28.943 89.2143 29.071 83.327C29.1528 79.5645 29.7188 75.4396 29.8042 70.9625C29.8454 68.8018 30.2361 67.2183 30.0654 65.5208C30.0048 64.9179 29.5533 64.9437 29.2068 65.037C28.8602 65.1304 28.5188 65.3171 28.3003 65.6934C27.2963 67.422 27.6499 75.5301 27.6499 83.2902C27.6499 93.8076 28.1671 70.3359 28.1244 68.0231C28.111 67.295 27.7378 70.5905 27.2206 72.4337C26.6203 74.5725 26.53 75.7847 26.4007 79.7581C26.2836 83.3562 26.3568 90.1734 26.2714 93.9177C26.147 99.3754 25.6688 101.62 25.5382 103.459C25.3737 105.775 24.8102 109.711 24.5038 113.263C24.2796 115.861 23.9464 117.746 23.3413 121.651C22.9712 124.039 22.9947 125.95 22.5654 128.305C22.1045 130.833 21.7016 134.98 21.2723 138.207C21.0374 139.972 21.099 141.513 20.9697 144.554C20.6621 151.789 20.755 157.166 20.4964 158.528C20.156 160.321 20.2378 161.882 19.9365 162.869C19.6163 163.919 19.6326 170.689 19.5473 180.492C19.5074 185.075 19.1154 188.922 19.2007 193.494C19.2394 195.564 19.6326 197.05 19.6326 198.561C19.6326 199.53 20.7499 195.749 21.4417 194.52C21.4456 194.235 21.1895 193.955 21.271 193.904C21.3525 193.853 21.7792 194.04 22.7361 194.232" stroke="#929DA0" stroke-width="4" stroke-linecap="round"/>
<path d="M196.013 202.251C197.153 202.407 201.748 196.334 210.315 196.415C218.883 196.495 234.933 195.64 247.199 197.352C263.799 199.669 267.609 202.083 273.135 203.094C283.241 204.943 288.535 202.636 298.778 203.416C305.48 203.926 317.553 206.885 323.257 207.688C330.366 208.689 334.155 208.295 343.56 209.713C348.239 210.418 352.823 210.194 355.244 209.805C357.664 209.415 357.807 208.636 357.88 207.688C358.038 205.656 357.668 203.902 357.237 198.437C356.144 184.603 356.947 174.458 356.66 172.887C356.016 169.366 354.646 165.024 353.568 159.981C352.576 155.339 350.474 148.037 348.317 139.678C347.041 134.734 346.872 129.273 346.512 124.79C346.016 118.625 345.145 114.638 344.927 108.181C344.677 100.792 345.136 91.3208 345.931 87.3881C346.773 83.2194 347.589 76.4026 348.021 71.244C348.185 69.2884 345.929 65.554 344.927 64.2172C343.646 62.5085 340.697 65.169 338.391 65.0131C337.779 64.9718 338.365 64.5455 339.086 64.4628C343.969 63.9031 348.297 73.6533 349.742 78.2922C351.453 83.7878 352.482 91.5807 352.84 98.7374C352.988 101.69 353.341 103.244 353.488 109.114C353.635 114.983 353.635 125.116 353.706 131.037C353.778 136.959 353.92 138.362 353.993 143.684C354.194 158.201 353.924 168.926 352.925 172.452C351.258 178.33 348.03 184.184 346.164 189.449C343.246 197.685 340.973 201.049 339.183 203.094C338.2 204.218 336.111 204.204 334.658 203.897C333.205 203.59 332.207 202.655 335.042 202.251C337.877 201.847 344.575 202.003 347.598 202.083C350.621 202.164 349.766 202.164 343.91 199.669C338.054 197.175 327.224 192.187 320.077 188.526C312.93 184.865 309.794 182.682 305.686 180.778C301.577 178.875 296.589 177.316 291.668 176.045C286.747 174.774 282.044 173.839 273.708 173.357C265.371 172.875 253.543 172.875 246.666 173.031C238.212 173.223 231.761 173.82 223.992 173.976C217.099 174.114 211.43 176.494 208.547 177.516C207.139 178.016 205.665 178.539 204.442 179.56C203.872 180.036 204.397 188.816 204.393 189.449C204.384 190.743 208.636 183.268 217.609 182.956C226.761 182.638 233.277 180.911 241.427 180.28C247.712 179.794 258.414 180.273 265.559 180.899C276.065 181.819 280.356 183.74 282.794 184.13C286.219 184.678 294.978 186.258 296.366 186.494C301.895 187.435 272.388 186.575 261.921 186.886C251.453 187.198 249.458 187.822 248.216 188.377C246.975 188.932 246.547 189.4 246.897 189.796C247.247 190.193 248.387 190.505 261.871 190.666C275.355 190.826 301.149 190.826 315.007 190.982C328.865 191.138 330.005 191.45 330.734 191.065C332.255 190.262 331.9 184.567 331.542 177.961C331.395 175.246 331.041 173.848 330.894 160.732C330.747 147.616 330.747 122.83 330.747 110.918C330.747 99.0067 330.747 100.722 332.885 110.023C335.023 119.324 339.298 136.161 341.572 145.847C343.845 155.534 343.988 157.56 344.702 161.956C346.513 173.093 348.164 180.585 347.952 179.815C344.792 168.317 342.265 160.607 341.692 159.339C338.421 152.088 336.798 176.012 336.15 178.603C335.821 179.92 335.93 181.35 335.93 174.044C335.93 166.739 335.93 150.682 335.217 138.123C334.504 125.565 333.079 116.991 332.345 112.184C331.495 106.618 331.184 104.86 329.396 98.9996C325.236 85.3657 323.406 75.2547 323.264 73.2163C323.175 71.9514 322.836 70.2426 322.689 62.5779C322.542 54.9133 322.765 64.9753 323.264 58.5342C323.762 52.0931 329.396 30.6511 323.264 29.8291C313.754 28.5544 327.522 46.874 332.345 47.3054C337.601 47.7754 330.417 56.6092 332.345 56.6092C333.962 56.6092 334.919 58.6972 337.288 64.9092C338.684 68.5704 338.374 72.8691 338.521 82.1493C338.618 88.2989 342.39 71.6408 343.99 68.7214C344.261 68.2266 343.141 67.8522 342.418 68.4711C338.208 72.0728 339.393 81.0321 338.739 87.0362C338.407 90.0769 337.657 93.338 337.229 95.9361C337.068 96.9199 335.947 96.8195 335.008 96.5857C333.018 96.0904 330.475 93.8434 327.174 90.0784C323.146 85.485 319.826 78.5898 316.449 71.0527C312.963 63.2716 312.183 54.8141 311.535 47.8203C310.68 38.5945 313.243 32.1391 313.601 25.809C313.725 23.6199 310.883 19.4223 305.752 17.4949C300.622 15.5675 290.362 15.5675 284.577 15.4116C277.784 15.2285 274.06 14.3109 271.097 13.6047C268.974 13.0985 276.897 12.2607 279.484 12.1828C281.511 12.1217 290.703 19.982 302 20.06C308.479 20.1047 307.143 15.7565 309.658 17.4949C310.225 17.8861 304.625 23.6573 308.095 18.7195C310.839 14.8148 309.298 16.0515 312.038 15.4116C315.003 14.7192 304.871 17.013 299.027 13.6874C294.385 11.0464 289.839 12.6528 286.808 12.1828C282.473 11.5107 276.161 12.967 266.684 12.1828C254.154 11.1461 251.859 20.0717 251.859 15.4116C251.859 12.8371 240.845 17.5374 237.381 20.06C233.884 22.6074 231.387 22.1433 225.441 25.3555C214.939 31.0286 208.111 39.7046 206.368 42.5625C202.543 48.8378 202.303 44.2655 201.648 48.0494C200.947 52.1059 196.877 64.0069 198.949 72.6919C200.766 80.3021 205.073 87.1827 206.368 92.3743C207.937 98.6599 207.815 109.985 208.459 121.769C209.055 132.699 210.696 141.659 210.838 148.107C211.003 155.578 211.844 160.886 211.849 165.614C211.85 166.735 211.421 167.66 210.918 168.142C210.415 168.624 209.702 168.624 209.05 168.39C208.398 168.156 207.828 167.688 207.249 166.746C206.671 165.803 206.101 164.4 205.736 158.767C205.371 153.134 205.228 143.313 205.654 136.305C206.321 125.313 208.247 118.89 208.605 114.331C208.768 112.261 209.106 110.708 209.253 97.5895C209.4 84.4711 211.052 61.8835 210.838 49.8185C210.624 37.7536 208.545 36.9576 208.111 39.7046C207.677 42.4515 207.249 46.6606 207.029 53.9733C206.809 61.2859 206.809 71.5747 205.811 85.0592C204.814 98.5438 202.819 114.912 201.648 123.968C200.314 134.291 199.757 139.765 199.399 146.454C199.265 148.941 198.898 149.558 198.751 153.387C198.604 157.215 198.604 164.23 199.031 153.892C199.459 143.554 200.314 115.649 200.184 96.6754C200.055 77.7017 198.915 68.5041 198.043 63.0645C196.933 56.1479 195.87 52.4758 196.013 51.5947C196.124 50.9098 196.583 55.9762 199.081 68.8041C201.579 81.632 206.282 104.236 208.918 116.27C211.555 128.305 211.982 129.084 212.63 129.408C213.278 129.731 214.133 129.575 215.072 128.248C216.011 126.921 217.009 124.426 218.734 118.699C220.459 112.971 222.882 104.085 227.408 89.8422C231.933 75.5995 238.489 56.2691 242.507 43.427C246.525 30.585 247.808 24.817 248.112 36.7332C248.417 48.6494 247.704 78.4244 247.337 92.9057C246.97 107.387 246.97 105.672 247.184 103.464C247.398 101.255 247.825 98.6052 248.045 87.8086C248.266 77.012 248.266 58.1492 245.772 52.719C243.278 47.2889 238.29 55.8628 233.512 65.58C228.734 75.2972 224.316 85.8977 222.254 79.8227C220.192 73.7477 220.619 50.6759 220.626 38.5566C220.632 26.4373 223.025 28.1876 225.441 29.5835C227.857 30.9794 230.31 32.0352 237.016 34.3452C243.723 36.6552 251.703 37.9024 256.812 38.5448C267.19 39.8499 272.138 37.3071 277.899 35.4932C279.072 35.1236 279.635 34.7846 278.218 34.3901C273.469 33.0676 263.16 33.0461 252.584 32.9682C247.846 32.9333 246.4 32.262 245.323 31.5557C244.789 31.2057 244.388 30.6936 244.096 29.8291C243.412 27.7985 250.071 24.5619 256.44 21.7275C257.274 21.3564 249.129 20.7639 245.886 21.0756C242.643 21.3874 243.498 22.011 250.209 23.6573C256.92 25.3036 269.46 27.9537 279.412 29.7087C289.364 31.4636 296.347 32.2431 300.728 32.8784C305.109 33.5138 306.677 33.9815 307.128 33.9886C311.6 34.0588 294.922 29.9 291.893 29.5835C287.265 29.1 275.826 27.5475 267.947 25.809C265.178 25.198 260.452 24.7131 259.241 23.9242C257.533 22.8117 270.501 20.7686 281.232 20.06C282.996 19.9435 277.955 20.5985 270.918 22.481C263.992 24.3338 257.796 27.0562 248.274 30.6511C241.589 33.1749 231.769 38.9227 224.279 43.6018C211.691 51.4655 206.671 57.1289 207.303 58.4681C207.881 59.6907 211.499 58.7161 217.244 56.6092C222.99 54.5023 231.398 50.4492 236.228 48.0494C241.058 45.6497 242.056 45.0261 240.147 54.526C238.238 64.0258 233.393 83.668 230.897 94.4882C228.401 105.308 228.401 106.711 228.33 106.889C227.982 107.752 227.969 100.641 227.043 87.7165C226.416 78.9689 224.264 65.906 222.953 60.5632C221.643 55.2204 220.93 58.0264 220.136 62.4339C219.341 66.8413 218.486 72.7651 217.903 82.1304C217.32 91.4956 217.035 104.123 216.746 111.641C216.378 121.198 215.878 124.365 215.878 125.707C215.878 126.08 218.443 114.714 222.329 109.808C225.486 105.823 223.651 135.301 223.009 145.899C222.368 156.497 221.086 156.653 219.855 156.889C215.664 157.694 213.157 158.703 209.279 160.891C207.091 162.124 203.855 165.26 202.093 167.017C200.331 168.775 200.331 169.398 204.393 169.72C208.454 170.041 216.577 170.041 222.686 169.573C232.699 168.806 238.886 167.051 242.911 166.658C245.827 166.374 248.253 165.633 254.828 165.397C260.117 165.207 269.383 165.317 275.58 166.018C284.78 167.06 289.131 170.66 292.86 172.703C300.503 176.891 311.366 175.549 318.572 178.14C320.134 178.702 321.243 180.263 322.104 181.685C322.36 182.107 322.966 180.925 323.257 175.143C323.549 169.361 323.691 158.76 324.192 150.961C324.693 143.162 325.548 138.485 326.202 129.762C326.857 121.039 327.284 108.412 327.718 100.66C328.152 92.9081 328.58 90.4138 328.8 85.8552C329.02 81.2966 329.02 74.7492 327.951 70.6748C325.467 61.205 317.386 62.0323 313.128 61.6237C312.167 61.5314 311.332 62.3252 310.749 63.5015C309.358 66.3071 309.587 74.7114 309.658 84.627C309.692 89.2481 311.017 93.3238 313.241 101.166C316.311 111.993 317.503 120.576 318.075 125.44C318.839 131.929 319.951 136.491 319.31 140.792C316.853 157.272 313.197 162.294 312.109 165.159C311.975 165.511 311.608 163.456 311.461 143.636C311.315 123.817 311.315 85.6238 310.958 65.247C310.577 43.4398 308.87 41.0863 307.868 38.8897C305.085 32.7862 300.531 31.6337 298.232 30.9251C297.23 30.6165 296.502 30.6842 295.708 32.0092C294.913 33.3343 294.058 35.9844 293.618 43.8971C293.177 51.8097 293.177 64.9045 293.32 72.2739C293.545 83.9258 294.758 88.6187 295.261 101.654C295.716 113.435 295.621 135.735 297.975 139.503C300.329 143.27 304.889 127.837 308.022 114.43C311.155 101.024 312.722 90.1115 313.601 79.5015C314.48 68.8915 314.622 58.9145 314.553 53.1513C314.438 43.5375 312.468 39.8297 312.038 37.4725C311.832 36.341 311.323 35.427 310.462 36.2702C309.6 37.1135 305.357 40.2502 304.625 47.3054C303.893 54.3606 306.711 65.2541 306.495 71.896C306.15 82.5113 305.273 86.5591 304.625 95.2488C303.435 111.214 304.833 122.008 305.837 123.186C306.36 123.801 307.126 124.209 307.778 122.969C309.788 119.147 309.73 111.039 310.231 103.329C310.516 98.9414 314.882 93.867 319.774 88.2739C321.395 86.4216 321.817 87.2016 321.964 91.1083C322.111 95.015 322.111 102.186 321.327 109.621C319.742 124.66 316.505 133.496 314.283 136.945C306.878 148.439 298.238 154.593 295.416 156.493C294.249 157.278 294.041 160.413 294.255 163.954C294.373 165.906 296.762 167.353 299.348 168.928C300.434 169.59 301.365 162.66 301.093 161.956C300.821 161.252 299.396 166.602 294.101 164.478C288.807 162.355 279.686 159.393 273.135 157.633C262.981 154.906 258.064 154.612 253.988 154.14C240 152.519 238.053 155.236 236.688 155.708C235.514 156.115 245.139 155.869 262.966 155.557C275.12 155.345 280.503 153.823 282.295 153.587C287.517 152.899 293.575 153.035 296.414 151.939C297.608 151.478 290.202 149.265 280.155 147.848C274.837 147.098 268.968 147.366 262.324 148.379C255.68 149.392 248.413 151.419 243.6 152.619C236.69 154.341 231.454 155.699 226.635 157.822C224.785 158.637 224.238 159.166 225.441 154.964C226.643 150.762 229.636 141.877 231.392 135.662C234.032 126.314 235.155 118.904 237.381 109.102C240.442 95.6237 240.493 84.7215 240.706 79.8487C240.882 75.8539 242.073 73.3651 242.505 71.7944C242.718 71.0212 242.652 70.2237 242.581 83.6964C242.509 97.1691 242.367 124.918 242.293 138.745C242.22 152.572 242.22 151.636 242.505 149.751C242.79 147.867 243.36 145.061 248.428 125.532C253.495 106.003 263.043 69.8363 268.033 51.5947C273.023 33.3532 273.166 34.1326 273.239 39.3668C273.313 44.6009 273.313 54.2661 274.096 64.3896C274.88 74.513 276.448 84.8018 277.326 88.9329C278.205 93.064 278.348 90.7256 279.989 82.0383C281.63 73.3509 284.765 58.3854 286.808 49.8185C288.85 41.2516 289.705 39.5369 290.217 47.3054C290.729 55.0739 290.871 72.3778 289.876 72.7958C288.88 73.2139 286.743 56.2219 285.642 46.9228C284.54 37.6237 284.54 36.5324 283.614 37.6851C282.688 38.8377 280.835 42.2673 277.316 54.4787C273.796 66.6901 268.666 87.5795 265.881 99.7436C262.473 114.626 262.516 118.54 262.516 119.646C262.516 119.816 262.516 119.192 263.799 113.727C265.082 108.261 267.647 97.9722 269.823 90.7233C272 83.4744 273.71 79.5771 274.805 78.2709C275.899 76.9647 276.327 78.3678 277.046 86.885C277.765 95.4023 278.762 110.991 279.276 114.813C279.79 118.635 279.79 110.217 279.79 110.089C279.79 109.962 279.79 118.38 280.289 121.157C280.583 122.798 283.668 115.89 285.249 112.98C285.919 111.747 286.544 111.161 286.838 113.724C287.131 116.287 287.131 122.055 288.414 121.441C295.825 117.892 295.19 104.397 293.555 106.863C290.97 110.763 287.503 121.8 284.804 125.312C282.105 128.824 280.965 124.927 280.164 120.191C278.454 110.083 278.067 103.91 276.992 103.903C266.304 103.833 264.537 128.149 263.46 128.86C263.02 129.15 262.525 128.479 262.305 127.459C262.085 126.439 262.085 124.88 262.085 126.103C262.085 127.327 262.085 131.38 262.868 131.831C263.652 132.282 265.22 129.009 265.742 128.725C267.809 127.604 264.68 135.23 264.745 136.883C264.775 137.661 266.662 137.446 267.539 137.913C269.094 138.743 269.279 141.839 270.281 144.201C270.713 145.219 272.138 145.004 273.295 144.068C278.638 139.751 280.783 136.973 282.943 136.038C285.423 134.963 284.104 128.966 284.752 115.368C285.288 104.121 284.972 83.9987 284.758 72.314C284.496 57.9649 282.394 51.975 280.166 46.6251C279.287 44.5143 278.65 43.7695 277.43 43.1341C274.51 41.6135 270.169 41.5493 264.648 42.5625C256.876 43.9888 252.731 48.314 252.085 50.0382C251.117 52.6254 250.857 55.7069 251.213 58.5342C252.166 66.0958 264.054 71.7542 267.837 74.6831C270.351 76.6296 266.278 83.4035 261.191 93.7395C257.707 100.818 253.396 112.182 250.976 111.728C248.555 111.275 248.413 98.8036 248.838 87.9361C249.613 68.1398 251.289 56.2219 251.859 59.453C252.91 65.4124 253.569 80.4557 254.797 90.8154C256.667 106.582 259.057 113.027 260.489 112.81C265.723 112.016 264.818 100.632 265.319 94.0348C265.572 90.6999 266.248 87.4378 266.684 81.5423C267.12 75.6468 267.405 67.2287 266.697 64.2172C266.089 61.6314 260.949 69.8599 258.36 75.6775C257.248 78.1756 256.911 79.9361 256.762 75.5972C256.613 71.2582 256.756 60.8135 257.043 54.9653C257.33 49.117 257.758 48.1817 257.978 56.3518C258.198 64.5218 258.198 81.8257 257.129 95.7283C256.06 109.631 253.923 119.608 252.18 126.93C250.438 134.252 249.155 138.617 249.492 140.944C249.829 143.27 251.824 143.426 253.636 143.195C262.042 142.12 266.399 131.63 267.332 129.977C267.957 128.868 270.989 128.791 274.297 127.924C276.13 127.444 276.767 135.169 277.409 149.619C277.733 156.924 279.332 164.07 280.492 167.452C281.651 170.834 282.649 170.211 283.947 168.019C290.089 157.644 288.854 152.727 289.217 151.469C288.582 150.833 287.995 148.646 288.138 144.952C288.28 143.284 288.565 142.037 288.859 140.28" stroke="#BCC0C1" stroke-width="14" stroke-linecap="round"/>
<path d="M18.4978 203.351L17.7961 214.806" stroke="#8D9394" stroke-width="4" stroke-linecap="round"/>
<path d="M343.297 60.097C345.089 59.8141 349.913 61.1224 349.913 63.1076C349.913 64.6084 350.597 62.7794 350.86 63.1076C352.553 65.2248 351.42 67.4785 352.237 71.2935C352.93 74.5271 353.142 76.441 353.361 78.1866C353.414 78.6123 353.489 78.9872 353.533 83.0073C353.577 87.0275 353.577 94.6829 353.79 99.9337C354.111 107.822 354.87 111.239 354.955 112.744C355.181 116.731 355.987 121.418 357.021 128.476C357.325 130.549 357.368 131.704 357.627 138.388C357.863 144.507 357.715 156.181 357.757 162.427C357.803 169.14 357.973 171.673 358.016 174.972C358.056 178.104 358.402 181.677 358.962 183.851C359.599 186.324 359.608 188.659 359.869 191.91C359.959 193.03 360.301 196.091 360.045 200.147C359.958 201.52 360.602 204.688 359.869 204.5C356.561 203.651 353.24 199.138 349.884 198.151C347.043 197.315 346.025 198.864 343.865 198.151C341.71 197.439 338.499 194.515 336.343 193.999C334.592 193.58 333.239 193.101 331.343 192.396C329.268 191.625 326.095 190.283 321.695 188.485C319.53 187.601 317.721 187.539 316.34 187.396C315.644 187.324 314.959 187.066 313.759 186.925C311.547 186.664 309.787 186.69 299.199 186.407C288.955 186.134 268.811 186.311 258.136 186.358C246.864 186.407 247.251 188.119 246.132 188.684C244.307 189.605 278.44 185.631 276.901 186.267C273.694 187.592 205.306 201.622 202.5 202C201.583 202.123 257.119 187.017 256.388 187.158C255.584 187.314 235.479 190.055 240.734 190.008C243.432 189.984 246.076 188.529 249.868 187.87C254.659 187.037 253.304 187.726 257.183 187.021C258.303 186.818 259.858 186.597 263.119 186.172C268.054 185.53 271.845 185.935 273.52 185.653C274.434 185.5 274.711 189.283 283.176 189.139C291.641 188.994 308.256 184.897 315.623 184.803C322.989 184.71 321.368 184.523 320.02 184.287C318.673 184.051 317.649 183.771 311.19 183.58C304.731 183.389 292.868 183.295 287.183 183.341C281.499 183.386 276.077 184.707 276.901 184.803C279.876 185.151 288.574 186.553 292.5 187.87C294.927 188.684 296.917 188.806 299.199 189.139C302.808 189.664 305.804 188.665 309.297 189.139C313.109 189.656 318.482 190.079 320.852 190.365C322.914 190.614 325.118 191.024 327.532 191.59C328.962 191.925 330.381 191.873 331.243 191.969C332.779 192.14 329.269 188.484 328.881 187.591C328.669 187.105 328.749 186.419 329.133 185.895C329.517 185.372 330.285 184.998 330.254 184.666C330.223 184.334 324.661 185.185 323.667 185.041C322.673 184.897 326.271 183.765 330.18 183.765C334.089 183.765 345.224 187.209 349.884 187.396C354.543 187.583 352.454 184.512 352.413 185.031C352.235 187.262 351.078 188.659 350.264 190.314C349.507 191.851 347.116 190.741 343.865 190.978C336.193 191.535 330.394 190.931 328.634 191.352C326.04 191.974 324.27 193.005 323.667 193.474C323.368 193.708 317.5 194 323.361 194.37C324.034 194.412 330.314 196.073 336.343 195.979C338.705 195.943 337.351 194.425 340.693 194.329C344.036 194.232 349.754 194.232 352.7 191.152C359.167 184.387 355.475 175.187 355.216 174.155C354.508 171.325 354.87 169.535 354.655 166.383C354.423 162.975 351.766 158.719 350.948 155C349.913 150.299 350.557 149.17 349.913 146C349.696 144.932 351.337 141.244 351.078 133.014C350.849 125.722 350.99 112.087 350.948 104.832C350.896 96.0592 350.215 91.9444 349.785 88.4349C349.453 85.7155 349.097 83.2478 348.707 81.4075C348.11 78.5942 348.146 76.6447 347.716 74.1014C347.323 71.7709 347.199 69.6682 347.068 67.4983C347 66.3633 346.17 64.2053 345.135 63.1076C340.837 58.547 343.792 71.0347 344.957 74.1014C345.87 76.5043 348.57 81.986 348.964 84.7401C349.099 85.6797 349.18 92.2301 349.095 100.864C349.053 105.037 345.13 87.4009 344.957 85.0386C344.794 82.8222 343.475 81.9719 343.297 78.1866C343.246 77.1099 344.864 78.5742 345.769 85.7346C346.293 89.8816 346.333 92.9346 346.849 97.488C347.626 104.346 348.14 109.632 348.959 111.749C350.228 115.033 350.644 118.023 350.86 121.227C351.306 127.846 347.716 133.014 350.973 138.388C352.651 141.156 352.025 145.369 352.708 151.566C353.39 157.763 354.756 164.578 355.545 168.322C356.671 173.67 356.851 175.462 357.109 176.589C357.258 177.236 357.197 178.09 356.557 176.515C354.339 171.06 351.293 165.168 351.078 164.362C350.193 161.037 353.225 172.72 353.877 175.08C354.638 177.836 354.523 179.985 354.826 182.997C355.355 188.262 356.334 195.059 356.893 197.714C357.149 198.925 357.539 200.261 357.928 200.458C361.472 202.248 357.115 192.467 356.768 183.891C356.694 182.068 356.256 181.236 356.08 177.815C355.904 174.395 355.904 168.42 355.776 164.362C355.504 155.739 354.787 153.318 354.398 150.771C354.03 148.361 353.062 145.12 352.333 141.077C350.721 132.142 347.935 128.236 347.716 125.5C347.33 122.764 349.18 118.804 348.751 116.538C348.663 115.692 348.663 114.385 348.663 113.038" stroke="#929DA0" stroke-width="7" stroke-linecap="round"/>
<path d="M20.2252 202.406C20.7973 202.25 25.4519 205.131 27 204.5C28.9542 203.704 27.6269 199.808 29.5389 199.299C31.3808 198.808 32.4549 198.235 33.7871 197.958C34.9608 197.715 36.5531 197.682 40.6491 197.29C42.3736 197.125 43.6115 197.132 46.398 197.014C57.4227 196.546 62.8823 199.299 63 199.299C68.0002 199.299 52.406 196.189 51.1061 195.951C50.8123 195.897 50.5318 195.717 50.5275 195.52C50.5232 195.322 50.8082 195.089 50.7769 194.89C50.7456 194.692 39.5042 195.6 39 195.52C38.4958 195.439 48.7397 194.375 53.6821 194.375C58.6245 194.375 70.6701 194.375 76.2808 194.453C82.2511 194.536 94.0516 196.461 97 196.657C98.1699 196.735 77.4347 193.5 81 193.5C89.5 193.5 104.983 195.556 109.6 195.634C115.672 195.737 118.093 196.265 120.045 196.657C122.816 197.214 125.292 197.365 127.459 197.838C129.16 198.209 132.34 198.622 134.548 198.941C137.533 199.372 140.402 199.803 142.75 200.475C146.564 201.566 148.129 202.681 150.109 202.878C152.363 203.103 154.588 202.245 156.536 202.484C157.625 202.617 162.934 203.5 166 203.5C168.607 203.5 159.1 201.656 156.536 200.475C154.307 199.448 151.979 200.288 150 199.5C148.583 198.936 147.053 197.687 143.96 197.368C142.734 197.134 141.65 196.973 140.644 196.895C140.208 196.817 118.794 194.614 118.5 194.453" stroke="#797C7C" stroke-width="4" stroke-linecap="round"/>
<path d="M282.7 202.5C304.612 204.348 326.524 206.196 331.575 206.422C336.626 206.648 324.152 205.196 317.594 204.415C311.036 203.634 310.772 203.568 314.794 203.567C318.816 203.566 327.132 203.632 329.304 203.666C331.476 203.7 327.252 203.7 325.439 203.7C323.626 203.7 324.352 203.7 325.452 203.403C330.046 202.163 333.208 201.3 334.802 201.666C336.21 201.989 328.274 200.638 324.55 199.905C324.152 199.827 329.604 199.568 331.854 199.732C334.104 199.896 333.708 200.292 333.042 200.562C331.522 201.178 329.906 201.298 329.369 201.697C329.201 201.822 330.152 202.096 334.387 202.33C338.622 202.564 346.344 202.828 349.695 202.964C353.046 203.1 351.792 203.1 350.189 203.265C346.656 203.629 344.37 204.298 344.101 204.829C343.058 206.889 348.092 207.296 354.84 208.728C356.701 209.123 359.674 210.224 364.333 211.789C366.401 212.484 367.936 212.76 367.959 212.93C368.478 216.764 360.388 214.492 358.634 215.099C356.998 215.665 361.428 214.9 362.393 215.065C362.853 215.144 363.16 215.56 361.977 215.268C360.794 214.976 358.088 214.052 356.793 213.411C355.498 212.77 355.696 212.44 355.996 212.171C357.355 210.952 360.352 212.028 362.992 212.432C363.446 212.502 363.564 212.828 363.236 213.096C362.908 213.364 362.116 213.628 361.543 213.797C360.97 213.966 360.64 214.032 361.427 214.066C362.214 214.1 364.128 214.1 363.332 214.1C362.536 214.1 358.972 214.1 356.311 214.199C353.65 214.298 352 214.496 347.751 214.466C343.502 214.436 336.704 214.172 331.387 213.64C326.07 213.108 322.44 212.316 320.405 211.908C317.191 211.264 313.328 209.912 310.407 208.903C309.408 208.558 306.462 207.172 302.426 206.207C301.186 205.91 301.756 205.44 303.117 205.27C304.478 205.1 306.656 205.1 306.194 205.1C302.564 205.1 297.452 204.77 294.949 204.27C294.772 204.235 299.13 204.892 305.62 206.125C308.48 206.566 310.46 206.632 311.117 206.666C311.774 206.7 311.048 206.7 310.3 206.7" stroke="#797C7C" stroke-width="2" stroke-linecap="round"/>
<path d="M79.0351 197.816C78.7501 197.816 77.515 196.32 73.0973 196.046C67.0931 195.674 60.155 199.075 58.3132 198.564C57.2915 198.28 54.8433 198.052 51.3022 197.816C48.6913 197.642 44.4122 197.736 41.7823 197.814C37.106 197.952 35.8499 197.582 33.6917 198.486C32.2087 199.107 29.8959 198.055 27.5413 198.486C25.9929 198.769 23.9645 201.591 21.6272 202.025C19.9782 202.332 18.2815 203.239 16.5142 204.464C15.1847 205.385 13.7428 205.998 12.1234 207.375C10.931 208.389 10.8581 210.169 10.4997 211.08C10.0287 212.277 10.2104 208.37 10.1391 207.856C10.1267 207.766 9.92536 208.199 10.0301 208.478C10.1348 208.757 10.4911 208.913 10.9596 208.876C12.0245 208.793 13.013 207.741 13.732 206.641C14.2214 205.891 14.3129 205.141 14.4197 204.745C14.5545 204.246 15.1031 205.92 15.3191 206.783C15.7792 208.623 14.3863 209.777 13.9922 210.603C13.8012 211.003 13.3844 211.194 13.379 210.925C13.3566 209.809 14.382 208.684 15.9895 207.781C17.2378 207.081 19.6634 206.645 22.7629 206.168C25.8625 205.691 29.6389 205.379 32.4038 205.102C36.8137 204.659 39.636 204.038 44.1067 203.215C47.4233 202.604 55.3087 201.285 58.3132 200.923C61.3177 200.562 59.2892 201.279 53.8436 201.279C48.3981 201.279 36.3951 201.601 30.4529 201.64C24.5108 201.679 24.9707 201.435 24.717 201.67C22.4261 203.792 20.7192 208.046 20.3619 208.675C19.2095 210.705 16.0446 209.151 15.5393 209.386C14.2061 210.006 22.1897 211.7 27.5413 210.603C29.8018 210.139 32.8626 210.689 37.4704 209.386C39.1984 208.898 41.8233 205.894 45.5674 205.102C49.3115 204.309 53.7238 203.615 57.3955 203.215C63.4047 202.559 66.1868 199.983 69.757 199.747C72.8237 199.544 78.4716 200.806 82.0127 200.923C85.5538 201.04 86.8363 201.274 94.2305 201.395C101.625 201.515 116.698 199.474 124.918 199.747C133.138 200.02 136.155 201.075 137.334 201.395C138.513 201.715 130.436 203.692 127.617 203.732C124.798 203.772 125.188 203.405 121.651 203.522C116.539 203.691 114.504 204.269 112.859 204.622C111.651 204.882 109.646 205.053 101.956 205.174C94.2662 205.294 80.9417 205.294 74.3626 205.294C67.7835 205.294 68.3535 205.294 68.8966 205.216C69.951 205.065 74.0862 204.822 78.4165 204.588C80.1893 204.492 72.9138 203.327 69.757 202.975C68.0163 202.781 66.0302 202.233 65.1093 202.109C64.1884 201.985 64.4022 202.219 64.7617 202.417C65.5807 202.869 69.4115 202.932 75.304 202.504C79.9133 202.168 81.9651 200.178 82.112 199.747C82.9267 197.355 77.0583 196.515 76.8759 196.437C76.9785 196.359 78.6357 196.595 79.0351 196.437C79.4346 196.279 82.0127 195.256 80.1687 197.027" stroke="#797C7C" stroke-width="4" stroke-linecap="round"/>
<path d="M199.5 205.5C202.49 205.5 215 198.57 218.202 199.801C219.855 200.436 224.091 198.437 226 197.867C227.373 197.457 228.25 198.48 229.804 197.867C232.249 196.904 236.516 197.162 238.769 196.734C240.475 196.411 242.898 196.03 244.804 195.556C248.744 194.577 255.059 195.645 258.582 196.307C263.302 197.194 267.046 196.497 268.975 196.638C272.348 196.885 274.801 201.404 277.58 201.545C284.534 201.899 288.768 195.506 289.456 195.318C294.28 193.999 311.758 197.161 313.441 197.867C316.273 199.056 307.353 199.256 313.441 199.515C320.055 199.797 328.018 201.314 329.441 203.006C333.441 207.764 331.876 202.02 335.291 203.006C337.17 203.549 340 208.304 340 205.5C340 202.155 345.172 205.265 348 205.5C350.828 205.735 352.993 208.376 354.332 209.225C355.731 210.112 358.35 209.612 358.441 209.94C359.395 213.402 348.457 211.313 345.423 209.94C342.633 208.679 338.293 210.564 335.291 209.94C333.709 209.612 327.941 204.971 327.941 207.389C327.941 210.684 324.038 207.912 321.441 207.389C318.12 206.72 313.372 203.476 310.551 203.006C308.029 202.587 305.769 202.254 301.723 201.545C298.52 200.984 293.898 197.824 292.067 199.801C290.236 201.779 280.819 201.333 286.757 196.307C288.491 194.839 277.173 195.884 273.802 195.318C269.103 194.53 265.191 196.403 261.758 196.075C259.514 195.861 257.324 195.368 248.422 195.318C245.136 195.3 243.441 196.12 241.799 196.73C239.946 197.418 238.61 197.908 236.715 198.57C235.683 198.667 234.472 198.947 233.139 199.371C232.489 199.515 231.891 199.515 231.276 199.515" stroke="#797C7C" stroke-width="7" stroke-linecap="round"/>
<path d="M35.6122 56.1116C35.04 56.4257 33.0579 56.4257 31.8336 56.7021C31.0609 56.8765 29.6744 57.2926 28.5948 57.8831C27.3493 58.5643 26.7249 59.5766 26.4356 59.6545C26.1462 59.7325 25.3258 61.0292 25.0321 61.426" stroke="black" stroke-width="2" stroke-linecap="round"/>
<path d="M226.817 200.266C228.946 200.528 234.442 200.042 237.39 200.438C239.108 200.668 242.794 200.224 243.374 199.799C244.993 198.614 238.369 198.947 236.301 198.618C228.507 197.379 225.347 198.282 224.069 198.91C223.535 199.173 223.194 199.801 222.892 200.525C222.734 200.904 223.004 200.266 223.004 200.266C223.004 200.266 223.899 200.397 225.81 200.266C226.601 200.212 228.626 200.07 228.831 199.805C229.036 199.539 228.227 200.932 227.994 200.699C225.463 198.167 219.637 198.682 219.367 198.682C217.492 198.682 223.389 199.209 223.96 199.57C224.205 199.725 224.066 200.128 223.7 200.361C223.333 200.595 222.668 200.726 222.725 200.956C222.964 201.937 225.759 200.838 227.003 200.838C227.022 200.838 225.712 200.131 225.307 199.835C224.702 199.394 226.882 200.73 232.402 200.532C237.653 200.343 247.891 200.464 253.429 200.366C258.967 200.268 259.499 200.072 256.45 199.971C253.401 199.87 246.755 199.87 243.63 199.805C240.506 199.739 241.104 199.609 241.744 199.541C244.798 199.22 247.887 198.551 252.787 198.647C252.98 198.651 250.163 199.137 248.695 199.371C247.228 199.605 246.896 199.735 249.018 199.835C251.139 199.935 255.725 200.001 259.782 200.329C263.839 200.656 267.229 201.245 269.174 201.548C271.119 201.851 271.518 201.851 267.803 201.818C264.087 201.785 256.245 201.72 252.736 201.686C249.228 201.653 250.291 201.653 253.863 202.045C257.435 202.437 263.483 203.221 267.063 203.625C270.644 204.029 271.575 204.029 271.323 203.801C269.964 202.566 263.783 201.924 260.295 200.835C253.665 198.764 271.546 200.464 270.719 200.726C265.378 202.413 281.721 202.049 282.898 202.049C285.735 202.049 275.157 201.257 274.683 201.257C273.695 201.257 279.087 201.649 285.837 202.308C290.051 202.72 295.911 202.706 293.341 202.774C290.771 202.841 279.606 202.841 274.885 203.037C270.163 203.233 272.223 203.625 278.003 203.958C283.783 204.291 293.22 204.552 296.52 204.72C299.82 204.887 296.696 204.952 295.818 204.986C294.94 205.02 296.402 205.02 295.095 204.66C293.788 204.301 289.668 203.582 285.422 202.841" stroke="#797C7C" stroke-width="2" stroke-linecap="round"/>
<path d="M18 214C19.5805 214 23.5287 213.352 25.6145 212.566C27.6675 211.793 29.572 212.464 36 210.5C37.9651 209.9 38.7123 210.236 41 210C45.8319 209.501 50.0652 209.302 51.5 209.106C54.7634 208.66 61.3216 209.613 63.5 208.155C64.9301 207.198 66.2789 206.424 72.207 206.07C77.2026 205.771 86.258 205.949 91.2404 205.91C96.8649 205.866 99.0211 205.713 101.431 205.596C105.026 205.422 109.755 204.693 111.767 204.493C114.002 204.14 116.582 203.823 123.781 203.431C128.319 203.351 136.442 203.351 144.811 203.351" stroke="#797C7C" stroke-width="4" stroke-linecap="round"/>
<path d="M19.4154 65.4114C18.5604 66.0349 18.2651 69.3811 18.1226 76.7788C17.9461 85.9422 17.0344 98.0342 16.745 101.58C16.4498 105.197 15.389 111.626 15.389 115.161C15.389 120.475 15.6784 114.464 15.389 131.104C15.3172 135.238 13.6271 138.013 13.4803 149.41C13.3335 160.806 11.645 182.354 11.4312 193.985C11.156 208.961 10.0644 213.013 9.1295 216.006C8.20709 218.958 6.9336 224.525 7.0027 225.704C7.03788 226.304 8.46662 223.094 9.04529 223.257C11.4204 223.926 14.0806 222.791 16.745 222.161C19.1379 221.594 21.7069 221.214 25.5935 220.666C28.425 220.266 31.2074 219.485 34.7355 219.246C40.5396 218.854 50.5885 217.201 55.0451 216.884C58.0165 216.673 61.486 216.244 64.2217 216.006C66.9766 215.765 73.4881 213.979 77.7167 213.979C85.8138 213.979 87.0272 214.128 98.2939 213.736C105.783 213.475 120.761 211.7 128.458 211.622C138.327 211.522 141.603 211.775 146.077 211.215C149.126 210.834 153.265 212 158.147 211.215C163.522 210.352 166.814 211.688 168.034 211.215M168.034 211.215C168.662 210.972 167.667 209.812 168.034 211.215ZM168.034 211.215C169.985 218.673 171.85 219.787 173.363 222.227C175.554 225.758 179.908 225.777 190.816 225.704C195.289 225.674 200.573 221.221 202.951 219.246C205.491 217.136 206.436 211.224 207.263 213.979C208.843 219.246 208.124 212.569 208.843 211.622C209.562 210.675 210.56 209.583 217.985 209.021C225.411 208.459 239.234 208.459 246.854 208.537C255.474 208.625 257.354 209.087 263.281 209.323C268.35 209.526 278.111 211.137 283.381 211.215C292.394 211.349 301.065 213.181 308.152 213.979C312.584 214.478 316.46 215.98 320.628 216.135C323.965 216.26 328.178 218.464 335.202 219.246C352.625 221.185 357.727 221.672 360.033 222.227C362.974 222.935 363.235 223.415 364.665 223.415C368.132 223.415 371.847 228.91 370.829 223.415C369.534 216.419 368.989 210.346 368.273 204.916C366.551 191.878 366.619 186.658 366.977 183.658C367.391 180.198 366.619 175.946 366.977 161.81C367.287 149.568 364.878 138.622 364.665 125.79C364.397 109.753 362.089 103.942 362.089 98.6271C362.089 94.2116 362.089 87.4077 362.089 82.0932C362.089 77.5809 361.653 76.7788 361.653 74.4168C361.653 73.3215 361.62 69.7802 361.113 68.5118C360.605 67.2435 359.718 65.9751 359.277 63.4336" stroke="black" stroke-width="14" stroke-linecap="round"/>
<path d="M174.341 209.64C178.297 209.918 183.093 210.468 194.554 210.889C196.447 210.959 196.018 211.302 195.45 211.535C193.11 212.498 190.639 212.969 188.017 213.805C187.376 213.992 186.815 214.175 186.246 214.269C185.677 214.364 185.116 214.364 184.538 214.364" stroke="black" stroke-width="13" stroke-linecap="round"/>
<path d="M182.416 216.134C181.847 214.543 181.29 212.631 181.168 211.603C186.349 211.082 195.208 210.79 199.099 209.83C200.443 209.719 202.156 209.784 203.921 209.85" stroke="black" stroke-width="13" stroke-linecap="round"/>
<path d="M23 208.5C25.8545 208.422 31.5113 207.129 33.8832 206.658C34.9074 206.454 35.5426 206.186 48.3067 205.91C61.0709 205.634 85.9385 204.381 99.1766 204.142C112.415 203.904 113.27 203.748 113.888 203.667C115.588 203.447 118.305 202.959 120.584 202.447C124.313 201.611 126.955 201.461 128.212 201.422C130.797 201.342 117.251 199.18 115.741 198.707C112.417 197.668 108.399 197.918 107.139 197.526C105.373 197.368 104.365 198.943 101.154 198.707C98.2287 198.627 88.7262 198.707 83 198.707" stroke="#797C7C" stroke-width="4" stroke-linecap="round"/>
<path d="M144.326 191.6C145.833 192.623 147.556 192.781 149.25 193.408C149.651 193.557 150.004 193.645 150.045 193.764C148.581 194.198 145.988 193.964 144.802 193.493C144.328 193.256 144.114 193.022 144.11 192.545" stroke="#929DA0" stroke-linecap="round"/>
<path d="M26.217 187.821C26.4329 190.865 26.1479 196.166 25.8585 196.089C24.3566 195.69 26.7179 192.006 27.1854 189.994C27.5743 188.32 28.6655 187.431 28.5921 186.763C28.2285 183.452 36.9353 185.856 39.1258 185.499C40.7909 185.228 42.6744 184.712 44.7861 184.594C48.532 184.385 51.1148 185.145 54.4356 185.027C62.3839 184.744 67.9587 184.83 66.9655 184.594C59.7123 182.869 57.5384 184.122 55.8758 183.69C54.8016 183.41 53.2178 182.861 51.4559 182.939C49.706 183.016 48.7483 184.356 48.6004 184.474C47.7985 185.114 52.894 184.124 57.0645 183.534C58.7372 183.297 59.5249 183.333 66.484 183.294C73.4431 183.255 86.5539 183.177 94.1629 183.254C101.772 183.331 103.622 184.49 104.826 183.841C106.5 182.939 109.798 183.73 113.5 184.594C117.433 185.513 119.771 187.74 123.01 188.487C124.567 188.846 127.104 189.781 129.169 190.379C131.158 190.954 131.363 192.32 138.037 193.5C139.924 193.834 142.101 192.417 142.739 192.545C147.5 193.5 140.374 191.605 138.037 190.659C136.01 189.838 133.612 188.614 131.988 188.019C130.452 187.456 128.861 187.348 127.023 187.074C125.159 186.797 122.608 186.328 120.15 186.128C118.112 185.963 116.692 185.459 116.294 185.459C113.831 185.459 122.578 187.66 124.92 188.487C127.309 189.33 128.775 190.178 129.961 190.732C131.776 191.579 132.951 191.992 133.098 192.267C134.047 194.046 129.362 192.389 127.777 191.916C126.293 191.474 123.969 190.816 122.379 190.263C120.514 189.614 119.354 189.632 115.109 189.514C111.222 189.406 103.81 189.474 99.8503 189.435C94.881 189.386 93.3035 189.082 91.6474 188.806C90.0046 188.532 88.6958 188.529 86.7568 188.137C83.2767 187.434 81.6438 187.429 79.1283 187.231C75.5021 186.947 72.1411 186.484 68.2859 186.248C64.9338 186.042 58.7303 186.167 55.3587 186.245C50.8167 186.35 48.9696 186.205 47.3146 187.307C44 189.514 37.6784 187.188 34.5 187.821C32.1494 188.289 33.3553 189.866 31.8352 190.143C30.4645 190.392 29.242 191.125 28.8469 191.674C28.6362 191.967 28.523 192.379 28.6633 192.697C28.9938 193.445 29.9567 193.489 30.6023 193.451C31.3964 193.403 36.1277 193.654 36.918 193.417C37.275 193.311 33.6965 192.781 32.917 192.781C32.1375 192.781 30.2849 192.781 29.2949 192.976C28.3049 193.171 28.2337 193.56 28.4107 193.8C28.5878 194.04 29.0153 194.118 29.2355 193.417C29.8881 191.342 29.6695 189.399 30.1716 188.848C30.4269 188.568 30.8161 188.454 31.0709 188.529C32.2754 188.887 33.1912 190.806 36.918 191.52C45.3748 193.138 47.2217 191.128 49.5645 190.5C51.1108 190.086 53.7803 190.702 59.5 189.994C63.9144 189.447 71.1198 188.529 75.2245 188.607C79.761 188.693 80.5534 189.08 84.7272 189.198C88.5435 189.306 95.8125 189.238 99.3072 189.199C102.802 189.16 102.303 189.082 101.476 188.847C99.4937 188.284 94.9143 187.197 88.3784 186.252C82.5979 185.417 78.839 185.775 78.7181 185.539C77.0708 182.321 86.2278 185.693 90.4545 186.203C93.1799 186.532 97.1037 186.791 99.6214 187.146C103.173 187.648 104.592 188.293 105.382 188.215C106.061 188.148 113.139 186.881 113.5 186.252C114.499 184.512 102.087 184.282 99.4605 183.649C98.1607 183.336 95.9032 183.179 93.2075 182.55C88.1125 181.36 81.2821 181.54 79.8733 181.148C78.4362 180.748 73.577 181.031 70.6966 181.148M70.6966 181.148C69.8055 181.184 70.336 180.95 70.6966 181.148ZM70.6966 181.148C72.1127 181.927 75.5117 181.127 77.6342 181.599C79.1132 181.835 80.4088 182.152 81.2346 182.191C81.633 182.23 81.9893 182.308 82.3563 182.388" stroke="#929DA0" stroke-width="4" stroke-linecap="round"/>
<path d="M88.3489 19C83.8479 19 74.5499 18.5914 75.154 22.5C75.8996 27.3251 71.6824 15.8969 71.2263 22.5C70.9248 26.8637 68.987 38.1416 65.6849 37.0783C51.5199 32.517 61.9393 47.2369 59.2944 49.8327C56.1433 52.9253 61.3924 56.4256 61.3924 60.3331M61.3924 60.3331C61.3924 64.2406 44.7008 46.0069 51.5 54.5C55.4473 59.4307 48.4928 60.303 50 63.6196C52.2664 68.6067 61.7187 71.3646 53.7863 71.3646C46.3106 71.3646 56.1275 77.6059 57.1859 77.6957C62.8677 78.1776 53.3602 67.4048 61.3924 60.3331ZM61.3924 60.3331C67.6252 54.8456 77.5563 45.4516 83.1475 41.7935C88.8451 38.0658 92.084 33.9662 94.0353 33.7942C102.955 33.0078 109.277 42.7386 117.062 47.9102C121.596 50.9219 128.02 49.4213 134.794 49.8327C138.738 50.0723 143.663 51.0671 146.58 52.1493C149.496 53.2314 143.085 57.306 143.47 66.3775C143.855 75.4491 151.015 89.4777 150.342 101.911C149.669 114.343 148.322 121.914 147.629 126.637C146.165 136.606 146.029 145.952 145.279 152.961C145.06 155 144.08 157.751 143.47 159.439C140.186 168.533 119.149 161.472 116.724 159.978C109.966 155.815 124.185 142.179 125.552 137C126.415 133.73 121.688 118.832 123.954 104.873C124.932 98.8499 125.024 96.8088 125.552 90.0463C126.002 84.2869 125.93 73.7384 119.276 68.2302C112.622 62.7219 95.5085 50.0447 88.3489 63.6196C81.1894 77.1945 84.3918 117.027 85.4321 131.1C86.4723 145.174 89.0152 145.174 90.6992 145.009C95.0249 144.586 97.0655 139.698 100.912 133.237C102.193 131.084 102.65 128.108 102.96 119.754C103.271 111.401 103.121 97.5768 102.969 89.9615C102.818 82.3462 102.668 81.3587 102.516 80.4386C102.364 79.5185 102.215 78.6956 100.044 77.6957C93.906 74.8692 82.9368 74.3569 72.9669 74.686C69.418 74.8032 68.9803 75.6734 68.7491 76.7531C68.2128 79.2581 69.565 86.7648 71.2263 96.9759C71.9212 101.247 71.99 103.731 72.6654 108.459C73.3408 113.186 74.5375 120.099 75.154 129.502C75.7704 138.905 88.3489 149.435 88.3489 159.978" stroke="#BCC0C1" stroke-width="29" stroke-linecap="round"/>
<path d="M145.305 193.052C148.392 192.58 149.57 192.462 150.404 193.052C152.688 194.671 147.496 193.611 146.921 193.885C146.661 194.009 145.91 194.822 146.052 195.021C147.339 196.838 153.179 195.438 155.446 195.91C158.605 196.569 161.5 196.952 164.829 198.169C166.657 198.836 167.926 200.882 169.582 202.303C169.964 202.631 170.773 203.073 171.1 202.996C171.427 202.92 172.716 202.541 172.719 202.303M172.719 202.303C172.742 200.657 166.794 200.505 165.201 199.633C165.054 199.553 165.408 199.319 165.84 199.316C168.281 199.303 172.465 202.107 172.719 202.303ZM172.719 202.303C174.158 203.415 166.678 199.758 163.091 197.637C159.452 195.484 156.646 194.519 154.732 193.885C153.213 193.382 151.961 193.097 150.593 192.978C149.869 192.915 149.151 192.781 148.861 192.781C146.916 192.781 156.119 195.592 157.065 195.91C159.62 196.772 148.506 194.982 145.305 195.143C145.248 195.146 146.601 195.143 147.334 194.987C148.068 194.831 151.915 195.615 151.667 195.143C151.419 194.67 147.072 192.951 146.921 192.513C146.77 192.075 147.055 191.841 146.952 191.642C146.85 191.444 145.589 191.267 145.189 191.186C143.487 190.844 173.18 200.099 172.719 202.303ZM172.719 202.303C172.011 205.693 161.072 197.746 160.5 197.987C157.845 199.104 155.13 195.997 152.746 195.723C152.31 195.605 151.441 195.548 150.404 195.468C149.366 195.388 144.218 194.434 142.382 194.434" stroke="#8D9394" stroke-linecap="round"/>
<path d="M171.102 204.326C170.459 204.326 166.834 202.287 164.625 200.783C162.663 199.446 159.628 198.914 158.404 198.442C156.97 197.889 155.172 197.814 153.546 197.222C151.993 196.657 149.769 196.633 147.97 196.433C146.523 196.273 145.093 196.08 142.359 195.922C141.466 195.87 138.775 195.527 134.57 195.41C130.138 195.287 126.329 193.879 123.319 193.599C122.418 193.515 121.695 193.323 119.696 193.166C114.857 192.786 111.26 192.773 108.44 192.537C101.436 191.95 96.2902 192.301 95.0724 191.987C93.1729 191.497 91.6825 191.434 85.1584 191.316C78.9201 191.203 66.8624 192.141 60.4431 192.219C52.9343 192.31 50.623 192.302 49.1072 192.537C46.8884 192.881 44.249 193.697 42.0898 193.697C40.312 193.697 41.55 193.106 36.152 194.918C32.9462 195.994 31.9037 196.176 30.2142 196.649C27.9448 197.285 26.4356 197.83 26.4356 197.83C26.4356 197.83 24.8161 198.421 21.0375 200.192C18.9573 201.167 18.1658 200.579 17.7987 201.373" stroke="black" stroke-width="2" stroke-linecap="round"/>
<path d="M44.6809 39.991C43.7546 39.7548 38.3112 42.6057 37.2316 43.1206C35.7335 43.8351 36.7285 46.5213 36.5461 48.4351C36.152 52.5685 36.5461 54.9305 36.152 57.2925C35.8719 58.9715 35.8648 61.7861 35.6856 64.9689C35.5658 67.0961 35.0022 69.1023 35.0022 70.8738C35.0022 72.3397 34.9266 74.0082 34.5326 76.1883C34.28 77.5857 34.1018 79.573 33.9928 80.9122C33.8567 82.5841 33.6322 84.2946 33.453 85.6362C33.2753 86.9665 32.9132 89.1791 32.9132 90.3601C32.9132 91.8272 32.626 93.4236 32.3734 98.6271C32.1823 102.564 31.8789 108.761 31.2938 112.799C30.6093 117.523 30.2498 120.242 30.2142 121.656C30.0996 126.206 29.3527 128.865 29.1346 131.695C29.0035 133.395 28.5948 137.351 28.5948 139.371C28.5948 143.505 28.2342 146.611 28.055 148.229C27.9018 149.612 27.9816 150 27.5152 155.905C27.142 160.629 26.618 165.674 26.4356 168.896C26.3359 170.655 26.075 174.067 25.8958 176.572C25.7853 178.116 24.7906 185.873 25.356 183.068C25.3836 182.931 24.7093 185.946 25.8958 185.214C26.4311 184.883 31.6554 182.341 37.2316 182.303C40.2638 182.281 41.0772 181.708 42.6296 181.512C44.0459 181.334 46.4061 181.671 48.5674 181.512C50.5558 181.367 50.623 181.197 53.4257 180.609C55.8473 180.101 59.4585 180.806 62.0625 180.607C62.7898 180.551 66.2697 179.761 70.1595 179.525C73.6173 179.315 78.2317 179.447 82.0352 179.525C88.2275 179.652 91.0671 179.325 92.8312 179.525C94.1004 179.668 97.792 180.01 100.928 180.607C105.457 181.468 106.395 180.134 107.946 180.607C109.582 181.105 111.686 181.495 113.344 181.887C115.884 182.488 119.874 182.794 122.52 183.068C124.14 183.235 126.59 184.683 132.777 186.02C135.993 186.715 139.541 188.461 141.953 188.973C143.892 189.384 146.245 190.234 148.431 190.744C151.52 191.465 153.272 191.583 155.988 193.106C158.167 194.328 162.401 195.094 165.165 196.649C171.666 200.308 173.655 201.173 174.881 201.373C175.455 201.49 175.714 202.011 177.58 203.44C180.279 205.507 180.871 207.193 181.898 205.507" stroke="black" stroke-width="2" stroke-linecap="round"/>
<path d="M57.2043 24.8155C55.2804 24.5793 52.562 25.6398 51.2664 25.9964C50.2942 26.2641 47.2762 26.8421 46.486 27.272C45.4991 27.8088 45.5446 33.2549 45.5802 40.1022C45.6021 44.3182 44.5362 46.972 44.7888 51.9782C44.9816 55.7978 44.2847 59.2295 44.249 63.1976C44.1985 68.8199 43.7092 73.236 43.7092 75.0075C43.7092 76.5521 43.1694 79.7314 43.1694 81.5029C43.1694 83.0489 42.6296 84.9732 42.6296 87.4078C42.6296 90.3603 42.4169 93.6954 42.0898 95.6748C41.6815 98.1453 41.1927 99.9263 41.0102 101.58C40.8333 103.183 40.6496 105.345 40.4704 111.028C40.351 114.814 38.4192 121.81 38.4548 125.58C38.5001 130.376 38.2076 132.411 37.7369 134.463C37.3009 136.364 37.1236 138.552 36.7652 141.505C36.4552 144.06 36.1175 145.642 35.9728 150.904C35.8446 155.566 35.3272 160.131 35.1447 161.627C34.962 163.125 34.6794 164.694 34.497 166.625C34.2851 168.867 34.7533 170.827 34.2433 173.08C33.453 176.573 39.7836 170.023 41.0102 169.487C43.7092 168.306 49.1073 166.625 51.2665 165.944C52.5409 165.541 55.2588 165.158 56.6645 164.763C57.9172 164.41 60.4431 164.172 63.1421 164.172C65.8203 164.172 67.5739 164.449 73.3983 164.172C77.7851 163.964 82.4584 164.724 86.8934 164.763C93.0539 164.817 97.4681 166.492 99.3088 167.125C102.459 168.208 104.921 168.385 106.326 168.896C107.516 169.329 110.715 169.372 112.264 170.077C114.819 171.24 115.678 171.414 117.662 171.849C119.049 172.152 122.135 173.031 127.918 174.801C132.982 176.351 134.426 177.694 136.437 178.361C139.276 179.301 141.327 179.896 143.529 180.684C145.788 181.491 148.245 182.574 149.898 183.164C152.667 184.151 153.033 184.999 154.369 185.43C155.9 185.924 158.001 187.517 159.767 188.382C161.485 189.225 162.832 189.959 165.704 191.335C168.02 192.444 171.075 194.626 174.881 197.24C176.436 198.308 179.126 201.058 180.279 201.373C182.438 201.964 182.22 202.903 183.518 203.735C186.257 205.491 184.701 205.105 185.137 205.507" stroke="black" stroke-width="2" stroke-linecap="round"/>
<path d="M188.916 52.5686C187.413 50.6105 183.738 47.4998 180.903 44.5096C178.848 42.3416 177.401 40.5237 176.5 39.5777C175.04 38.0435 172.94 34.6199 171.642 33.6728C169.904 32.4043 169.439 31.7359 166.244 27.7678C164.368 25.4367 162.07 25.396 160.455 23.9143C158.841 22.4326 156.499 20.3311 154.908 19.5009C153.77 18.9065 151.785 17.064 149.51 15.9579C144.652 13.596 142.386 12.4965 140.334 11.234C137.437 9.45217 134.578 9.58297 133.316 8.87201C131.648 7.93237 130.293 8.55787 128.998 8.28152C127.15 7.88733 125.228 7.18087 123.211 7.06159C121.819 6.97926 119.834 6.62816 118.314 6.1971C116.901 5.79626 115.149 5.76368 113.781 5.6444C111.96 5.48565 109.254 4.97478 107.592 4.58269C105.685 4.13296 103.355 4.26619 98.4451 4.07014C95.0572 3.93487 88.6423 4.02999 85.1962 4.06896C80.7371 4.11939 79.1634 4.65827 77.4717 4.9736C75.5677 5.32849 73.9813 5.44718 72.5757 6.07428C71.361 6.61619 70.7004 6.66832 69.0799 7.06159C67.5953 7.42187 65.5604 8.12093 63.9043 8.75158C62.0969 9.43982 60.5208 10.0908 59.2966 10.6801C58.4901 11.0684 57.8153 15.5269 57.7441 21.8629C57.7057 25.2714 57.2043 26.5868 56.9905 28.3513C56.7769 30.1144 56.6645 31.9013 56.6645 33.0823C56.6645 34.4819 56.3071 38.4369 56.1247 40.1682C55.9336 41.9809 55.6939 41.6811 55.5849 47.8446C55.528 51.0565 55.3815 53.2635 55.0451 54.9306C54.7086 56.5976 54.1101 61.2996 53.9655 63.1975C53.7898 65.5015 53.1018 71.9958 52.8859 78.5503C52.6855 84.6337 52.3104 86.5433 52.3461 92.7222C52.3876 99.929 51.2665 103.351 50.7267 107.485C49.5415 116.559 49.647 115.864 49.647 117.523C49.647 119.885 49.6103 124.252 49.1072 125.79C48.6495 127.189 48.8913 129.092 48.5674 130.514C48.2562 131.88 48.3191 134.451 48.0276 135.828C47.7318 137.226 48.0276 140.552 48.0276 142.324C48.0276 143.798 48.0277 144.095 47.4878 147.638C47.2323 149.316 44.9998 154.702 46.9481 154.134C55.0451 151.772 56.3384 151.733 57.7441 151.378C59.1448 151.025 61.5227 150.591 63.1421 150.591C64.7615 150.591 67.4951 150.116 69.0799 149.997C71.38 149.824 74.2404 149.764 77.2342 149.372C80.8827 148.894 83.8343 149.997 85.2632 149.997C90.672 149.997 95.2776 150.352 96.6098 150.591C98.8382 150.99 102.33 152.441 103.627 152.953C105.295 153.61 108.013 154.881 110.245 155.469C112.578 156.084 114.637 156.298 116.043 156.729C117.214 157.089 119.031 158.345 120.901 158.858C123.744 159.637 124.357 160.864 127.379 161.81C129.401 162.443 130.532 163.578 133.316 165.353C134.331 166 134.931 166.298 137.752 167.545C140.21 168.632 144.492 171.286 146.91 172.649C150.272 174.545 153.833 177.22 157.273 179.439C161.296 182.034 164.068 184.315 165.915 185.859C167.566 187.238 169.474 188.179 171.635 189.598C172.911 190.436 174.082 191.722 176.205 192.983C177.727 193.888 178.906 194.717 182.711 197.739C184.597 199.237 185.889 201.17 186.574 202.431C186.968 203.06 187.474 203.849 188.119 204.791C188.48 205.266 188.907 205.733 189.348 206.451" stroke="black" stroke-width="2" stroke-linecap="round"/>
<path d="M340.06 56.702C341.572 56.702 345.553 55.4694 347.078 56.702C348.602 57.605 350.655 58.3751 352.065 59.1083C352.484 59.5167 353.012 60.1663 353.555 60.8355" stroke="black" stroke-width="2" stroke-linecap="round"/>
<path d="M362.192 209.049C362.192 208.894 358.414 207.64 360.108 207.64C361.525 207.64 357.371 206.176 355.715 205.507C353.97 204.801 351.148 203.817 349.777 203.145C348.3 202.421 347.877 203.15 345.575 202.247C344.246 201.725 341.351 200.32 338.981 200.001C335.792 199.572 334.268 199.096 332.503 198.861C330.586 198.606 330.017 198.226 327.105 197.56C324.761 197.023 321.025 196.264 319.548 195.945C317.986 195.608 314.943 193.863 313.61 193.705C311.541 193.459 307.638 193.074 306.053 192.875C304.751 192.711 303.32 193.074 301.735 192.875C299.637 192.611 297.732 192.87 293.637 192.008C291.31 191.518 289.318 192.128 287.7 192.009C285.767 191.866 289.217 192.204 280.142 192.008C272.443 191.841 258.494 191.969 250.5 192.008C242.006 192.049 241.136 192.205 240.418 192.283C238.385 192.504 235.671 192.989 234.229 193.189C232.342 193.45 230.921 193.858 229.621 194.054C228.186 194.271 224.888 194.879 222.785 195.235C220.287 195.659 217.677 195.984 216.271 196.376C214.666 196.824 212.637 197.869 210.733 199.363C208.411 201.184 204.54 203.145 202.951 203.145C200.786 203.145 206.458 204.97 204.865 204.245C202.446 203.145 201.375 203.371 200.792 204.245" stroke="black" stroke-width="2" stroke-linecap="round"/>
<path d="M189.456 51.3875C191.459 49.668 197.086 40.6429 201.331 37.8061C205.215 35.2111 209.817 31.1642 213.207 27.7677C217.218 23.7488 222.559 20.84 225.083 19.5008C227.841 18.037 231.049 17.0609 233.719 14.7768C236.083 12.7554 240.89 11.5787 240.89 11.5787C240.89 11.5787 246.355 9.70328 248.808 8.75141C251.179 7.8314 258.494 6.87363 261.241 5.84381C263.595 4.96091 266.481 6.23591 271.506 5.84382C284.878 4.80026 291.435 5.74933 296.503 6.62563C300.35 7.2909 304.278 8.12076 307.301 8.75141C310.461 9.41076 314.353 9.69856 316.439 10.0103C317.283 10.1366 317.527 10.9457 317.674 11.5787C318.28 14.193 320.269 18.889 320.628 30.7202C320.895 39.533 323.003 56.4941 323.074 65.5593C323.161 76.6833 324.68 80.3312 325.756 88.5886C326.32 92.9184 325.397 96.8272 325.756 100.989C326.547 110.177 326.74 114.792 327.105 118.113C327.475 121.475 326.388 126.312 327.105 130.514C327.755 134.323 328.548 137.583 329.264 143.505C329.556 145.915 331.78 153.819 331.424 155.91C331.067 158 323.074 155.91 323.074 155.91C323.074 155.91 317.749 154.809 313.07 153.222C308.169 151.559 306.645 151.89 298.496 151.105C292.097 150.49 280.335 153.066 273.665 153.222C268.267 153.348 264.095 154.096 261.789 155.91C259.512 157.701 251.645 158.737 248.834 160.629C246.296 162.337 243.414 161.8 240.89 162.908C238.125 164.122 236.025 164.958 233.719 166.534C231.473 168.068 229.941 168.305 226.702 170.667C224.65 172.164 220.691 173.587 217.525 176.572C214.487 179.438 211.916 181.098 209.968 183.068C207.575 185.489 206.19 186.611 204.03 190.154C202.606 192.491 198.796 195.331 196.408 199.193C195.167 201.2 193.606 203.735 193.234 203.735C191.615 203.735 193.234 201.269 194.387 201.269C195.19 201.269 196.906 199.063 196.906 198.421" stroke="black" stroke-width="2" stroke-linecap="round"/>
<path d="M321.275 23.8706C323.141 24.4989 325.438 24.8154 327.744 25.3634C330.233 25.9547 331.92 27.4892 332.929 28.2733C333.755 28.9158 332.935 36.5592 333.078 46.7912C333.236 58.1595 334.369 72.3573 335.021 74.8799C335.694 77.4847 335.958 84.1294 336.675 89.4367C337.655 96.694 337.253 105.841 338.042 111.41C338.749 116.408 338.834 122.743 339.052 128.641C339.213 132.994 340.993 137.6 340.993 141.143C340.993 144.686 340.564 147.478 340.993 150C341.21 151.274 340.993 159.448 343.839 170.077C344.667 173.171 337.809 168.813 336.675 168.305C333.378 166.829 332.676 167.488 328.129 166.222C324.272 165.149 321.293 165.277 317.762 164.961C316.815 164.876 315.826 164.493 306.476 164.333C297.127 164.172 281.973 166.144 272.585 166.222C261.3 166.316 258.011 170.077 254.772 170.077C252.415 170.077 249.125 172.314 245.595 173.029C241.917 173.775 238.444 174.799 235.339 175.982C231.18 177.567 226.598 179.993 224.003 181.887C220.519 184.43 215.366 187.201 211.588 190.154C209.014 192.165 207.416 194.013 205.11 196.059C203.089 197.792 200.796 197.863 199.649 198.185C198.93 197.882 196.421 203.249 195.394 201.964" stroke="black" stroke-width="2" stroke-linecap="round"/>
<path d="M334.662 40.7587C335.202 40.7587 338.981 43.1206 337.361 41.9397C336.636 41.4109 339.716 43.5942 339.97 43.7111C340.223 43.8281 339.968 46.2149 339.97 46.6636C339.972 47.2541 340.06 49.0256 339.97 52.5686C339.885 55.8868 340.06 60.245 340.06 64.3784C340.06 69.2248 340.165 71.7265 340.6 73.8263C340.886 75.2063 340.602 77.9197 341.14 80.3218C341.48 81.8415 340.961 84.0674 342.22 90.9507C342.759 93.9032 342.762 97.4508 343.299 105.123C343.66 110.267 344.847 118.454 344.919 123.428C345.028 131.071 345.818 136.338 345.998 138.19C346.253 140.806 346.895 145.394 347.078 147.048C347.235 148.47 347.435 150.079 347.618 151.772C347.795 153.415 347.799 153.819 348.157 158.858C348.362 161.739 349.201 167.071 349.237 170.077C349.292 174.735 349.451 177.014 349.777 179.525C349.938 180.767 350.441 182.72 350.663 183.854C350.856 184.839 348.273 183.932 347.618 183.854C345.787 183.637 343.119 182.912 341.68 182.477C339.319 181.764 338.741 181.355 334.662 180.963C331.816 180.69 326.725 180.784 323.866 180.706C320.049 180.602 318.788 180.507 316.849 180.115C313.509 179.44 310.079 179.427 307.48 179.427C305.513 179.427 303.894 179.427 302.274 179.427C300.655 179.427 298.365 179.545 292.018 179.427C286.028 179.315 276.549 180.784 270.426 181.533C262.869 182.456 260.319 183.047 258.55 183.047C255.312 183.047 251.194 183.413 248.834 184.249C247.276 184.801 243.694 185.858 241.277 186.611C239.466 187.174 238.002 187.378 236.418 187.929C234.351 188.647 232.462 189.189 231.02 189.385C229.157 189.638 227.855 190.268 226.702 190.744C225.508 191.237 224.329 191.061 222.923 191.925C221.84 192.592 220.214 192.296 218.27 193.123C216.919 193.698 215.463 193.949 214.237 194.815C212.845 195.798 210.477 196.526 208.889 197.24C207.658 197.792 206.684 198.598 205.349 199.029C204.673 199.247 203.741 199.878 202.951 200.192C201.739 200.674 200.44 201.293 200.792 201.373C201.144 201.453 195.445 203.145 196.473 203.145" stroke="black" stroke-width="2" stroke-linecap="round"/>
<path d="M188.916 53.7495V203.145" stroke="black"/>
<path d="M217.31 76.1883C218.454 75.5648 221.326 73.987 224.279 73.0422C229.488 71.376 237.157 76.0277 244.701 75.8766C250.003 75.7703 252.418 71.3132 257.449 69.3457C262.359 69.0977 266.937 70.0472 270.417 69.5772C270.996 69.4189 271.566 69.263 272.153 69.1024" stroke="black" stroke-width="2" stroke-linecap="round"/>
<path d="M166.784 118.822C164.927 118.354 158.614 115.69 147.66 113.092C140.255 111.336 128.583 112.208 120.856 111.585C113.128 110.961 109.565 109.714 107.16 107.825C102.814 104.41 102.012 100.247 101.293 98.9909C98.8397 94.7031 87.2043 98.339 84.1685 99.1373C82.5922 99.605 80.0012 100.082 77.8377 100.24C77.3842 100.243 78.2393 100.087 80.4157 99.4538" stroke="black" stroke-width="2" stroke-linecap="round"/>
<path d="M79.9839 61.6622C80.2689 61.6622 85.4035 61.6622 94.5283 62.6755C102.274 63.5356 107.881 69.2064 113.909 71.566C125.632 76.1544 132.219 75.2011 136.747 76.3797C147.183 77.7237 154.952 78.5031 160.054 80.1518C162.306 81.021 163.873 81.9563 166.352 82.92" stroke="black" stroke-width="2" stroke-linecap="round"/>
<path d="M73.0744 28.1221C73.3595 28.1221 78.209 28.278 86.2607 28.8259C91.5343 29.1848 97.3612 32.3547 103.692 35.5009C106.778 37.0343 111.608 38.1983 119.441 38.6683C125.173 39.0122 130.194 40.0878 135.722 41.2594C145.896 46.8525 150.789 48.7469 154.677 54.3943C155.69 55.8281 156.688 56.6075 158.579 57.883" stroke="black" stroke-width="2" stroke-linecap="round"/>
<path d="M212.127 109.728C214.131 108.637 217.871 105.798 220.537 103.753C224.073 101.04 228.805 99.3451 234.203 99.0192C238.235 98.7757 242.045 102.945 251.96 103.353C256.187 103.528 261.323 99.6758 266.79 95.7408C272.559 92.7316 278.622 90.3649 280.915 89.6563C282.353 89.4154 284.349 89.4154 287.7 88.943" stroke="black" stroke-width="2" stroke-linecap="round"/>
<path d="M213.423 58.2374C216.567 53.2111 222.336 50.3673 224.642 49.2666C227.023 48.1301 230.532 49.2524 233.709 49.8902C235.182 50.186 237.589 50.6791 240.536 50.3673C244.272 49.9721 247.512 46.1252 251.628 43.9144C254.41 42.42 259.319 46.5692 266.656 47.0605C269.113 46.1252 271.277 44.8592 273.291 44.46C274.023 44.6844 274.166 45.7756 274.313 48.3171" stroke="black" stroke-width="2" stroke-linecap="round"/>
<path d="M216.014 136.183C217.59 135.559 221.887 131.175 225.646 128.629C227.304 127.506 229.677 127.212 233.827 126.425C241.579 124.956 249.382 126.569 254.767 127.75C263.619 129.692 267.248 125.327 273.997 119.278C277.286 116.331 280.203 116.503 282.723 116.186C283.515 116.03 284.513 115.718 285.312 115.558C286.11 115.397 286.681 115.397 287.268 115.397" stroke="black" stroke-width="2" stroke-linecap="round"/>
</svg>
