<svg viewBox="0 0 1435 732" fill="none" xmlns="http://www.w3.org/2000/svg">
<rect x="974" y="86" width="158" height="493" fill="black"/>
<path d="M1052.5 35L1131.74 86.75H973.259L1052.5 35Z" fill="black"/>
<rect x="993" y="104" width="21" height="21" fill="#313335"/>
<rect x="1020" y="104" width="21" height="21" fill="#313335"/>
<rect x="1020" y="131" width="21" height="21" fill="#313335"/>
<rect x="1020" y="158" width="21" height="21" fill="#313335"/>
<rect x="1095" y="158" width="21" height="21" fill="#313335"/>
<rect x="1058" y="192" width="21" height="21" fill="#313335"/>
<rect x="1020" y="219" width="21" height="21" fill="#313335"/>
<g filter="url(#filter0_d_0_1)">
<rect x="1095" y="250" width="21" height="21" fill="#313335"/>
</g>
<rect x="993" y="299" width="21" height="21" fill="#313335"/>
<rect x="1020" y="329" width="21" height="21" fill="#313335"/>
<rect x="1058" y="354" width="21" height="21" fill="#313335"/>
<rect x="1058" y="390" width="21" height="21" fill="#313335"/>
<rect x="1020" y="424" width="21" height="21" fill="#313335"/>
<rect x="1095" y="456" width="21" height="21" fill="#313335"/>
<rect x="1095" y="485" width="21" height="21" fill="#313335"/>
<rect x="993" y="487" width="21" height="21" fill="#313335"/>
<rect x="1020" y="487" width="21" height="21" fill="#313335"/>
<rect x="1095" y="354" width="21" height="21" fill="#313335"/>
<rect x="1058" y="219" width="21" height="21" fill="#313335"/>
<rect x="211" y="130" width="259" height="485" fill="black"/>
<rect x="198" y="107" width="285" height="23" fill="black"/>
<rect x="232" y="86" width="217" height="23" fill="black"/>
<rect x="232" y="147" width="212" height="12" fill="#313335"/>
<rect x="235" y="429" width="212" height="12" fill="#313335"/>
<rect x="232" y="176" width="164" height="12" fill="#313335"/>
<rect x="232" y="205" width="200" height="12" fill="#313335"/>
<rect x="245" y="395" width="200" height="12" fill="#313335"/>
<rect x="232" y="234" width="212" height="82" fill="#313335"/>
<rect x="232" y="332" width="212" height="41" fill="#313335"/>
<rect x="487" y="254" width="183" height="325" fill="black"/>
<rect x="508" y="276" width="30" height="40" fill="#313335"/>
<rect x="619" y="333" width="30" height="40" fill="#313335"/>
<rect x="508" y="404" width="30" height="40" fill="#313335"/>
<rect x="619" y="456" width="30" height="40" fill="#313335"/>
<rect x="561" y="456" width="30" height="40" fill="#313335"/>
<rect x="561" y="276" width="88" height="40" fill="#313335"/>
<rect x="508" y="333" width="88" height="40" fill="#313335"/>
<rect x="684" width="222" height="579" fill="black"/>
<rect x="712" y="35" width="30" height="40" fill="#313335"/>
<rect x="780" y="35" width="30" height="40" fill="#313335"/>
<rect x="848" y="35" width="30" height="40" fill="#313335"/>
<rect x="712" y="107" width="30" height="40" fill="#313335"/>
<rect x="780" y="107" width="30" height="40" fill="#313335"/>
<rect x="848" y="107" width="30" height="40" fill="#313335"/>
<rect x="712" y="179" width="30" height="40" fill="#313335"/>
<rect x="780" y="179" width="30" height="40" fill="#313335"/>
<rect x="848" y="179" width="30" height="40" fill="#313335"/>
<rect x="712" y="251" width="30" height="40" fill="#313335"/>
<rect x="780" y="251" width="30" height="40" fill="#313335"/>
<rect x="848" y="251" width="30" height="40" fill="#313335"/>
<rect x="712" y="323" width="30" height="40" fill="#313335"/>
<rect x="780" y="323" width="30" height="40" fill="#313335"/>
<rect x="848" y="323" width="30" height="40" fill="#313335"/>
<rect x="712" y="395" width="30" height="40" fill="#313335"/>
<rect x="780" y="395" width="30" height="40" fill="#313335"/>
<rect x="848" y="395" width="30" height="40" fill="#313335"/>
<rect x="712" y="467" width="30" height="40" fill="#313335"/>
<rect x="780" y="467" width="30" height="40" fill="#313335"/>
<rect x="848" y="467" width="30" height="40" fill="#313335"/>
<rect width="18" height="6" transform="matrix(-1 0 0 1 46 152)" fill="black"/>
<path d="M30 152.5C30 148.878 33.8321 145.388 40.7423 142.715C47.6526 140.043 57.1407 138.381 67.3401 138.058C77.5395 137.735 87.7118 138.773 95.8557 140.968C104 143.164 109.526 146.358 111.347 149.922L97.7071 150.793C96.5017 148.434 92.8438 146.32 87.453 144.867C82.0622 143.413 75.3288 142.726 68.5774 142.94C61.826 143.154 55.5454 144.254 50.9712 146.023C46.397 147.792 43.8604 150.103 43.8604 152.5H30Z" fill="black"/>
<rect width="16" height="574" transform="matrix(-1 0 0 1 45 158)" fill="black"/>
<ellipse cx="23" cy="12" rx="23" ry="12" transform="matrix(-1 0 0 1 128 149)" fill="#383232"/>
<rect x="1377" y="138.104" width="18" height="5.61616" fill="black"/>
<path d="M1393 138.572C1393 135.183 1389.17 131.915 1382.26 129.414C1375.35 126.912 1365.86 125.357 1355.66 125.054C1345.46 124.752 1335.29 125.723 1327.14 127.778C1319 129.834 1313.47 132.823 1311.65 136.159L1325.29 136.975C1326.5 134.767 1330.16 132.788 1335.55 131.427C1340.94 130.067 1347.67 129.424 1354.42 129.624C1361.17 129.824 1367.45 130.854 1372.03 132.51C1376.6 134.166 1379.14 136.328 1379.14 138.572H1393Z" fill="black"/>
<rect x="1378" y="143.721" width="16" height="537.279" fill="black"/>
<ellipse cx="1318" cy="146.528" rx="23" ry="11.2323" fill="#383232"/>
<rect x="-5" y="574" width="1440" height="158" fill="#1E1B1B"/>
<defs>
<filter id="filter0_d_0_1" x="1095" y="250" width="21" height="21" filterUnits="userSpaceOnUse" color-interpolation-filters="sRGB">
<feFlood flood-opacity="0" result="BackgroundImageFix"/>
<feColorMatrix in="SourceAlpha" type="matrix" values="0 0 0 0 0 0 0 0 0 0 0 0 0 0 0 0 0 0 127 0" result="hardAlpha"/>
<feOffset/>
<feComposite in2="hardAlpha" operator="out"/>
<feColorMatrix type="matrix" values="0 0 0 0 0.921683 0 0 0 0 0.970192 0 0 0 0 0 0 0 0 0.5 0"/>
<feBlend mode="normal" in2="BackgroundImageFix" result="effect1_dropShadow_0_1"/>
<feBlend mode="normal" in="SourceGraphic" in2="effect1_dropShadow_0_1" result="shape"/>
</filter>
</defs>
</svg>
