<svg viewBox="0 0 278 210" fill="none" xmlns="http://www.w3.org/2000/svg">
<path d="M57.2548 174.743C69.0725 173.625 94.4856 174.363 102.692 177.711C109.151 180.347 118.322 181.809 125.433 185.722C131.357 188.982 137.351 191.134 142.953 195.036C144.082 196.344 144.82 197.819 145.569 199.318C146.318 200.816 147.056 202.292 147.816 203.812" stroke="black" stroke-width="12" stroke-linecap="round"/>
<path d="M32.6578 116.605C33.3957 116.605 35.2517 115.867 49.6633 114.749C86.8402 111.865 113.515 114.738 116.673 115.666C123.819 117.765 131.739 122.911 140.89 128.512C147.593 132.615 153.742 136.707 160.277 140.442C167.792 144.736 173.129 150.124 178.171 154.417C183.486 158.942 189.161 164.278 193.639 170.249C195.87 173.223 198.117 176.219 200.163 179.193C201.102 180.691 201.84 182.167 202.6 183.687" stroke="black" stroke-width="12" stroke-linecap="round"/>
<path d="M6.94287 22.6894C10.2858 20.4645 15.4847 17.4793 23.68 14.1307C32.5576 10.5034 41.1997 9.65299 48.098 7.23242C51.2108 6.14014 71.2303 5.91873 102.686 6.47216C133.126 7.00771 141.824 14.8407 153.172 20.4309C164.418 25.971 176.796 34.563 188.96 42.4173C196.851 47.5121 202.936 50.9982 209.286 54.9114C215.799 58.9246 223.798 67.3663 228.489 73.9125C232.341 79.2894 236.499 84.8973 240.966 90.3086C247.291 97.972 252.51 103.904 256.624 110.059C261.199 116.902 262.594 122.911 266.127 130.737C268.565 137.087 270.041 143.035 271.729 149.928C271.919 152.349 271.919 155.669 271.919 159.091" stroke="black" stroke-width="12" stroke-linecap="round"/>
</svg>
